<?xml version="1.0" encoding="utf-8" ?><svg xmlns="http://www.w3.org/2000/svg" xmlns:xlink="http://www.w3.org/1999/xlink" width="1024" height="1024" viewBox="0 0 1024 1024"><path fill="#6F6180" d="M192.149 13.4128C199.43 14.0587 207.275 23.1375 212.938 28.0553C220.406 34.4191 228.132 40.4734 236.097 46.2028C250.872 56.713 266.274 66.2142 281.582 75.8927C289.25 80.7413 298.904 86.2431 306.147 91.4706C311.294 89.431 317.981 85.896 323.417 83.5321C335.071 78.5711 346.871 73.9609 358.802 69.7079C416.901 49.5739 478.358 40.9198 539.758 44.2267C663.639 52.8147 778.954 110.54 860.065 204.568C941.163 297.008 982.293 417.835 974.437 540.554C968.734 628.867 937.627 717.13 883.261 787.359C865.198 810.693 846.314 829.798 824.255 849.195C824.54 853.421 825.337 858.461 825.78 862.84C832.741 863.905 839.693 865.028 846.636 866.209L849.605 889.024C853.116 889.658 858.13 890.739 861.548 890.706C862.897 895.825 871.023 948.204 870.786 950.994C864.659 954.509 789.006 958.778 777.378 959.615C767.017 960.867 753.285 961.456 742.657 962.181L695.118 965.762L537.055 977.378C500.38 980.393 463.688 983.216 426.983 985.846C413.974 986.689 400.067 987.896 387.15 988.371C382.3 988.549 370.583 986.661 365.159 986.032L325.759 981.506C290.815 977.503 255.82 974.164 220.894 969.953C213.144 969.018 171.581 965.807 167.869 963.197C165.523 956.685 178.247 905.464 181.127 895.82C185.524 894.879 190.771 894.145 195.285 893.353C201.169 873.427 191.207 868.654 216.02 862.688C207.386 854.776 197.203 847.072 188.057 838.702C169.576 821.555 152.57 802.882 137.221 782.883C65.6488 690.924 34.6791 569.449 49.3204 454.207C61.0489 366.425 98.1148 283.967 155.981 216.925C167.451 203.481 186.126 183.478 200.101 172.649C198.15 161.978 195.334 150.243 190.536 140.558C181.911 135.839 173.561 130.159 164.963 125.331C159.105 121.908 153.572 119.14 147.641 115.734C143.905 113.589 138.999 103.953 142.562 100.071C144.11 98.3837 148.885 95.6803 151.01 94.3915C169.249 83.3304 181.638 64.9351 193.238 47.5061C192.596 46.5408 191.978 45.5602 191.383 44.5651C185.897 35.3174 180.154 20.2174 192.149 13.4128ZM52.4515 491.335C65.2402 486.658 78.1848 488.038 82.8183 502.541C86.6342 501.656 90.104 501.289 93.8943 500.806C108.253 498.978 113.242 501.773 118.04 515.203C119.761 515.073 123.757 514.647 125.305 514.985C139.692 518.133 137.848 534.53 137.408 545.41C149.694 546.462 152.55 545.964 156.206 558.786C159.389 557.394 160.395 557.113 163.771 556.323C173.635 559.954 175.005 569.235 176.021 578.573C181.949 576.431 186.11 575.954 192.27 577.513C194.88 579.913 195.715 581.161 197.81 584.011C213.426 583.975 217.711 592.135 222.748 605.161C231.97 601.708 239.325 599.435 247.802 606.149C249.451 594.464 250.035 582.642 251.526 571.195C241.192 568.693 240.724 564.934 242.364 554.817C242.845 551.847 243.278 548.42 243.693 545.412L243.213 545.066C240.635 543.248 212.254 528.542 216.331 520.586C217.428 518.446 232.375 515.805 234.847 513.376C249.651 505.775 260.514 498.35 272.075 486.393C274.739 483.638 284.473 472.969 287.701 472.845C291.448 472.702 298.842 480.19 302.732 482.43C308.621 486.29 318.893 491.47 325.259 494.638C338.632 485.702 352.709 477.063 366.305 468.355C373.844 463.526 382.38 457.302 389.684 452.815C389.534 445.688 390.979 419.438 391.994 411.963C370.253 404.476 347.204 394.076 325.456 385.793C307.907 379.206 290.439 372.404 273.057 365.389C266.308 362.715 253.343 358.028 247.406 354.853C244.761 348.464 241.364 337.517 239.059 330.739C236.88 324.333 229.616 305.858 229.153 300.093C231.578 296.772 258.763 283.011 264.265 280.993L351.359 319.946C366.306 326.622 380.194 333.327 395.384 339.574C395.796 324.675 397.93 309.462 398.761 294.551C398.943 291.295 399.074 288.1 399.367 284.848C383.93 276.384 365.143 268.537 349.131 260.615C318.75 245.584 287.931 231.582 257.081 217.546L224.591 202.92C218.87 200.374 212.897 197.901 207.296 195.119C205.167 194.061 204.304 193.022 203.603 190.747C203.032 188.893 202.8 182.572 201.571 181.418C187.382 191.792 172.191 209.319 160.806 222.55C96.6866 297.067 57.4895 393.034 52.4515 491.335ZM466.944 826.958C472.531 827.663 478.393 828.845 483.854 829.658C497.67 831.713 496.224 831.951 496.771 845.52C521.259 847.963 547.314 852.097 571.855 855.185C586.018 856.966 607.421 859.024 620.954 861.84C620.975 853.258 621.769 844.215 622.23 835.593C622.698 825.516 623.1 815.436 623.436 805.353C625.256 752.068 627.632 698.804 630.564 645.568C628.24 643.897 622.5 645.081 621.308 642.247C619.403 637.716 620.347 627.17 621.013 622.371C633.812 615.012 647.613 609.484 661.424 604.374C662.49 603.98 663.183 603.293 663.753 602.33C663.295 600.717 663.73 601.378 662.321 600.335C660.152 600.457 652.249 605.08 649.766 606.26C637.038 612.306 623.998 619.175 609.809 620.755C604.956 618.748 587.843 608.241 599.61 603.45C608.353 599.891 618.326 598.551 626.968 594.345C640.21 588.616 649.024 582.266 660.804 574.514C676.88 583.17 681.521 584.002 699.183 588.332C710.66 583.733 722.163 578.449 733.487 573.42C732.366 565.71 732.073 553.43 731.688 545.36C713.886 539.299 693.669 530.982 675.772 524.3L563.091 482.222L493.404 456.175C485.453 453.144 472.475 448.651 465.039 445.277C466.413 491.342 466.329 540.068 466.618 586.22C467.149 666.465 467.258 746.712 466.944 826.958ZM918.771 423.781C908.274 441.61 899.044 453.678 880.468 463.764C868.205 470.422 856.26 475.661 843.305 480.879C839.9 479.781 834.378 477.357 830.898 475.97C820.871 471.98 810.867 467.931 800.888 463.824C794.02 461.023 786.323 457.676 779.304 455.574L785.156 504.81C803.197 513.543 824.195 520.685 842.429 529.391C849.303 532.673 856.873 535.682 863.228 539.888C862.366 545.893 856.383 569.37 854.062 574.688C845.578 576.69 826.014 580.959 817.795 579.98C812.501 579.349 799.167 573.833 793.78 571.664C795.676 586.495 796.943 601.847 798.632 616.76L815.247 766.539C816.873 780.689 818.353 794.855 819.684 809.036C820.703 819.037 821.653 829.974 823.588 839.744C834.051 831.751 844.014 821.257 852.88 811.649C890.658 770.741 920.145 722.895 939.707 670.761C970.444 588.874 977.329 493.01 956.776 407.922C947.685 370.284 935.782 339.771 920.008 304.971C907.777 307.086 889.147 307.905 876.914 306.386C844.251 302.331 814.471 298.164 784.376 316.175C764.469 300.781 719.602 293.864 696.837 305.708C723.116 320.099 752.882 334.62 779.672 348.187C800.004 358.586 820.525 368.611 841.224 378.258C865.838 389.682 893.13 403.443 921.075 400.502C925.315 400.056 931.489 397.119 934.88 397.813C940.248 401.665 937.97 413.07 934.846 417.712C931.795 422.247 923.874 422.892 918.771 423.781ZM735.483 624.115C712.617 632.231 688.794 641.698 666.195 649.447C666.476 672.291 667.308 721.562 667.857 747.313C668.065 747.543 668.272 747.773 668.48 748.003L670.601 747.53C693.877 740.985 717.194 734.583 740.55 728.325C740.026 717.314 736.737 626.698 735.483 624.115ZM125.052 742.555C124.876 745.977 124.689 749.123 124.77 752.554C130.655 761.086 141.882 777.646 148.897 784.705L151.932 779.203C163.844 760.978 177.347 758.934 189.656 778.216C197.352 772.905 207.028 771.982 212.997 780.474C216.099 784.887 216.57 789.297 217.184 794.457C219.51 794.379 221.997 794.345 224.304 794.188C226.267 786.383 239.954 678.523 238.88 676.096C230.978 681.655 229.64 682.359 220.084 683.782C209.818 706.016 193.423 720.437 167.7 715.123C156.022 729.966 143.29 737.567 125.052 742.555ZM290.008 688.464C318.628 675.75 347.218 660.644 375.963 647.467C376.983 633.724 386.056 524.787 383.424 521.506C356.608 536.175 330.983 553.099 303.84 567.259C299.975 569.275 295.68 571.493 291.992 573.788L290.843 642.937C290.501 658.034 289.866 673.37 290.008 688.464ZM787.534 249.046C814.585 225.727 838.001 222.4 872.489 231.471C866.567 221.917 850.893 204.545 843.137 196.243C786.256 135.709 714.263 91.4346 634.576 67.9831C548.45 42.9858 456.767 44.7047 371.638 72.9128C355.102 78.296 329.463 87.8265 314.16 96.3296C325.596 104.274 344.716 114.708 357.237 122.207C389.461 141.567 421.985 160.424 454.798 178.769L486.59 196.061C492.432 199.221 499.623 202.856 505.165 206.361C521.64 196.559 533.141 193.172 552.668 193.53C562.302 179.187 580.045 172.79 596.273 169.146C628.239 161.966 678.85 176.824 696.604 205.876C704.465 201.319 711.347 199.143 720.503 199.753C746.335 201.474 760.118 214.706 766.047 239.103C777.779 243.063 778.532 245.13 787.534 249.046ZM669.163 867.955C671.431 868.173 673.697 868.406 675.962 868.655C678.798 869.096 687.021 870.48 689.484 870.337C708.015 869.259 727.232 863.836 745.72 861.875C744.57 833.474 744.647 804.615 742.386 776.234C741.558 775.585 741.934 775.724 741.384 775.569C720.327 781.295 689.727 789.771 668.374 793.374C668.542 817.927 668.481 843.469 669.163 867.955ZM555.352 198.121C544.945 200.281 519.806 201.063 512.445 210.091C529.833 220.384 550.83 231.119 568.764 240.601C595.277 254.676 621.887 268.567 648.592 282.272L675.244 295.599C677.927 296.931 686.863 301.489 689.43 302.197C694.596 300.173 699.07 298.525 704.474 297.018C730.048 289.887 760.546 296.174 783.312 309.219C805.02 299.481 823.409 295.104 847.503 297.57C859.768 298.825 871.744 300.948 884.129 301.506C895.606 302.024 905.609 300.065 916.856 299.28C907.626 282.281 891.934 255.264 879.179 240.563C858.597 229.673 826.804 229.968 806.644 241.451C799.271 245.651 794.162 250.602 788.226 256.469C778.794 248.654 771.566 247.448 760.677 242.366C759.883 236.245 759.379 232.509 756.416 227.048C745.487 206.907 719.204 198.85 699.064 209.75C698.439 211.88 697.634 213.95 696.866 216.035C665.934 169.276 595.699 155.462 555.352 198.121ZM370.845 713.995C357.232 720.016 343.193 725.657 329.455 731.491C315.85 737.269 301.941 743.838 288.255 749.245C288.611 759.08 284.475 841.024 285.686 843.833C302.835 838.676 320.064 833.79 337.367 829.177C344.357 827.276 356.764 824.346 363.257 822.02C363.463 809.31 372.256 716.725 371.124 714.211L370.845 713.995ZM726.663 430.103C706.679 421.92 686.856 413.345 667.208 404.384C663.308 402.629 647.078 395.457 644.072 393.381C643 407.239 641.501 430.34 641.51 444.188C670.511 455.258 700.276 468.643 729.197 480.379L729.76 480.004C729.979 476.643 729.751 473.109 729.544 469.735C728.738 456.595 728.168 443.178 726.663 430.103ZM594.094 348.118C592.979 355.047 592.854 362.599 592.318 369.616C591.028 386.536 591.309 405.49 589.397 422.204L620.522 435.701C624.6 437.452 630.501 439.605 634.303 441.466C636.018 417.11 636.824 392.679 638.515 368.502C628.183 364.222 618.658 359.602 608.594 354.819C605.218 353.215 597.295 349.193 594.094 348.118ZM462.552 367.447C471.336 371.675 567.53 414.005 570.582 413.604C571.23 412.163 571.171 412.091 571.38 410.495C572.931 394.639 574.839 378.985 575.629 363.03C561.976 357.673 544.585 349.196 530.811 342.865C507.889 332.329 483.029 321.794 460.509 310.838C461.426 320.693 461.34 332.551 461.643 342.554C461.887 350.597 462.523 359.522 462.552 367.447Z"/><path fill="#FAE2D3" d="M408.193 267.57C423.282 261.126 440.572 262.776 451.253 276.167C454.543 341.469 456.893 406.814 458.303 472.184C459.358 590.056 459.758 707.933 459.505 825.809C441.14 822.641 422.796 819.355 404.473 815.951C389.206 812.946 385.825 814.915 371.128 819.819C371.796 797.625 374.266 775.455 375.895 753.251L385.589 620.51L396.02 464.552C397.123 448.896 397.588 429.564 399.073 414.55C408.759 410.509 412.569 407.693 419.928 400.535C421.649 394.645 422.892 356.44 420.713 351.85C416.666 348.146 407.508 344.814 402.351 342.175C402.605 332.752 404.021 323.082 404.749 313.652C405.935 298.298 407.049 282.929 408.193 267.57Z"/><path fill="#DBB5B4" d="M419.928 400.535C420.978 461.967 417.04 530.539 414.331 592.316L404.473 815.951C389.206 812.946 385.825 814.915 371.128 819.819C371.796 797.625 374.266 775.455 375.895 753.251L385.589 620.51L396.02 464.552C397.123 448.896 397.588 429.564 399.073 414.55C408.759 410.509 412.569 407.693 419.928 400.535Z"/><path fill="#FAE2D3" d="M58.386 494.644C65.4539 493.729 69.2468 494.845 75.4457 497.937C77.846 502.445 78.7717 504.184 82.5958 507.539C89.396 507.679 97.1068 505.296 103.889 506.364C111.584 507.575 110.463 512.248 113.742 517.489C115.761 520.716 121.745 520.341 125.981 520.813C133.04 526.677 131.971 532.809 131.63 541.087C131.221 550.996 137.136 551.075 144.854 551.009C152.716 562.515 152.747 562.851 164.111 563.369C167.821 563.538 171.984 578.409 173.41 583.048C177.428 582.185 183.445 581.982 187.539 581.969C190.746 583.758 194.201 587.07 196.441 588.283C200.183 590.308 205.706 589.265 209.696 593.405C216.232 600.189 214.711 605.823 222.723 611.542C233.957 607.243 236.064 605.656 247.115 611.122C244.605 629.867 243.136 648.434 240.837 667.048C232.021 674.249 227.396 675.852 216.742 678.927C208.419 696.802 197.224 710.688 175.606 711.568C172.716 711.686 167.502 709.866 165.254 711.026C162.219 712.591 160.228 718.176 157.273 720.297C147.795 728.501 137.689 733.608 126.057 737.997C123.393 715.368 128.928 707.945 146.623 695.737C153.034 691.297 159.401 686.84 165.7 682.246C171.782 677.811 174 674.975 176.426 667.95C173.519 665.726 172.316 665.045 169.085 663.314C164.289 665.78 159.32 670.005 154.709 672.289C142.63 678.272 134.879 687.975 124.324 695.402C122.161 684.453 120.994 672.173 124.917 661.405C126.401 657.122 128.606 653.028 129.514 648.571C130.224 645.084 125.49 645.603 123.417 645.461C112.177 644.687 115.147 655.515 111.885 658.965C104.306 658.931 104.805 643.993 86.5302 654.231C90.9124 658.564 98.9069 663.817 102.067 668.324C109.379 678.75 106.09 705.261 103.808 717.521C66.992 643.273 52.0261 578.787 52.4936 495.84L58.386 494.644Z"/><path fill="#FAE2D3" d="M228.828 76.3081C231.44 77.1943 253.146 92.9346 257.747 95.903C285.609 113.983 313.868 131.442 342.504 148.27C456.849 214.219 573.505 276.08 692.248 333.735C744.174 359.308 795.34 386.219 849.334 407.298C869.66 415.234 888.972 420.834 910.695 423.139C907.131 429.158 903.508 433.705 899.139 439.052C894.887 443.593 890.384 447.89 885.65 451.925C829.151 430.815 777.01 406.889 722.284 381.6C644.54 345.272 567.237 308.007 490.392 269.815C439.611 244.584 389.234 218.546 339.281 191.713C327.405 185.325 315.495 179.001 303.552 172.74C298.301 169.973 283.11 162.51 279.096 159.217C274.279 155.264 262.716 132.743 259.206 126.692C249.41 109.701 239.282 92.9032 228.828 76.3081Z"/><path fill="#FAE2D3" d="M746.554 418.972C751.68 418.599 763.235 423.28 768.33 425.39C770.274 438.379 771.635 452.176 773.172 465.298L780.532 527.707L801.065 706.379L812.582 807.82L816.542 840.968C817.27 847.061 818.464 855.463 818.607 861.503C808.778 859.394 791.613 853.807 782.879 855.272C777.71 857.189 758.618 859.936 752.852 860.826C750.28 830.758 750.605 795.382 749.348 764.644C746.267 691.916 742.793 619.204 738.925 546.513C744.899 542.809 750.855 539.075 756.792 535.312C758.06 524.743 756.646 503.935 754.79 492.994C754.469 491.098 753.102 490.6 751.672 489.842C747.314 488.699 741.953 486.134 737.911 484.101C735.984 464.712 734.466 446.448 734.475 427C737.636 424.221 742.684 422.044 746.554 418.972Z"/><path fill="#DBB5B4" d="M756.792 535.312C756.201 543.474 757.226 552.909 757.905 561.13C758.891 572.435 759.8 583.747 760.632 595.064C762.209 617.218 778.733 850.198 782.879 855.272C777.71 857.189 758.618 859.936 752.852 860.826C750.28 830.758 750.605 795.382 749.348 764.644C746.267 691.916 742.793 619.204 738.925 546.513C744.899 542.809 750.855 539.075 756.792 535.312Z"/><path fill="#DBB5B4" d="M734.475 427C737.636 424.221 742.684 422.044 746.554 418.972C746.472 427.248 747.703 438.383 748.393 446.85L751.672 489.842C747.314 488.699 741.953 486.134 737.911 484.101C735.984 464.712 734.466 446.448 734.475 427Z"/><path fill="#DBB5B4" d="M272.824 164.965C289.95 173.221 306.852 183.201 323.646 192.15L426.261 245.985C498.332 282.411 570.799 318.05 643.648 352.895C717.038 387.997 790.953 423.644 866.918 453.025C870.376 454.362 873.873 455.626 877.338 456.962C868.274 461.941 852.361 469.839 842.649 472.972C827.674 466.51 812.566 460.36 797.334 454.527L779.065 447.012C777.171 438.115 777.11 429.12 774.729 419.607C766.07 416.218 757.168 412.794 748.004 411.181C740.445 414.787 735.267 418.158 728.48 422.841C700.366 411.275 672.523 399.059 644.976 386.201C645.003 378.625 646.277 371.736 644.838 364.118C639.986 361.064 631.821 357.262 626.547 354.698C615.585 349.36 604.538 344.197 593.41 339.213C585.653 344.405 581.06 347.527 575.196 354.7C564.338 350.153 552.437 344.331 541.536 339.429C514.441 327.126 487.279 314.972 460.052 302.966C459.827 296.284 459.933 281.513 458.344 275.716C452.763 255.36 414.046 251.152 401.18 264.222C400.74 268.44 400.37 272.666 400.069 276.896C365.354 260.364 331.724 243.795 296.67 227.727L247.846 205.569C238.681 201.444 228.123 196.976 219.224 192.525C224.223 189.549 232.776 185.58 238.276 182.786C249.827 176.912 261.343 170.972 272.824 164.965Z"/><path fill="#C6CDE1" d="M389.954 853.66C391.233 855.841 385.626 968.394 385.499 981.79C365.012 978.31 341.968 976.168 321.155 973.848C279.665 969.218 238.152 964.801 196.618 960.596C189.731 959.939 181.549 958.971 174.755 957.828C175.757 950.371 177.82 941.935 179.463 934.503C181.805 923.738 184.221 912.99 186.713 902.259C195.514 900.039 204.458 897.902 213.302 895.861C272.247 882.258 330.98 867.093 389.954 853.66Z"/><path fill="#FAE2D3" d="M398.086 853.443C400.513 853.519 403.679 853.932 406.107 854.353C434.414 859.266 462.882 863.265 491.304 867.455C492.432 879.781 494.386 893.481 495.847 905.864C498.583 928.233 500.958 950.645 502.971 973.091C498.728 973.559 493.691 973.784 489.377 974.086L424.843 978.953C414.364 979.772 402.841 981.148 392.487 981.561C392.373 974.05 393.015 965.329 393.386 957.714L395.307 917.315C396.122 898.423 396.115 871.5 398.086 853.443Z"/><path fill="#FAE2D3" d="M193.167 21.0651C197.475 22.7725 210.783 35.888 215.807 39.8173C239.01 57.9646 263.643 73.5895 288.694 88.9507L357.479 130.545C403.591 158.237 450.245 185.016 497.414 210.866C568.832 248.943 640.747 286.081 713.139 322.273C771.002 351.777 829.902 384.751 891.56 405.561C903.382 409.55 920.054 408.637 932.013 405.62C931.348 408.248 930.466 411.023 929.688 413.637C919.9 421.572 877.989 410.209 865.911 405.804C807.427 384.477 752.129 354.844 696.349 327.454C599.421 280.307 503.864 230.39 409.797 177.766C349.723 144.048 290.023 110.096 233.82 70.1239C223.735 62.9517 201.09 48.1373 195.858 37.505C193.292 32.2898 191.182 26.7831 193.167 21.0651Z"/><path fill="#FAE2D3" d="M259.088 567.667C263.189 564.884 265.871 563.545 270.957 563.631C274.851 564.392 281.22 565.214 283.457 568.9C286.819 574.443 282.273 677.402 281.967 692.556C276.607 695.045 269.745 697.981 265.524 702.035C263.981 709.375 258.917 738.311 262.004 745.259C263.013 747.53 277.25 749.394 280.817 749.817C281.377 783.095 278.766 813.476 278.344 846.07C267.86 848.761 257.401 851.552 246.97 854.442C239.054 856.708 231.119 858.908 223.166 861.043C224.841 841.242 228.923 816.266 231.501 796.028L247.008 670.963C249.678 649.669 252.076 628.341 254.199 606.985C255.306 596.324 256.727 577.644 259.088 567.667Z"/><path fill="#DBB5B4" d="M259.088 567.667C263.189 564.884 265.871 563.545 270.957 563.631C269.538 568.448 268.882 580.006 268.539 585.241L266.641 615.776C264.773 644.488 262.369 673.887 260.008 702.59L251.369 801.99L248.501 832.571C247.862 839.295 246.831 847.818 246.97 854.442C239.054 856.708 231.119 858.908 223.166 861.043C224.841 841.242 228.923 816.266 231.501 796.028L247.008 670.963C249.678 649.669 252.076 628.341 254.199 606.985C255.306 596.324 256.727 577.644 259.088 567.667Z"/><path fill="#FAE2D3" d="M463.028 375.914C479.99 382.775 498.861 391.802 516.133 399.177L635.752 449.764C657.036 458.871 678.392 467.809 699.818 476.576C715.461 483.002 731.928 489.426 747.184 496.535C748.007 505.84 748.602 515.164 748.967 524.498C739.675 520.174 728.174 516.153 718.521 512.301C695.164 502.828 671.681 493.671 648.076 484.834C613.587 471.548 579.202 457.994 544.923 444.174C517.794 433.364 491.372 423.18 464.591 411.554C463.303 401.438 463.302 386.353 463.028 375.914Z"/><path fill="#FAE2D3" d="M637.567 645.562C640.484 646.127 643.573 646.873 646.491 647.529C650.696 648.859 655.27 650.41 659.496 651.55C660.137 683.632 659.942 718.486 661.278 750.218C658.637 750.903 653.684 752.188 652.77 754.774C650.737 760.53 651.968 790.498 653.796 794.78C655.636 796.261 656.939 795.972 659.246 795.716C659.82 795.654 660.395 795.586 660.968 795.513C661.691 819.119 662.672 843.15 662.507 866.727L643.933 864.258C638.774 863.696 633.606 863.2 628.494 862.315C628.351 829.916 630.944 792.803 632.252 759.941C633.142 735.119 634.218 710.304 635.482 685.499C636.09 672.677 636.454 658.193 637.567 645.562Z"/><path fill="#DBB5B4" d="M637.567 645.562C640.484 646.127 643.573 646.873 646.491 647.529L645.41 783C645.078 809.766 643.867 837.609 643.933 864.258C638.774 863.696 633.606 863.2 628.494 862.315C628.351 829.916 630.944 792.803 632.252 759.941C633.142 735.119 634.218 710.304 635.482 685.499C636.09 672.677 636.454 658.193 637.567 645.562Z"/><path fill="#DBB5B4" d="M211.786 62.8067C216.687 67.3098 227.639 86.2111 231.339 92.5133C244.105 114.425 256.498 136.55 268.515 158.881C262.141 163.002 253.329 167.073 246.404 170.583L211.411 188.265C209.55 182 208.323 175.508 206.99 169.103C202.493 148.673 196.155 129.505 182.997 112.895C181.949 111.572 180.384 108.909 178.94 108.246C179.223 109.81 187.135 128.202 188.276 131.043C180.05 126.363 170.55 121.213 163.053 115.656C184.517 103.829 198.508 82.7028 211.786 62.8067Z"/><path fill="#FAE2D3" d="M507.136 940.555L603.326 941.098L777.475 941.992C777.584 945.546 777.802 949.202 777.971 952.763C771.93 953.094 765.893 953.482 759.86 953.925C736.35 954.479 706.538 957.929 682.432 959.649C625.17 963.607 567.933 967.915 510.724 972.573C508.877 964.906 507.865 948.951 507.136 940.555Z"/><path fill="#FAE2D3" d="M503.386 907.485C516.088 907.411 531.615 908.67 544.471 909.371L619.678 913.413C645.314 914.591 670.944 915.906 696.566 917.36C711.734 918.093 729.643 918.236 744.365 920.098C744.63 925.234 744.851 930.371 745.028 935.511L587 934.425C561.64 934.269 531.746 933.146 506.711 934.499C505.207 925.548 504.097 916.534 503.386 907.485Z"/><path fill="#FAE2D3" d="M269.751 291.377C280.191 295.565 290.769 301.254 301.191 305.89C339.257 322.825 376.506 340.223 415.034 356.175C414.753 367.222 414.542 378.271 414.4 389.321C410.823 389.791 298.129 342.324 284.373 336.703C279.505 322.798 273.923 305.524 269.751 291.377Z"/><path fill="#DBB5B4" d="M464.91 420.12C476.753 425.287 489.983 430.198 502.115 435.007L572.487 462.939C607.268 477.077 642.192 490.861 677.252 504.291C701.079 513.616 723.755 522.769 747.904 531.473L742.558 535.599C740.587 536.886 738.489 538.154 736.485 539.407C708.57 527.896 680.15 518.051 651.873 507.527L535.972 463.655C514.024 455.363 485.888 445.851 465.031 436.552C464.837 430.879 464.608 425.8 464.91 420.12Z"/><path fill="#FAE2D3" d="M499.836 878.431C507.355 878.459 517.708 879.832 525.5 880.519L567.68 884.129C615.241 888.64 662.851 892.623 710.501 896.078C710.894 901.03 711.167 906.119 711.49 911.088C693.615 911.069 674.638 909.107 656.665 908.128L581.087 904.268C555.051 902.783 528.161 900.888 502.121 900.425L499.836 878.431Z"/><path fill="#C6CDE1" d="M388.454 822.139L388.881 822.543C390.081 826.645 389.175 841.465 388.979 846.718C368.475 850.185 344.037 856.933 323.452 861.861L205.105 890.465C204.739 890.4 204.429 890.154 204.099 889.981C203.073 886.539 205.838 875.883 206.7 872.248C221.379 869.474 239.925 863.743 254.645 859.724C282.374 852.261 310.038 844.558 337.634 836.616C354.329 831.83 371.681 826.256 388.454 822.139Z"/><path fill="#FAE2D3" d="M792.938 886.393C798.76 886.614 811.698 889.684 818.086 890.827C830.577 893.063 843.529 895.224 855.933 897.754C856.966 902.924 862.935 943.277 862.438 945.755C860.814 946.733 859.315 946.565 857.378 946.643C837.801 947.996 818.231 949.469 798.672 951.062C797.42 943.038 797.199 934.524 796.41 926.37C795.123 913.055 793.4 899.761 792.938 886.393Z"/><path fill="#FAE2D3" d="M169.939 769.499C180.181 769.733 181.945 777.799 188.078 784.142C193.146 781.89 196.987 779.803 202.394 778.437C216.531 786.041 206.987 791.098 215.735 799.803C218.077 800.382 221.692 800.79 224.168 801.145C222.911 814.69 220.068 828.363 218.668 841.938C218.306 845.443 217.76 849.76 216.916 853.136L216.306 853.397L214.647 852.25C197.236 837.763 180.849 822.087 165.603 805.337C161.251 800.504 155.92 794.75 152.438 789.332C153.208 787.717 153.998 786.111 154.809 784.517C158.461 777.336 161.984 772.1 169.939 769.499Z"/><path fill="#FAE2D3" d="M497.819 852.366C513.853 854.163 531.052 856.838 547.25 858.922C595.106 865.395 643.008 871.523 690.952 877.305L691.346 887.988C683.557 888.143 670.986 886.619 662.957 885.849L617.4 881.511L545.826 874.963C530.186 873.638 514.699 872.733 499.066 871.01C498.276 865.692 498.083 857.862 497.819 852.366Z"/><path fill="#C6CDE1" d="M783.272 885.665C783.714 885.57 785.084 885.524 785.502 885.5C785.752 885.747 786.003 885.994 786.254 886.241C787.449 903.986 791.058 934.469 791.553 950.884C789.104 951.336 786.942 951.442 784.469 951.621C784.549 946.523 784.686 941.874 784.274 936.771C775.538 935.06 761.463 935.432 752.078 935.441L751.507 927.828C751.574 919.153 753.217 913.026 742.563 912.492C734.541 912.091 726.514 911.766 718.484 911.48L718.017 895.573C724.418 894.204 736.603 892.98 743.498 892.008C756.787 890.091 770.046 887.976 783.272 885.665Z"/><path fill="#DBB5B4" d="M374.804 655.982C376.55 659.403 373.98 676.598 373.35 681.477C360.528 688.043 345.398 694.574 332.242 700.482C311.179 709.736 290.302 719.409 269.625 729.498C268.273 727.927 270.348 709.609 270.607 706.351C279.741 700.772 298.369 692.841 308.602 687.964L374.804 655.982Z"/><path fill="#DBB5B4" d="M552.668 193.53C562.302 179.187 580.045 172.79 596.273 169.146C628.239 161.966 678.85 176.824 696.604 205.876C704.465 201.319 711.347 199.143 720.503 199.753C746.335 201.474 760.118 214.706 766.047 239.103C777.779 243.063 778.532 245.13 787.534 249.046C814.585 225.727 838.001 222.4 872.489 231.471C874.911 232.984 878.212 237.908 879.179 240.563C858.597 229.673 826.804 229.968 806.644 241.451C799.271 245.651 794.162 250.602 788.226 256.469C778.794 248.654 771.566 247.448 760.677 242.366C759.883 236.245 759.379 232.509 756.416 227.048C745.487 206.907 719.204 198.85 699.064 209.75C698.439 211.88 697.634 213.95 696.866 216.035C665.934 169.276 595.699 155.462 555.352 198.121C544.945 200.281 519.806 201.063 512.445 210.091C510.794 210.044 506.438 207.551 505.165 206.361C521.64 196.559 533.141 193.172 552.668 193.53Z"/><path fill="#DBB5B4" d="M282.732 344.553C286.536 345.249 313.376 357.241 318.999 359.544C350.021 372.269 381.143 384.749 412.361 396.984C407.489 401.97 404.941 403.391 398.816 406.926L392.121 404.491C355.817 389.47 318.532 375.744 281.969 361.301C274.635 358.403 266.993 355.842 259.812 352.607C268.45 348.884 273.66 347.017 282.732 344.553Z"/><path fill="#DBB5B4" d="M385.575 490.528L385.981 490.934C387.278 494.708 385.713 507.551 385.287 512.387C353.758 529.808 323.126 548.518 291.45 566.031C288.582 562.321 287.524 561.431 283.61 559.195C281.218 558 277.685 556.65 275.121 555.595C285.437 548.89 299.234 541.908 310.245 535.151C335.121 519.888 360.147 504.855 385.575 490.528Z"/><path fill="#FAE2D3" d="M396.667 822.392C403.583 822.602 419.34 826.309 427.117 827.668L489.298 838.063C489.757 844.626 491.282 853.674 490.813 860.047C459.231 855.579 427.705 850.726 396.242 845.49C396.241 837.789 396.382 830.088 396.667 822.392Z"/><path fill="#FAE2D3" d="M387.353 462.856L387.844 463.221C388.99 465.486 387.494 477.702 387.203 480.927C374.435 486.859 352.175 501.225 339.072 508.989C309.186 526.554 279.407 544.3 249.738 562.229L249.142 562.178C248.464 559.671 250.613 548.389 251.167 545.059C260.525 539.669 270.879 534.524 280.469 529.139C302.833 516.605 324.835 503.435 346.447 489.645C360.395 480.907 374.077 472.621 387.353 462.856Z"/><path fill="#FAE2D3" d="M786.343 512.241C792.555 514.355 802.683 519.515 809.192 522.34C824.679 529.06 840.247 535.877 855.503 543.095C853.838 549.333 852.247 555.591 850.732 561.867L849.108 567.304C828.995 559.301 811.149 551.918 790.534 544.294C788.713 534.979 787.708 522.054 786.343 512.241Z"/><path fill="#DBB5B4" d="M732.558 580.981C734.128 582.668 733.969 591.79 734.065 594.701C726.895 598.615 710.3 604.846 702.029 608.091C676.76 618.006 653.105 626.774 628.375 638.097L627.807 637.92C626.292 635.833 626.924 629.019 627.002 626.03C639.74 619.58 658.165 612.293 671.612 606.711C691.982 598.265 712.298 589.689 732.558 580.981Z"/><path fill="#C6CDE1" d="M781.429 863.202C783.249 862.97 782.5 862.728 783.892 863.44C785.586 867.043 785.46 874.695 785.588 878.945C772.761 881.624 760.112 883.73 747.13 885.497C731.323 887.649 718.509 891.023 702.523 888.391C701.126 888.333 701.182 888.256 699.791 887.883C697.495 885.737 697.618 880.195 697.372 876.87C725.342 872.015 753.362 867.459 781.429 863.202Z"/><path fill="#DBB5B4" d="M372.099 690.492L372.49 690.765C373.437 692.829 372.208 703.053 371.903 706.065C342.529 716.608 313.196 731.115 284.204 743.372C280.251 742.605 276.28 741.937 272.294 741.368C270.573 741.087 269.842 741.113 268.416 740.089L268.364 739.167C273.068 733.544 301.023 722.37 309.349 718.613C330.194 709.079 351.111 699.705 372.099 690.492Z"/><path fill="#DBB5B4" d="M261.431 289.644C263.881 292.888 275.046 331.355 277.135 338.426C269.002 341.116 261.057 344.345 253.354 348.09C250.247 342.874 239.949 310.414 237.555 303.068C245.474 298.524 253.433 294.049 261.431 289.644Z"/><path fill="#DBB5B4" d="M689.43 302.197C694.596 300.173 699.07 298.525 704.474 297.018C730.048 289.887 760.546 296.174 783.312 309.219C805.02 299.481 823.409 295.104 847.503 297.57C859.768 298.825 871.744 300.948 884.129 301.506C895.606 302.024 905.609 300.065 916.856 299.28C918.118 301.329 918.933 302.817 920.008 304.971C907.777 307.086 889.147 307.905 876.914 306.386C844.251 302.331 814.471 298.164 784.376 316.175C764.469 300.781 719.602 293.864 696.837 305.708L696.241 305.852C693.246 304.631 692.152 303.909 689.43 302.197Z"/><defs><linearGradient id="gradient_0" gradientUnits="userSpaceOnUse" x1="172.71071" y1="676.10962" x2="100.62232" y2="701.789"><stop offset="0" stop-color="#AE96B1"/><stop offset="1" stop-color="#C6B7C1"/></linearGradient></defs><path fill="url(#gradient_0)" d="M118.895 650.131L125.025 649.932C119.383 664.763 115.993 678.18 120.996 694.319C121.598 696.26 122.608 697.778 124.469 698.636C130.141 698.413 139.051 687.975 143.652 684.783C149.375 680.812 155.272 677.287 161.324 673.828C164.269 672.144 167.328 667.117 171.079 667.88L171.341 668.657C167.968 677 137.825 695.732 128.624 703.415C118.87 714.276 120.749 732.504 121.051 746.345C115.854 738.821 111.224 730.921 107.201 722.71C109.026 705.468 118.52 677.144 102.569 662.208C100.248 660.035 95.6144 657.52 95.1489 654.607L95.9329 654.065C100.576 654.391 104.363 659.416 108.239 661.746C118.118 667.682 115.625 655.504 118.895 650.131Z"/><path fill="#DBB5B4" d="M739.563 736.17L740.079 736.404C741.566 739.245 741.462 747.156 741.544 750.726C731.088 753.142 719.564 756.523 709.041 759.259C692.888 763.326 676.773 767.543 660.698 771.909L659.864 771.732C658.335 769.127 658.91 761.746 658.989 758.351C673.11 754.167 687.249 750.376 701.435 746.436C714.087 742.921 726.67 738.704 739.563 736.17Z"/><path fill="#DBB5B4" d="M733.911 602.002C735.379 604.422 735.287 612.826 735.374 616.043C710.283 625.304 685.296 634.848 660.42 644.673C656.212 643.061 651.726 641.912 647.375 640.701C644.77 639.99 642.356 639.639 639.702 639.198C670.501 626.745 703.567 615.483 733.911 602.002Z"/><path fill="#DBB5B4" d="M741.508 758.648C742.837 760.427 742.53 765.206 742.535 767.592L659.666 788.905C658.287 787.528 658.549 781.942 658.52 779.77C668.449 776.741 679.886 774.075 690.005 771.491C707.124 767.017 724.293 762.735 741.508 758.648Z"/><path fill="#FAE2D3" d="M791.109 862.79C804.629 864.382 825.665 870.19 839.948 873.108C840.802 877.07 841.459 883.784 842.003 887.987C825.751 885.829 808.691 882.079 792.583 878.729C791.389 872.913 791.061 868.716 791.109 862.79Z"/><path fill="#FAE2D3" d="M197.67 53.3004C200.537 55.0707 202.095 56.2322 204.746 58.3136C195.958 76.9478 174.676 102.147 156.003 110.926C152.949 110.85 150.263 109.615 149.529 106.382C150.421 103.384 155.548 100.406 158.323 98.5826C175.791 87.1061 185.885 70.0708 197.67 53.3004Z"/><path fill="#FAE2D3" d="M286.552 500.843C291.768 503.226 296.945 505.696 302.08 508.251C285.78 517.934 269.571 527.771 252.671 536.372L247.217 539.046L240.197 534.864C259.445 523.35 270.283 515.791 286.552 500.843Z"/><path fill="#FAE2D3" d="M657.327 584.975C658.761 587.061 658.526 592.344 658.543 594.947C648.28 600.427 617.966 616.573 607.528 613.465C606.286 612.002 605.019 610.257 603.842 608.716C627.622 602.574 636.666 598.204 657.327 584.975Z"/><path fill="#FAE2D3" d="M282.445 486.98C283.464 488.513 283.058 492.168 282.988 494.105C270.28 506.97 253.452 519.582 237.26 527.561C235.17 528.591 231.119 530.417 228.934 529.634L226.474 524.61C233.295 521.219 240.542 518.203 247.087 514.471C260.132 507.03 271.008 496.593 282.445 486.98Z"/><path fill="#DBB5B4" d="M791.134 552.081C795.355 553.153 834.966 568.62 836.303 570.207L835.403 571.07C815.929 575.714 811.482 571.233 793.179 565.245C792.63 560.838 791.948 556.447 791.134 552.081Z"/><path fill="#DBB5B4" d="M587.424 353.394C588.158 355.884 584.819 414.173 583.748 418.387C582.217 419.072 582.277 418.665 580.131 418.015L578.542 416.901C577.359 414.943 579.349 398.462 579.647 394.758C580.671 382.016 581.374 369.133 582.595 356.424L587.424 353.394Z"/><path fill="#FAE2D3" d="M290.591 483.751C299.811 488.779 308.111 494.229 317.901 498.48C316.965 499.313 315.736 500.133 314.703 500.878L309.371 503.957C303.006 500.896 296.285 497.317 289.95 494.098C289.979 490.741 290.33 487.122 290.591 483.751Z"/><path fill="#FAE2D3" d="M664.441 584.706C674.65 589.096 678.41 590.907 689.503 592.324L685.592 594.482L676.732 598.416C672.464 596.817 669.519 595.564 665.414 593.584C665.018 590.743 664.748 587.583 664.441 584.706Z"/></svg>