<?xml version="1.0" encoding="utf-8" ?><svg xmlns="http://www.w3.org/2000/svg" xmlns:xlink="http://www.w3.org/1999/xlink" width="1024" height="1024" viewBox="0 0 1024 1024"><path fill="#FBF7F3" d="M0 0L1024 0L1024 1024L0 1024L0 0Z"/><path fill="#704968" d="M734.631 184.221C738.639 182.331 745.84 177.8 749.915 175.362C758.555 170.157 767.226 165.002 775.926 159.897C818.826 134.574 861.502 107.701 904.379 82.0078C914.289 76.0896 924.156 70.0998 933.979 64.0389C939.885 60.4045 950.851 52.4436 958.07 51.5348C959.23 51.3887 959.882 52.192 960.567 53.0022C960.535 57.4879 958.466 67.1885 957.565 72.0425L951.469 104.937C947.939 124.106 944.719 143.36 941.457 162.58C938.13 182.186 934.051 202.289 931.185 221.916C971.644 243.149 986.067 292.618 964.525 332.662C954.298 351.599 936.962 365.693 916.336 371.839C912.575 372.967 907.96 373.902 904.047 374.816C902.695 381.384 898.889 413.12 894.965 415.901C893.8 416.727 892.62 416.722 891.319 416.31C887.426 415.077 883.417 412.792 879.697 411.054C869.088 406.096 858.601 400.536 847.69 396.284C861.545 425.883 876.509 454.832 891.058 484.044C907.57 518.002 924.327 551.841 941.327 585.558C952.541 607.54 963.389 629.707 973.867 652.05C977.087 658.888 981.689 665.904 983.916 672.974C989.348 690.214 980.568 709.724 963.839 716.789C955.249 720.416 946.902 723.766 938.314 727.157C939.942 759.408 921.147 791.327 892.975 806.651C893.117 836.58 888.651 859.999 866.608 882.314C848.974 900.326 824.919 910.612 799.714 910.917C788.77 910.992 777.048 908.575 766.86 904.617C762.928 928.136 749.722 949.095 730.204 962.794C710.483 976.848 683.669 981.761 660.001 977.642C637.217 973.678 616.133 959.267 603.159 940.302C601.101 937.293 599.102 934.112 597.15 931.016C573.176 938.721 555.616 939.215 531.754 928.085C522.1 923.582 505.253 908.332 498.798 899.652L341.655 960.891C330.751 965.05 319.876 969.287 309.031 973.6C301.019 976.784 292.2 980.708 283.54 982.72C271.097 985.612 252.605 981.205 244.629 970.598C241.101 965.906 237.287 955.507 234.774 949.835L218.086 912.576C204.048 881.705 190.315 850.696 176.889 819.554C170.857 805.703 164.252 791.76 158.742 777.718C155.828 777.995 145.11 776.738 141.968 776.239C120.489 772.823 97.8463 757.592 85.3517 740.033C69.6894 718.42 63.4509 691.383 68.0596 665.093C68.9966 659.561 70.3482 654.108 72.103 648.78C74.0611 642.968 83.1065 622.354 87.9552 618.895C78.5208 596.121 67.3681 572.586 57.4036 549.979C51.9977 538.917 47.9303 526.93 42.3463 516.004C29.6696 491.201 31.6073 461.727 59.8021 448.664C60.4706 425.84 65.6948 426.324 85.5833 418.715C84.3418 416.992 81.8717 414.529 80.3406 412.908C46.7526 377.349 46.808 315.269 82.9377 280.318C80.9285 278.317 78.9614 276.274 77.0375 274.191C39.9124 233.459 42.8488 172.206 83.9412 135.291C98.6519 121.971 117.65 114.366 137.488 113.854C142.726 113.674 148.864 114.18 154.191 114.474C157.516 110.274 160.28 105.634 163.781 101.542C195.736 64.1783 253.45 57.312 291.716 89.0687C309.58 103.894 320.411 123.173 322.157 146.491C326.196 145.419 330.373 144.18 334.472 143.46C383.857 134.785 428.616 170.272 437.657 217.326C461.174 216.945 482.341 225.193 494.875 245.507C496.365 247.923 497.663 249.54 498.633 252.259L621.619 200.435L670.264 179.758C695.254 169.355 714.615 157.529 734.631 184.221Z"/><path fill="#EEE1E1" d="M154.191 114.474C157.516 110.274 160.28 105.634 163.781 101.542C195.736 64.1783 253.45 57.312 291.716 89.0687C309.58 103.894 320.411 123.173 322.157 146.491C326.196 145.419 330.373 144.18 334.472 143.46C383.857 134.785 428.616 170.272 437.657 217.326C461.174 216.945 482.341 225.193 494.875 245.507C496.365 247.923 497.663 249.54 498.633 252.259C482.938 258.995 467.177 265.576 451.353 272.002C443.865 275.088 425.401 282.255 419.477 286.631C415.167 289.768 411.819 294.046 409.811 298.985C404.614 312.081 409.866 322.462 416.069 333.869C410.184 336.892 404.158 339.334 398.321 342.433C393.046 330.597 388.735 317.477 375.72 312.731C370.317 310.76 366.816 309.759 361.196 311.229C353.355 313.282 345.509 316.7 337.996 319.726C325.672 324.761 313.31 329.699 300.909 334.54L151.498 393.196L103.454 411.897C98.7566 413.675 89.9028 417.408 85.5833 418.715C84.3418 416.992 81.8717 414.529 80.3406 412.908C46.7526 377.349 46.808 315.269 82.9377 280.318C80.9285 278.317 78.9614 276.274 77.0375 274.191C39.9124 233.459 42.8488 172.206 83.9412 135.291C98.6519 121.971 117.65 114.366 137.488 113.854C142.726 113.674 148.864 114.18 154.191 114.474Z"/><path fill="#EEE1E1" d="M654.531 839.489C724.291 810.473 794.492 782.525 865.107 755.654C889.815 746.201 913.242 736.064 938.314 727.157C939.942 759.408 921.147 791.327 892.975 806.651C893.117 836.58 888.651 859.999 866.608 882.314C848.974 900.326 824.919 910.612 799.714 910.917C788.77 910.992 777.048 908.575 766.86 904.617C762.928 928.136 749.722 949.095 730.204 962.794C710.483 976.848 683.669 981.761 660.001 977.642C637.217 973.678 616.133 959.267 603.159 940.302C601.101 937.293 599.102 934.112 597.15 931.016C573.176 938.721 555.616 939.215 531.754 928.085C522.1 923.582 505.253 908.332 498.798 899.652L550.64 880.041C561.782 875.812 574.004 870.902 585.432 867.792C586.452 868.406 587.481 869.002 588.52 869.583C607.757 880.255 631.197 872.346 644.339 855.884C648.607 850.537 651.293 845.466 654.531 839.489Z"/><path fill="#EEE1E1" d="M87.9552 618.895L135.049 725.292C139.4 735.068 143.716 744.887 148.159 754.619C151.696 762.365 155.495 769.823 158.742 777.718C155.828 777.995 145.11 776.738 141.968 776.239C120.489 772.823 97.8463 757.592 85.3517 740.033C69.6894 718.42 63.4509 691.383 68.0596 665.093C68.9966 659.561 70.3482 654.108 72.103 648.78C74.0611 642.968 83.1065 622.354 87.9552 618.895Z"/><path fill="#EEE1E1" d="M904.047 374.816C911.078 336.554 917.798 298.236 924.208 259.865C926.46 247.158 929.055 234.677 931.185 221.916C971.644 243.149 986.067 292.618 964.525 332.662C954.298 351.599 936.962 365.693 916.336 371.839C912.575 372.967 907.96 373.902 904.047 374.816Z"/><path fill="#FBF7F3" d="M70.4922 433.548C91.8911 424.936 113.358 416.494 134.891 408.223L246.968 364.206L311.323 338.815C326.046 332.881 340.866 326.877 355.606 321.006C378.982 311.694 385.33 330.091 391.953 347.934C389.609 349.957 387.322 352.045 385.094 354.195C374.461 364.628 367.031 382.218 365.945 397.247C365.225 407.204 376.958 411.484 383.247 404.419C385.425 401.973 387.232 393.734 388.279 390.134C390.929 381.022 394.977 374.111 401.26 367C408.289 378.197 415.157 400.7 422.354 411.889C420.708 413.083 419.094 414.322 417.514 415.604C403.956 426.819 396.291 441.784 393.548 459.263C391.873 469.939 403.851 475.99 410.299 469.166C413.973 465.279 415.946 452.594 419.009 446.988C422.847 439.967 424.745 437.035 430.669 431.327C436.566 442.478 446.024 462.303 450.075 473.815C434.486 483.231 424.822 497.389 420.665 514.973C419.61 519.434 418.628 525.15 421.283 529.236C422.588 531.245 426.331 534.041 428.694 534.167C440.389 534.788 442.278 512.745 447.105 505.223C450.8 499.466 453.677 497.026 458.789 493.385C462.548 499.414 466.21 508.393 469.303 515.019C472.661 522.211 476.443 529.967 479.225 537.323C465.279 546.34 455.839 561.047 451.777 577.155C450.016 584.135 447.167 596.916 458.371 598.444C469.002 599.894 471.249 582.164 474.706 575.162C478.015 568.459 481.182 562.202 487.447 557.266L487.981 556.853L500.268 582.248C503.217 588.29 506.881 595.188 509.181 601.358C492.266 612.872 482.307 626.066 478.036 646.354C476.526 653.528 478.583 661.166 487.193 661.983C498.329 663.038 498.726 645.008 503.106 637.739C507.46 630.51 511.607 625.545 518.237 619.852C525.406 635.693 532.121 649.101 539.059 665.58C522.423 674.969 510.981 693.677 508.102 712.295C506.337 723.706 516.195 734.123 524.872 723.1C526.073 721.575 526.556 714.685 527.58 712.773C531.699 701.086 538.315 692.855 547.455 684.504C552.823 693.913 560.188 710.997 564.699 721.24L591.99 783.431C575.263 789.266 558.665 796.532 541.98 802.644C506.427 815.666 471.275 829.732 435.883 843.156C434.353 843.736 433.854 843.945 432.565 843.226C431.17 844.728 431.271 844.692 429.382 845.437C419.887 849.95 408.105 854.328 398.203 858.313C378.742 866.193 359.211 873.901 339.613 881.435L339.086 881.009C334.484 877.357 329.793 875.515 324.545 873.031C304.678 863.626 281.913 859.939 259.989 862.603C257.979 856.167 248.178 835.443 244.865 827.917C257.727 822.769 276.232 820.508 290.079 818.489C293.731 817.956 305.024 818.39 306.605 815.622C305.263 812.446 300.73 813.461 297.714 813.641C279.157 814.748 260.935 818.919 243.026 823.695C204.502 737.909 166.438 651.918 128.836 565.725C113.927 531.981 98.6304 498.446 83.8996 464.657C79.2705 454.039 74.2415 444.541 70.4922 433.548Z"/><path fill="#704968" d="M357.525 814.976C363.205 816.006 373.291 817.879 378.654 819.488C392.772 823.725 421.007 834.276 432.565 843.226C431.17 844.728 431.271 844.692 429.382 845.437C406.12 831.364 381.347 824.307 355.11 818.736C356.209 817.468 356.684 816.432 357.525 814.976Z"/><path fill="#704968" d="M355.11 818.736C351.946 818.426 346.789 818.359 344.772 815.911L345.27 815.087C349.566 813.396 352.954 814.353 357.525 814.976C356.684 816.432 356.209 817.468 355.11 818.736Z"/><path fill="#704968" d="M282.604 460.212C292.827 460.539 302.006 463.81 309.169 471.324C315.984 478.395 319.696 487.893 319.483 497.711C319.096 510.281 313.579 517.471 304.971 525.645C313.713 528.352 319.18 530.888 325.251 538.043C332.261 546.361 335.696 557.115 334.805 567.957C333.056 589.352 315.201 603.66 293.825 601.549C280.919 600.274 273.007 593.303 265.105 583.542C264.946 586.029 264.824 589.567 264.284 591.921C257.682 620.696 229.305 630.25 204.229 619.674C176.111 604.234 170.798 567.737 197.21 547.752L196.73 547.64C172.026 541.856 156.272 520.867 162.77 495.422C165.662 484.422 172.829 475.033 182.679 469.345C200.984 458.793 219.944 461.92 234.195 477.578C238.447 482.25 241.078 487.356 244.095 492.833C251.346 474.199 261.514 461.524 282.604 460.212Z"/><path fill="#EEE1E1" d="M277.938 464.141C306.198 460.837 325.327 490.062 310.261 514.247C306.18 520.798 303.425 520.98 298.412 525.706C297.956 527.319 297.852 526.599 298.542 527.956C300.724 529.172 303.608 529.28 306.026 529.891C313.94 531.892 321.935 538.748 326.015 545.7C330.924 554.065 332.235 565.049 329.759 574.4C327.664 582.313 322.359 589.483 315.244 593.58C310.3 596.427 304.662 597.75 298.989 597.928C274.119 598.71 269.24 577.31 262.806 575.597C262.45 575.78 262.094 575.962 261.738 576.145C260.064 583.574 261.411 593.28 257.7 600.275C247.092 620.27 223.046 625.088 203.931 614.978C192.368 607.614 183.791 595.04 183.907 581.813C184.059 564.592 193.153 554.919 206.76 546.368C207.461 545.928 207.374 545.197 207.361 544.481C206.228 543.717 201.106 543.912 198.968 543.674C194.94 543.266 191 542.233 187.289 540.612C177.611 536.331 171.209 528.553 167.56 518.764C164.086 509.69 164.421 499.597 168.489 490.773C173.206 480.553 182.278 472.783 192.26 469.222C215.413 460.964 237.092 478.343 242.227 500.608C242.498 501.784 243.195 502.428 244.224 502.912C246.91 501.744 246.544 498.611 247.311 495.798C248.904 489.874 251.498 484.266 254.982 479.217C260.696 470.949 268.025 465.961 277.938 464.141Z"/><path fill="#704968" d="M251.963 530.071C263.916 529.769 266.913 543.182 256.502 546.913C252.081 546.797 248.213 545.923 246.172 541.499C245.253 539.546 245.216 537.294 246.069 535.313C247.31 532.381 249.233 531.298 251.963 530.071Z"/><path fill="#EEE1E1" d="M252.029 534.35C254.323 533.181 257.13 534.059 258.348 536.326C259.567 538.593 258.75 541.419 256.51 542.686C255.017 543.531 253.184 543.502 251.718 542.61C250.253 541.718 249.385 540.103 249.45 538.389C249.514 536.675 250.501 535.129 252.029 534.35Z"/><path fill="#FBF7F3" d="M705.253 176.202C707.245 176.161 709.237 176.272 711.212 176.533C719.211 177.537 723.506 182.303 728.074 188.152L644.512 239.614C617.792 256.406 591.101 274.013 564.118 290.295C564.976 308.347 563.215 305.394 580.182 309.26C589.515 311.435 598.871 313.512 608.248 315.491L670.716 329.227C681.158 331.502 694.545 333.954 704.392 337.167C708.648 348.143 747.654 445.908 750.127 448.107C750.812 448.716 751.363 449.065 752.281 449.031C753.38 448.99 754.086 448.642 754.898 447.944C761.435 442.318 767.422 435.097 773.337 428.803L801.29 399.132C806.666 393.392 811.962 387.356 817.525 381.845C819.493 381.52 821.384 382.906 822.335 384.545C827.747 393.873 832.118 403.875 836.802 413.589L865.384 472.455C863.425 473.11 861.491 473.837 859.587 474.638C847.821 479.506 836.291 485.596 824.976 491.443C822.649 492.646 820.457 493.461 819.427 495.956C819.819 497.709 819.392 497.01 820.687 498.165C822.007 498.419 823.033 498.038 824.2 497.41C838.413 489.757 852.264 482.934 867.083 476.505C874.879 491.999 882.482 507.59 889.889 523.274C849.735 538.096 814.256 563.352 787.105 596.44C758.311 632.21 745.712 674.193 750.643 719.901C730.859 729.011 708.787 737.756 688.482 746.384C686.554 728.606 688.192 710.27 688.968 692.505C689.024 691.204 688.295 690.797 687.433 690.195C685.497 690.305 686.386 690.014 684.731 691.266C683.358 693.602 683.49 703.486 683.401 706.896C682.618 721.397 683.116 733.664 683.951 748.086C664.654 755.14 642.608 764.745 623.097 772.437C618.38 764.135 611.518 747.814 607.551 739.024C597.837 717.5 587.15 695.082 578.068 673.346C586.83 672.556 594.925 673.026 603.638 674.664C607.546 675.08 616.635 680.585 620.277 679.682C633.449 676.491 626.133 662.59 618.17 657.906C604.244 649.715 584.451 650.279 569.217 653.608C562.771 637.9 556.14 623.952 548.941 608.625C559.053 607.399 568.115 609.014 577.496 613.017C581.55 614.747 585.334 616.901 589.738 617.451C602.932 613.369 592.394 598.042 585.077 593.63C572.958 586.322 553.351 586.462 539.853 588.71L528.516 564.626C525.707 558.569 521.808 549.563 518.4 544.075C525.207 542.929 535.187 543.119 542.206 544.876C546.36 545.511 557.091 554.086 560.643 553.112C578.653 548.173 561.293 528.986 551.012 525.641C537.301 521.181 524.226 521.53 510.387 524.033C507.428 516.842 503.618 509.091 500.326 502C497.169 495.2 493.468 486.77 489.571 480.493C497.955 479.536 506.775 479.234 515.099 481.344C518.72 482.232 527.04 488.628 530.621 487.9C545.593 484.947 537.037 471.191 528.627 465.84C514.366 456.766 497.115 457.812 481.142 460.886C474.736 446.309 467.965 432.054 461.554 417.325C473.811 414.46 485.123 415.429 496.82 420.717C499.561 422.038 501.771 424.271 504.928 424.599C509.644 425.091 513.59 422.731 513.682 417.63C513.769 412.799 512.09 410.284 508.714 406.956C512.283 402.745 520.524 391.315 521.76 385.82C525.5 365.736 523.676 338.463 521.262 318.102C517.056 282.624 529.288 282.006 546.256 256.035C548.604 252.436 550.827 248.757 552.919 245.004C554.256 242.571 555.61 239.061 557.347 236.96C559.413 234.462 681.941 183.147 694.592 178.602C698.207 177.303 701.415 176.483 705.253 176.202Z"/><path fill="#704968" d="M725.625 571.799C727.128 571.945 727.021 571.923 728.17 572.915C728.518 575.86 724.421 580.266 722.567 582.843C719.744 586.773 717.052 590.796 714.495 594.904C704.868 610.523 699.377 626.155 695.206 643.94C693.991 649.121 692.591 660.175 690.796 664.498L688.969 663.961C687.975 662.936 687.309 661.907 687.476 660.42C690.752 631.415 705.521 591.884 725.625 571.799Z"/><path fill="#704968" d="M794.456 510.417C796.246 510.481 796.933 510.715 797.643 512.276C797.102 514.67 789.953 518.653 787.388 520.532C779.556 526.365 771.902 532.435 764.438 538.732C758.987 543.415 752.358 549.582 746.763 553.799C745.63 553.777 746.066 553.813 744.956 553.165C744.665 552.496 744.291 552.093 744.514 551.345C746.659 544.163 786.299 515.38 794.456 510.417Z"/><path fill="#FBF7F3" d="M951.963 60.3937L952.662 60.6271C952.689 62.7277 948.174 87.1152 947.397 91.4924C942.72 118.496 937.866 145.47 932.835 172.41L908.262 312.512C903.594 339.583 898.762 370.485 893.12 397.172C881.388 392.25 866.131 384.346 854.23 378.662C832.673 368.381 811.012 358.322 789.25 348.484C779.851 344.228 773.023 340.17 763.152 336.473C766.711 330.624 772.631 322.884 776.699 317.1C783.57 307.216 790.343 297.264 797.015 287.245C828.859 239.671 860.394 191.891 891.617 143.906L908.051 117.916C910.864 113.499 917.911 103.342 919.415 98.8593C918.905 95.2083 915.495 94.2814 913.288 96.571C896.839 113.639 880.634 131.703 864.621 149.162L714.028 320.09C705.685 319.019 696.357 316.661 688.058 314.823L653.402 307.258C628.185 301.686 601.137 296.6 576.168 290.701C583.546 284.795 601.508 274.107 609.989 268.796L672.804 229.694L851.782 121.141C858.093 117.348 864.904 113.773 871.074 109.937C897.684 93.3907 925.703 77.3685 951.963 60.3937Z"/><path fill="#FBF7F3" d="M59.363 461.938C60.3491 464.081 59.493 472.838 60.9424 476.13C67.0997 490.113 73.8021 503.997 79.9433 517.977L136.178 643.512C162.23 704.006 188.945 764.212 216.318 824.12L250.411 898.89C255.899 910.647 262.352 931.404 273.521 937.609C281.509 942.048 301.643 931.914 309.978 928.63L359.608 909.114L533.205 841.226C556.101 832.331 582.197 821.412 605.029 813.478C606.675 817.708 608.376 821.915 610.133 826.1C611.447 829.154 612.863 832.53 616.072 833.811C622.073 833.021 622.526 812.465 623.01 807.356C637.735 800.167 661.399 791.796 677.183 785.441L845.315 717.177L909.062 691.828C940.883 679.25 950.376 682.635 949.707 644.795C954.776 655.712 957.442 667.589 957.524 679.625C957.06 684.46 956.341 686.597 954.508 690.909C950.723 693.053 933.033 699.452 927.713 701.485L879.417 720.4C826.911 740.907 713.244 787.49 656.845 811.666C655.643 813.508 654.041 819.87 653.601 821.507C647.732 843.347 631.897 868.325 606.291 866.958C590.206 866.099 580.955 855.633 570.868 844.325C566.446 845.652 557.368 849.547 552.716 851.356L513.743 866.37C459.628 886.734 405.694 907.577 351.948 928.895C335.045 935.795 318.041 942.443 300.941 948.836C294.864 951.165 288.702 953.849 282.658 956.258C255.397 967.12 249.523 944.771 240.687 925.791C232.995 909.467 225.553 893.027 218.363 876.475L166.299 759.103C135.499 691.835 105.315 624.287 75.7506 556.467C67.8716 538.514 59.3958 520.533 51.2422 502.704C49.4266 498.733 48.1458 493.609 48.1611 489.241C48.1446 479.018 52.1714 469.204 59.363 461.938Z"/><path fill="#FBF7F3" d="M890.749 527.41L891.634 527.572C894.614 531.286 906.604 557.475 909.691 563.54C919.1 582.2 928.404 600.924 937.046 619.962C941.319 629.377 943.851 641.596 932.515 647.239C925.353 650.804 917.861 653.323 910.427 656.214L873.763 670.654C845.919 681.469 818.524 693.236 790.821 703.958C780.51 708.557 765.798 713.877 754.958 718.075C753.402 704.467 754.444 688.277 756.581 674.763C767.652 604.742 827.847 552.836 890.749 527.41Z"/><path fill="#EEE1E1" d="M58.139 454.345L59.0382 454.761C59.2126 455.691 59.3015 456.497 58.4318 457.192C45.5729 467.471 39.6759 486.915 46.4574 502.722C53.2192 518.482 61.8388 535.3 68.9457 551.841C99.3953 621.842 130.488 691.562 162.219 760.991L218.472 887.508C224.741 901.802 231.186 916.019 237.805 930.154C240.399 935.811 243.525 943.999 246.457 949.256C249.464 954.623 254.171 958.836 259.838 961.231C272.153 966.364 280.685 961.719 292.122 957.24C297.553 955.113 303.038 952.948 308.478 950.844C333.488 941.259 358.427 931.493 383.295 921.546L502.614 875.473C525.107 867.094 547.529 858.527 569.877 849.771C571.915 852.964 577.692 859.087 578.015 861.162L576.314 862.024L372.154 940.816L320.451 961.072C308.172 965.949 295.558 970.884 282.854 974.934C270.985 978.719 252.563 973.64 245.823 962.67C242.733 957.641 239.785 950.581 237.367 945.1L224.445 915.707L170.433 793.943L91.1621 615.487C79.4566 589.48 67.9823 563.37 56.7408 537.159C48.8244 518.94 35.7884 499.173 39.9645 478.873C42.3549 467.254 48.415 460.667 58.139 454.345Z"/><path fill="#FBF7F3" d="M550.55 238.972L551.088 239.07C550.72 247.518 520.808 276.651 518.143 289.181C511.857 318.738 522.695 348.723 518.791 378.559C517.803 386.11 510.545 397.444 506.219 403.657C490.168 393.531 470.529 393.469 452.648 397.858C448.957 389.418 445.001 381.343 441.277 372.624C438.287 365.499 435.309 359.163 431.954 352.191C445.966 350.007 458.276 353.223 468.813 361.244C469.807 362.001 473.747 361.506 474.994 360.988C480.989 358.499 480.869 352.029 478.041 347.07C473.992 339.456 468.138 336.892 460.489 334.449C466.51 320.024 474.203 305.786 480.387 291.523C483.998 283.193 486.862 273.593 490.517 264.773C508.267 256.3 532.361 246.014 550.55 238.972Z"/><path fill="#EEE1E1" d="M592.787 789.444L593.38 789.448C595.281 790.634 600.624 804.514 601.786 807.317C533.123 833.423 464.687 860.123 396.486 887.412C359.519 902.023 322.67 915.594 285.694 930.724C282.501 931.556 280.207 931.713 276.93 932.032C277.865 925.691 277.908 919.096 279.288 912.813C283.395 910.8 291.752 907.793 296.252 906.027C307.898 901.36 319.619 896.882 331.41 892.594C346.661 886.955 362.755 880.21 377.966 874.183L592.787 789.444Z"/><path fill="#EEE1E1" d="M897.358 122.453C897.42 124.42 886.159 140.787 884.234 143.731C874.602 158.75 864.778 173.645 854.765 188.413C849.448 196.353 844.624 204.424 839.381 212.343L779.548 301.767C773.168 311.171 766.96 320.734 760.394 330.006C758.148 333.178 753.952 337.062 752.509 340.529C750.059 346.418 748.073 391.666 747.302 401.887C744.544 395.021 741.802 386.682 739.281 379.62C732.704 360.747 725.689 342.029 718.242 323.482C720.423 321.442 722.333 319.382 724.329 317.171C739.084 300.828 754.128 284.852 768.06 267.789C776.158 257.87 785.18 248.451 793.687 238.863L842.896 182.979C855.129 169.025 867.523 155.213 880.075 141.546C885.7 135.341 891.494 128.307 897.358 122.453Z"/><path fill="#EEE1E1" d="M833.069 389.169C835.142 389.878 836.138 390.451 838.096 391.49C839.953 398.228 845.792 408.864 849.038 415.609C857.297 432.881 865.719 450.074 874.302 467.187L940.362 599.962C951.745 623.125 963.012 645.928 973.866 669.532C980.425 683.796 978.284 700.27 963.309 708.404C954.016 713.452 942.201 717.347 932.176 721.191L872.957 743.601C834.1 758.601 795.368 773.925 756.766 789.57C726.437 801.746 697.225 813.287 667.222 826.493C663.544 828.143 660.291 829.354 656.498 830.745C657.886 825.5 659.335 820.271 660.844 815.06C674.591 808.539 688.753 803.834 702.498 797.689C730.559 785.145 759.226 774.736 787.752 763.453L907.006 715.44L938.735 702.767C943.326 700.965 948.288 699.224 952.755 697.364C956.93 695.309 959.52 694.366 960.898 689.708C967.525 667.308 954.909 643.242 946.327 623.253C936.615 600.629 925.312 578.992 914.632 556.961L833.069 389.169Z"/><path fill="#EEE1E1" d="M942.381 648.999L942.802 649.556C940.893 675.3 934.019 673.965 912.131 682.305C903.402 685.623 894.715 689.053 886.074 692.593L761.421 742.573L665.857 782.104C653.201 787.276 637.319 794.483 624.62 798.693C623.457 793.926 624.904 784.42 625.11 778.884L836.752 693.605L894.952 670.63C909.18 664.982 930.807 657.59 942.381 648.999Z"/><path fill="#EEE1E1" d="M66.6325 444.841C68.4192 446.693 92.9417 503.395 95.6761 509.496L217.232 783.591L248.927 854.414C256.843 872.467 265.054 892.9 274.251 910.266C273.741 916.309 273.545 921.594 273.383 927.653L272.561 927.533C267.681 920.622 262.092 907.817 258.525 899.926L241.802 862.903C213.83 801.683 186.405 740.215 159.531 678.506C136.083 625.4 111.526 572.097 88.5963 518.789C84.3237 509.023 79.9481 499.303 75.4704 489.629C73.8758 486.192 68.8116 475.632 67.7003 472.477C65.9595 467.534 66.4763 450.771 66.6325 444.841Z"/><path fill="#FBF7F3" d="M483.682 267.476L484.304 267.687C484.863 273.461 459.656 324.858 456.042 333.299C448.758 331.398 444.279 330.936 436.725 330.927C433.396 330.922 424.925 332.861 422.987 332.28L422.037 330.29C418.241 322.27 413.123 313.184 416.124 304.134C420.503 290.931 437.303 286.673 448.745 281.663C460.254 276.625 472.029 272.001 483.682 267.476Z"/><path fill="#EEE1E1" d="M569.257 675.02C570.415 674.89 569.981 674.871 571.11 675.212C573.132 678.649 575.948 685.721 577.758 689.657L592.435 721.901C598.481 735.059 604.41 748.27 610.221 761.533C611.612 764.694 617.849 778.454 617.93 780.721C618.309 791.257 615.813 808.845 614.193 819.286C613.265 816.301 612.105 813.387 610.995 810.462C599.736 782.908 587.826 755.624 575.274 728.635C567.789 712.149 561.625 697.577 553.577 681.059C558.763 678.262 563.637 676.715 569.257 675.02Z"/><path fill="#EEE1E1" d="M766.891 357.659C780.897 362.649 797.822 371.689 811.597 378.127C804.186 387.333 792.147 399.582 783.841 408.518C776.798 415.91 769.586 424.634 762.505 431.603C762.345 409.575 764.223 379.092 766.891 357.659Z"/><path fill="#FBF7F3" d="M268.018 866.296C291.403 863.79 314.675 872.259 334.956 883.054C328.594 885.783 321.849 888.32 315.378 890.848C304.617 895.231 290.245 901.493 279.461 905.087C274.103 893.605 266.859 878.32 262.278 866.773L268.018 866.296Z"/><path fill="#EEE1E1" d="M758.459 341.418C768.196 344.326 792.598 356.605 803.057 361.479L892.03 403.16L891.245 408.878C873.607 400.39 855.454 393.005 837.964 384.202C833.89 382.151 829.748 380.229 825.628 378.273C815.803 374.147 770.077 350.534 763.412 350.642C759.393 353.757 757.667 415.677 757.034 424.337C756.361 433.531 758.6 432.102 752.696 441.162C752.166 430.541 755.872 348.964 758.459 341.418Z"/><path fill="#EEE1E1" d="M571.132 295.734C580.428 298.07 590.486 299.718 599.926 301.833L676.463 318.842C687.873 321.281 701.641 323.373 712.504 326.296C715.233 331.655 717.857 339.022 720.067 344.721C724.975 357.237 729.642 369.846 734.064 382.542C737.308 391.578 746.728 415.526 747.375 423.888C741.262 417.465 714.803 345.85 708.468 331.996C699.413 328.416 677.631 324.418 667.363 322.212L600.38 307.444C594.228 306.086 577.174 302.691 571.814 300.675C570.878 299.348 571.128 297.452 571.132 295.734Z"/><path fill="#EEE1E1" d="M522.439 528.699C530.812 527.786 540.168 529.076 548.156 531.809C553.05 533.484 563.138 539.405 560.662 545.581C557.429 546.607 554.285 542.988 551.238 541.514C526.808 529.705 491.476 541.1 475.061 561.7C470.321 568.229 467.116 575.759 464.767 583.439C464.197 585.303 462.989 590.103 461.757 591.386C459.805 592.091 460.749 592.062 458.834 591.623C453.997 587.713 457.438 580.493 458.876 575.571C467.563 545.853 493.264 532.203 522.439 528.699Z"/><path fill="#EEE1E1" d="M496.589 465.213C507.171 464.707 524.511 466.138 531.181 476.617C532.019 477.934 532.355 480.028 531.907 481.56C529.672 481.203 524.689 478.734 522.342 477.588C497.277 465.351 459.321 479.026 443.483 499.422C438.342 506.613 436.462 515.491 433.673 523.727C432.69 526.627 430.214 528.29 427.254 526.941C421.582 521.055 434.691 495.712 439.912 490.156C454.405 474.734 475.827 466.614 496.589 465.213Z"/><path fill="#EEE1E1" d="M583.367 657.71C593.152 656.37 612.125 658.915 618.752 667.189C619.923 668.65 621.149 669.898 620.988 671.879C619.728 673.494 616.668 671.984 614.801 671.26C586.866 660.42 548.375 667.396 530.644 693.314C527.157 698.556 524.818 702.839 522.623 708.808C521.347 712.277 520.147 717.629 518.423 720.639C516.354 721.489 517.294 721.536 515.514 720.981C514.903 720.155 514.451 719.082 514.492 718.036C516.01 679.297 549.296 661.232 583.367 657.71Z"/><path fill="#EEE1E1" d="M469.25 401.203C481.768 399.974 502.597 403.312 507.912 416.635L507.552 417.413C503.749 418.241 493.381 411.598 488.651 410.688C464.072 405.962 435.707 415.651 419.003 434.82C414.761 439.944 412.037 445.639 409.697 452.055C408.491 455.365 407.445 463.651 404.359 465.566C403.315 466.214 402.714 466.09 401.686 465.781C400.998 464.892 400.487 463.906 400.484 462.755C400.37 426.75 437.758 404.292 469.25 401.203Z"/><path fill="#EEE1E1" d="M549.183 594.199C557.087 592.845 566.192 594.471 573.919 596.361C578.601 597.507 590.804 604.303 589.142 609.602C586.923 610.321 582.752 608.26 580.608 607.209C555.95 595.119 520.932 605.083 503.644 625.305C496.398 633.924 494.732 643.497 490.943 653.587C490.166 655.656 486.657 655.474 484.849 654.426C484.552 653.983 483.919 653.007 483.964 652.484C487.044 616.939 517.792 597.643 549.183 594.199Z"/><path fill="#EEE1E1" d="M432.598 337.694C441.988 336.293 455.258 337.65 463.814 342.237C467.45 344.186 475.589 350.314 472.749 355.115C470.864 355.236 461.271 349.269 457.821 348.205C433.292 340.64 406.566 348.899 391.173 369.701C384.63 379.632 382.294 388.302 378.756 399.469C377.951 402.009 375.262 402.002 373.248 400.823C372.807 400.206 372.067 399.096 372.121 398.302C374.407 364.785 401.513 341.27 432.598 337.694Z"/><path fill="#EEE1E1" d="M424.145 353.996L424.979 354.131C426.848 356.506 434.478 375.069 436.288 378.923C439.248 385.224 443.378 393.432 446.021 399.69C440.241 402.209 434.62 405.074 429.186 408.269L428.594 408.473C426.74 407.153 410.134 368.133 407.499 362.251C412.958 358.247 417.794 356.092 424.145 353.996Z"/><path fill="#EEE1E1" d="M482.27 481.97C482.408 481.997 482.554 481.999 482.684 482.052C484.905 482.951 501.598 520.655 503.602 525.682C497.733 527.937 491.919 530.333 486.165 532.869L485.684 532.945C484.443 532.201 466.639 493.718 464.906 489.457C470.985 486.243 475.86 484.261 482.27 481.97Z"/><path fill="#EEE1E1" d="M510.836 546.014L511.97 546.093C513.034 547.586 518.026 558.241 519.066 560.482C523.601 570.259 529.022 580.468 533.084 590.376C527.226 592.205 522.186 594.669 516.637 597.228L515.78 597.387C514.327 596.142 496.597 557.881 494.093 553.068C499.656 549.753 504.719 548.016 510.836 546.014Z"/><path fill="#EEE1E1" d="M541.307 610.13C544.159 613.325 559.718 648.226 562.648 654.594C555.748 656.559 551.758 658.405 545.395 661.478C544.799 661.068 544.343 660.346 544.076 659.688C538.053 644.852 531.494 631 524.411 616.656C530.362 613.929 535.023 611.897 541.307 610.13Z"/><path fill="#EEE1E1" d="M453.209 419.96L453.821 420.106C457.468 423.963 471.286 455.922 474.026 462.509C468.403 464.307 462.931 466.542 457.658 469.196C457.027 469.366 457.4 469.346 456.552 469.014C450.918 458.119 441.874 438.056 437.183 426.562C442.495 424.289 447.837 422.088 453.209 419.96Z"/><path fill="#704968" d="M531.359 46.7202C547.099 47.3285 555.219 56.427 558.305 71.2767C559.43 70.7801 560.567 70.3098 561.714 69.866C575.906 64.4603 592.663 69.2402 597.692 84.6073C599.578 90.554 598.933 97.0152 595.907 102.471C591.712 110.126 586.326 111.796 578.694 113.862C583.908 122.178 586.184 130.441 581.721 139.938C579.165 145.402 574.537 149.622 568.862 151.665C561.696 154.233 555.997 153.289 549.464 150.04C543.103 145.987 541.198 141.618 538.356 135.105C533.676 139.799 531.803 142.212 525.006 144.599C518.126 147.034 510.554 146.583 504.011 143.35C485.839 134.483 481.676 108.776 499.096 96.6422C502.853 94.0245 505.944 93.1911 510.25 91.8536C495.824 71.5765 506.496 48.4908 531.359 46.7202Z"/><path fill="#EEE1E1" d="M527.597 50.6227C529.626 50.5072 531.66 50.5482 533.683 50.7451C544.059 51.6721 552.129 58.3118 554.081 68.6255C554.818 72.5211 554.236 75.6614 553.783 79.5582C559.632 74.4825 565.524 71.1117 573.431 71.0909C597.428 71.0278 604.102 105.897 578.43 110.286C576.075 110.689 572.789 110.279 570.377 110.101C573.11 114.04 576.233 116.829 578.413 121.313C585.085 135.04 574.847 149.08 560.128 149.123C556.985 149.133 555.17 148.377 552.3 147.228C543.527 142.184 541.739 134.745 540.459 125.542C537.959 129.22 535.673 132.403 532.496 135.525C522.424 145.421 506.083 144.287 497.122 133.567C492.975 128.617 491.03 122.187 491.74 115.769C493.034 104.905 500.916 97.742 511.262 95.4625C513.988 94.8621 515.936 95.3878 517.787 93.8724C515.97 89.4422 509.952 89.2876 507.67 77.9529C506.475 72.1029 507.679 66.0182 511.01 61.0631C515.105 54.9627 520.652 52.1099 527.597 50.6227Z"/><path fill="#704968" d="M545.239 94.7653C548.269 94.049 551.303 95.9352 552.001 98.9693C552.7 102.003 550.796 105.026 547.758 105.707C544.745 106.382 541.752 104.497 541.06 101.488C540.367 98.4792 542.234 95.4757 545.239 94.7653Z"/><path fill="#704968" d="M745.855 46.7681C746.732 47.154 748.112 47.5245 748.238 48.4926C750.196 63.4442 756.606 75.4239 771.175 81.3149C774.258 82.5615 781.95 83.0931 783.834 85.4053C783.564 88.8754 766.176 90.4172 761.466 95.8207C756.991 100.954 754.172 102.717 751.776 109.982C750.566 113.649 749.217 121.737 747.317 123.578C743.734 120.962 743.319 108.538 738.782 102.957C733.241 96.1404 728.283 92.1519 719.551 89.573C716.777 88.7538 710.394 88.5084 709.088 86.4451C710.878 83.808 719.134 82.9113 721.898 81.6419C732.529 76.7599 740.276 69.5512 743.261 57.9179C744.186 54.312 744.479 49.6293 745.855 46.7681Z"/><path fill="#EEE1E1" d="M746.371 59.8241C747.715 61.1769 749.246 65.3898 750.364 67.3627C755.724 76.8286 763.107 81.6008 772.69 85.7528C758.933 90.7554 751.951 98.2812 747.024 111.795C741.413 97.0847 734.893 91.3528 720.212 85.9095L720.722 85.7086C736.451 79.4348 739.948 74.8035 746.371 59.8241Z"/><path fill="#704968" d="M958.969 395.055C965.003 396.836 961.976 408.678 967.606 414.981C973.648 421.746 987.362 421.383 991.297 425.427L991.282 426.401C987.838 429.519 979.012 428.264 973.4 431.787C965.86 436.52 964.348 445.543 962.435 453.648C961.675 453.812 961.022 453.821 960.241 453.881C955.434 450.893 958.478 441.184 950.866 434.081C944.162 427.826 931.971 429.012 929.393 425.495L929.547 424.75C931.741 422.628 941.936 421.45 946.538 419.272C959.308 413.228 955.443 404.738 958.969 395.055Z"/><path fill="#EEE1E1" d="M960.376 406.959C963.428 411.814 964.671 418.785 971.312 421.639C973.605 422.625 976.185 423.159 977.747 424.749C977.556 427.77 970.033 428.583 967.121 431.349C963.758 434.542 962.712 442.023 960.218 444.696C957.245 436.567 954.864 430.86 945.782 427.163C943.964 426.424 942.482 426.609 941.182 425.009C943.106 423.376 945.03 423.058 947.418 422.144C956.522 418.657 956.978 414.852 960.376 406.959Z"/></svg>