<?xml version="1.0" encoding="utf-8" ?><svg xmlns="http://www.w3.org/2000/svg" xmlns:xlink="http://www.w3.org/1999/xlink" width="3423" height="1911" viewBox="0 0 3423 1911"><defs><linearGradient id="gradient_0" gradientUnits="userSpaceOnUse" x1="667.60352" y1="467.00336" x2="695.88763" y2="-36.075089"><stop offset="0" stop-color="#FFDDCD"/><stop offset="1" stop-color="#CDB9E1"/></linearGradient></defs><path fill="url(#gradient_0)" transform="scale(2.48789 2.48789)" d="M0 0L1376 0L1376 220.862L1376 377.58L1376 404.544L1376 429.891L1376 466.158L1376 530.832L1376 566.923L1376 592.671L1376 607.325L1376 645.625L1376 768L0 768L0 645.63L0 609.143L0 593.12L0 471.553L0 317.697L0 181.65L0 96.3669L0 0Z"/><path fill="#402926" transform="scale(2.48789 2.48789)" d="M885.201 163.223C885.696 159.105 886.302 155.001 887.021 150.915C896.329 100.834 909.733 107.143 934.021 143.096C938.321 149.462 943.493 155.415 947.701 162.193C958.611 165.003 963.682 166.525 973.218 172.348C970.548 167.529 955.551 147.148 955.106 145.639L955.794 144.737C956.418 144.556 957.573 144.296 958.21 144.351C975.115 145.814 987.187 152.466 998.264 164.42C1000.23 159.025 1002.39 153.703 1004.73 148.462C1015.68 124.089 1028.56 103.115 1045 139.834C1051 153.219 1056.8 166.934 1061.83 180.73C1068.82 202.541 1072.73 214.63 1071.51 237.698C1082.55 252.226 1084.89 269.535 1089.93 286.675C1091.15 290.804 1092.79 297.878 1094.64 301.602L1095.32 300.956C1097.8 300.174 1103.29 300.551 1106.02 300.642C1124.76 301.263 1144.42 305.574 1161.3 313.887C1173.45 288.687 1200.02 278.087 1226.84 283.318C1253.54 229.213 1318.46 199.873 1376 220.862L1376 377.58L1376 404.544L1376 429.891L1376 466.158L1376 530.832L1376 566.923L1376 592.671L1376 607.325L1376 645.625L1376 768L0 768L0 645.63L768.945 645.605C770.244 644.145 769.889 642.609 770.064 640.235C770.049 629.464 769.394 619.168 769.541 608.037L770.123 592.556C771.271 573.989 774.27 572.563 793.118 568.521C801.715 566.677 810.677 564.898 819.327 563.188C822.098 555.989 823.084 554.072 828.331 548.419C829.343 539.909 829.964 537.496 833.416 529.346C834.462 527.01 835.932 524.304 837.112 521.985C841.706 514.594 845.492 508.408 849.564 500.693C850.54 498.603 851.806 496.333 852.9 494.269C853.158 493.135 857.55 484.105 858.333 482.458C854.906 476.886 853.773 473.027 853.02 466.623C852 466.405 843.298 466.903 839.508 466.447C834.383 466.779 824.517 466.434 818.909 466.423L778.345 466.456C777.029 463.646 776.031 460.65 774.991 457.722C776.607 448.057 783.493 431.216 786.873 421.533C790.693 410.593 794.168 398.03 799.27 387.831C801.326 383.72 803.999 381.631 807.435 378.753C800.748 372.516 798.456 369.25 794.601 361.115C791.796 350.116 782.576 340.471 785.787 328.496C788.038 319.233 800.771 317.833 808.853 316.331C835.786 311.328 827.422 292.039 833.072 270.563C824.775 281.792 823.821 289.178 818.639 296.726C817.248 296.625 816.946 296.595 815.985 295.444C795.302 270.694 800.801 247.397 821.383 226.399C808.198 226.945 795.812 224.874 785.663 215.713C783.51 213.769 780.814 211.913 780.276 208.903C783.467 205.039 789.724 206.993 794.401 205.962C810.594 202.395 824.129 191.057 837.263 181.473C857.522 169.058 860.761 165.557 885.201 163.223Z"/><defs><linearGradient id="gradient_1" gradientUnits="userSpaceOnUse" x1="688.00311" y1="768.99268" x2="687.32501" y2="642.70282"><stop offset="0" stop-color="#AB898E"/><stop offset="1" stop-color="#C7A29F"/></linearGradient></defs><path fill="url(#gradient_1)" transform="scale(2.48789 2.48789)" d="M1179.77 550.15C1198.4 552.92 1229.87 554.55 1249.26 556.13L1376 566.923L1376 592.671L1376 607.325L1376 645.625L1376 768L0 768L0 645.63L768.945 645.605C770.244 644.145 769.889 642.609 770.064 640.235L770.154 640.946C771.985 655.991 767.051 670.966 785.491 677.033C798.549 681.33 811.746 685.057 824.933 688.933C841.858 694.013 871.635 703.277 889.197 704.385C892.489 704.593 907.261 699.057 911.541 697.512C909.475 708.802 911.671 715.717 924.693 717.841C936.143 719.709 957.678 718.949 966.789 710.95C972.137 707.205 981.33 686.2 983.92 679.751C989.331 680.68 991.669 680.911 997.289 680.763C992.389 688.093 989.939 698.031 999.352 703.28C1010.04 709.239 1026.07 707.855 1037.62 705.322C1050.44 702.486 1052.82 693.204 1056.44 682.197C1059.77 671.749 1063.24 656.954 1059 646.53C1061.17 644.377 1067.33 645.156 1072.05 643.939L1072.95 643.801C1075.13 642.617 1074.67 643.296 1075.25 641.376C1074.66 638.276 1071.99 634.1 1070.36 631.218C1109.15 650.597 1145.35 644.495 1170.68 607.722L1169.86 605.665C1166.76 603.348 1161.64 604.746 1157.63 605.305C1162.46 601.211 1165.52 597.651 1169.42 592.743C1179.21 576.937 1180.26 568.38 1179.77 550.15Z"/><path fill="#8F7785" transform="scale(2.48789 2.48789)" d="M983.92 679.751C989.331 680.68 991.669 680.911 997.289 680.763C992.389 688.093 989.939 698.031 999.352 703.28C1010.04 709.239 1026.07 707.855 1037.62 705.322C1050.44 702.486 1052.82 693.204 1056.44 682.197C1056.7 682.451 1057.25 683.175 1057.54 683.302C1061.42 685.01 1077.88 685.22 1082.98 685.675C1094.7 686.721 1159.48 693.144 1159.37 705.919C1159.36 707.432 1158.85 708.33 1157.73 709.346C1132.9 731.761 978.731 732.389 939.978 731.666C917.166 731.12 894.375 729.928 871.63 728.092C856.98 726.862 783.96 720.668 780.529 706.175C783.026 693.751 816.619 693.529 824.933 688.933C841.858 694.013 871.635 703.277 889.197 704.385C892.489 704.593 907.261 699.057 911.541 697.512C909.475 708.802 911.671 715.717 924.693 717.841C936.143 719.709 957.678 718.949 966.789 710.95C972.137 707.205 981.33 686.2 983.92 679.751Z"/><path fill="#756374" transform="scale(2.48789 2.48789)" d="M1179.77 550.15C1198.4 552.92 1229.87 554.55 1249.26 556.13L1376 566.923L1376 592.671L1376 607.325C1358.73 607.344 1171.66 607.213 1170.68 607.722L1169.86 605.665C1166.76 603.348 1161.64 604.746 1157.63 605.305C1162.46 601.211 1165.52 597.651 1169.42 592.743C1179.21 576.937 1180.26 568.38 1179.77 550.15Z"/><path fill="#DBB4B5" transform="scale(2.48789 2.48789)" d="M1169.42 592.743L1376 592.671L1376 607.325C1358.73 607.344 1171.66 607.213 1170.68 607.722L1169.86 605.665C1166.76 603.348 1161.64 604.746 1157.63 605.305C1162.46 601.211 1165.52 597.651 1169.42 592.743Z"/><path fill="#F3DAD4" transform="scale(2.48789 2.48789)" d="M1170.68 607.722C1171.66 607.213 1358.73 607.344 1376 607.325L1376 645.625C1351.83 645.085 1325.7 645.552 1301.43 645.56L1163.14 645.617L1104.73 645.461C1095.02 645.447 1084.9 645.774 1075.24 645.302C1073.71 645.228 1074.09 645.186 1072.95 643.801C1075.13 642.617 1074.67 643.296 1075.25 641.376C1074.66 638.276 1071.99 634.1 1070.36 631.218C1109.15 650.597 1145.35 644.495 1170.68 607.722Z"/><path fill="#564B46" transform="scale(2.48789 2.48789)" d="M893.539 436.28C905.569 435.981 909.352 435.932 919.599 429.153C919.735 445.18 924.074 454.099 935.018 465.927C940.475 471.826 957.445 481.414 964.837 481.873L965.981 481.274C965.949 478.357 962.113 468.773 961.072 465.163C976.532 482.049 988.969 483.107 999.774 505.213C1011.75 500.045 1019.56 493.44 1028.08 483.817C1026.86 486.331 1023.66 492.32 1023.43 494.733C1026.77 497.68 1040.49 486.931 1043.45 484.346C1045.11 490.849 1047.19 498.949 1049.56 505.09C1057.45 525.481 1063.93 536.289 1065.5 558.546C1055.97 554.272 1039.63 545.323 1029.47 552.074L1029.17 553.041L1029.71 553.666C1045.53 550.244 1052.32 557.611 1066.31 563.083C1094.22 573.997 1116.18 564.42 1133.57 541.743C1133.46 551.231 1133.14 551.235 1130.41 560.008C1131.05 560.305 1131.45 560.64 1132.21 560.169C1148.28 550.213 1150.3 536.012 1168.45 526.563C1169.94 529.695 1174.04 539.481 1174.09 542.729C1167.9 580.466 1148.74 600.682 1110.37 606.314C1117.73 610.304 1121.93 611.952 1129.99 614.333C1099.51 627.641 1070.69 618.16 1047.6 595.699C1048.73 601.971 1049.33 605.78 1051.5 611.794C1032.9 599.922 1027.37 590.401 1018.31 570.663C1018.11 574.23 1017.77 578.413 1017.85 581.935L1016.74 579.212C1015.26 581.443 1015.96 585.846 1016.38 588.461C1019.76 609.455 1035.31 625.712 1052.12 637.005C1052.32 639.261 1052.45 641.364 1052.98 643.571C1036.94 636.261 1034.62 649.804 1023.25 657.76C1017.7 661.643 1013.35 662 1006.86 662.8C1007.15 666.514 1007.34 667.817 1006.65 671.431C1006.47 649.409 998.004 648.272 992.355 628.425C998.597 622.045 1005.63 617.077 1012.54 609.901C1001.52 614.18 988.623 623.671 982.927 634.194C979.505 640.517 979.57 645.751 979.457 652.691L979.551 653.228C980 655.703 982.689 662.513 982.722 663.975C982.905 672.077 976.579 688.753 972.082 695.01C970.378 697.999 966.193 703.851 965.066 706.429L965.5 707.293C967.726 705.163 969.292 702.401 970.942 699.786L971.737 699.833C971.538 704.307 966.306 708.324 966.789 710.95C957.678 718.949 936.143 719.709 924.693 717.841C911.671 715.717 909.475 708.802 911.541 697.512C907.261 699.057 892.489 704.593 889.197 704.385C871.635 703.277 841.858 694.013 824.933 688.933C811.746 685.057 798.549 681.33 785.491 677.033C767.051 670.966 771.985 655.991 770.154 640.946L770.064 640.235C770.049 629.464 769.394 619.168 769.541 608.037L770.123 592.556C771.271 573.989 774.27 572.563 793.118 568.521C801.715 566.677 810.677 564.898 819.327 563.188C822.098 555.989 823.084 554.072 828.331 548.419C829.343 539.909 829.964 537.496 833.416 529.346C834.462 527.01 835.932 524.304 837.112 521.985C841.706 514.594 845.492 508.408 849.564 500.693C850.54 498.603 851.806 496.333 852.9 494.269C853.204 497.572 851.014 500.271 850.052 503.356L850.565 503.814C853.058 501.501 853.653 500.044 855.265 497.005L856.063 497.109C865.734 476.084 875.362 450.776 893.539 436.28Z"/><path fill="#4C2926" transform="scale(2.48789 2.48789)" d="M828.331 548.419C829.343 539.909 829.964 537.496 833.416 529.346C835.478 530.42 835.777 530.558 836.875 532.585L834.393 539.32C850.373 531.198 865.641 538.136 876.272 551.11L874.882 554.117C877.497 555.119 876.767 555.262 879.201 554.736L879.64 554.252L881.252 557.441C884.328 560.594 886.941 568.769 888.254 573.125L887.101 574.252C887.124 575.628 887.067 575.852 887.645 577.157L888.889 577.428C892.329 578.236 902.504 580.86 905.493 581.144C907.825 580.103 920.175 582.715 922.096 583.79C923.691 584.369 923.767 584.446 925.361 584.071L925.831 583.113C921.895 581.999 912.064 579.85 909.506 577.798C916.432 579.443 926.268 581.226 932.117 584.8C942.819 602.288 935.244 647.457 937.408 668.078C937.448 667.238 937.611 661.556 938.429 661.506C953.616 660.59 961.08 655.614 973.267 646.636C975.123 647.431 976.994 648.189 978.88 648.911L979.457 652.691L979.551 653.228C980 655.703 982.689 662.513 982.722 663.975C982.905 672.077 976.579 688.753 972.082 695.01C970.378 697.999 966.193 703.851 965.066 706.429L965.5 707.293C967.726 705.163 969.292 702.401 970.942 699.786L971.737 699.833C971.538 704.307 966.306 708.324 966.789 710.95C957.678 718.949 936.143 719.709 924.693 717.841C911.671 715.717 909.475 708.802 911.541 697.512C907.261 699.057 892.489 704.593 889.197 704.385C871.635 703.277 841.858 694.013 824.933 688.933C811.746 685.057 798.549 681.33 785.491 677.033C767.051 670.966 771.985 655.991 770.154 640.946L770.064 640.235C770.049 629.464 769.394 619.168 769.541 608.037L770.123 592.556C771.271 573.989 774.27 572.563 793.118 568.521C801.715 566.677 810.677 564.898 819.327 563.188C822.098 555.989 823.084 554.072 828.331 548.419Z"/><path fill="#DBB4B5" transform="scale(2.48789 2.48789)" d="M791.173 580.517C799.546 583.71 817.292 586.963 826.746 588.9C841.102 591.843 855.66 595.287 869.967 598.164C871.985 610.878 874.412 615.254 886.753 619.904C886.142 641.995 885.897 658.644 887.137 680.769C878.974 682.671 872.291 686.575 870.865 695.601C869.489 697.452 864.977 695.853 862.947 695.289C838.001 688.349 813.224 680.788 788.381 673.478C788.274 672.02 788.091 670.569 787.831 669.13C786.156 659.94 782.006 655.76 774.705 650.782C773.946 630.39 773.715 615.216 774.388 594.656C775.441 594.432 776.487 594.176 777.525 593.889C785.343 591.68 787.481 587.078 791.173 580.517Z"/><path fill="#5A2D2C" transform="scale(2.48789 2.48789)" d="M793.887 579.202C795.26 575.282 794.893 574.05 798.621 571.966C802.978 569.531 812.287 571.51 817.491 572.28C820.493 577.393 822.207 579.105 828.312 579.013C830.748 578.337 831.616 577.635 833.587 576.128C845.53 576.951 864.234 582.22 875.51 586.761C880.103 588.61 880.02 588.71 884.978 587.328L887.199 584.717C888.027 583.386 888.496 579.342 888.889 577.428C892.329 578.236 902.504 580.86 905.493 581.144C907.825 580.103 920.175 582.715 922.096 583.79L921.635 584.507C929.967 588.542 931.11 589.557 932.998 598.83C933.308 600.985 932.886 601.833 933.004 603.613C933.225 612.235 935.004 666.407 932.226 670.047C932.145 670.153 932.041 670.239 931.949 670.335C928.425 671.801 926.306 674.617 924.884 678.075C924.027 680.168 923.329 682.322 922.794 684.519L922.28 683.219C919.751 681.215 916.347 681.209 913.207 681.032C912.998 683.714 912.333 690.159 912.525 692.551C911.546 693.079 911.398 693.269 910.278 693.308C908.604 693.839 904.56 695.314 903.072 695.157C902.338 695.266 900.957 695.424 900.301 695.604C896.11 701.458 878.898 699.972 873.017 697.327C872.297 696.263 872.033 696.3 870.865 695.601C872.291 686.575 878.974 682.671 887.137 680.769C885.897 658.644 886.142 641.995 886.753 619.904C874.412 615.254 871.985 610.878 869.967 598.164C855.66 595.287 841.102 591.843 826.746 588.9C817.292 586.963 799.546 583.71 791.173 580.517L791.353 580.359C792.842 580.183 792.762 580.206 793.887 579.202Z"/><path fill="#DC9C9D" transform="scale(2.48789 2.48789)" d="M889.401 619.963C902.969 613.423 899.722 603.324 904.808 597.885C906.992 597.151 906.267 597.057 908.219 597.582C913.876 605.949 911.285 678.976 910.278 693.308C908.604 693.839 904.56 695.314 903.072 695.157C900.07 686.392 897.695 683.243 888.734 680.609C890.03 658.848 889.303 641.636 889.401 619.963Z"/><path fill="#DC9C9D" transform="scale(2.48789 2.48789)" d="M910.662 596.249L918.224 593.759C923.289 601.111 924.3 601.805 933.004 603.613C933.225 612.235 935.004 666.407 932.226 670.047C932.145 670.153 932.041 670.239 931.949 670.335C928.425 671.801 926.306 674.617 924.884 678.075C924.027 680.168 923.329 682.322 922.794 684.519L922.28 683.219C919.751 681.215 916.347 681.209 913.207 681.032C914.841 666.745 914.665 608.082 910.662 596.249Z"/><path fill="#DBB4B5" transform="scale(2.48789 2.48789)" d="M793.887 579.202C795.26 575.282 794.893 574.05 798.621 571.966C802.978 569.531 812.287 571.51 817.491 572.28C820.493 577.393 822.207 579.105 828.312 579.013C830.748 578.337 831.616 577.635 833.587 576.128C845.53 576.951 864.234 582.22 875.51 586.761C880.103 588.61 880.02 588.71 884.978 587.328L887.199 584.717C892.518 586.51 903.876 589.764 907.925 592.746L906.551 594.247C895.494 597.66 886.107 581.968 870.427 596.019C848.399 589.154 816.802 583.32 793.887 579.202Z"/><path fill="#402926" transform="scale(2.48789 2.48789)" d="M887.199 584.717C892.518 586.51 903.876 589.764 907.925 592.746L906.551 594.247C902.182 590.557 890.609 588.486 884.978 587.328L887.199 584.717Z"/><path fill="#DC9C9D" transform="scale(2.48789 2.48789)" d="M873.017 697.327C875.46 682.831 893.18 676.999 900.301 695.604C896.11 701.458 878.898 699.972 873.017 697.327Z"/><path fill="#DBB4B5" transform="scale(2.48789 2.48789)" d="M888.889 577.428C892.329 578.236 902.504 580.86 905.493 581.144C908.81 581.992 911.983 582.813 915.346 583.492L916.842 590.701C914.434 591.57 910.894 593.075 908.488 593.116L907.925 592.746C903.876 589.764 892.518 586.51 887.199 584.717C888.027 583.386 888.496 579.342 888.889 577.428Z"/><path fill="#DC9C9D" transform="scale(2.48789 2.48789)" d="M932.998 598.83C932.578 599.863 932.488 599.78 931.517 600.385C925.817 600.135 916.038 588.923 919.061 584.458L921.635 584.507C929.967 588.542 931.11 589.557 932.998 598.83Z"/><defs><linearGradient id="gradient_2" gradientUnits="userSpaceOnUse" x1="891.76862" y1="613.14508" x2="882.85809" y2="593.20886"><stop offset="0" stop-color="#D18786"/><stop offset="1" stop-color="#DBA6A4"/></linearGradient></defs><path fill="url(#gradient_2)" transform="scale(2.48789 2.48789)" d="M882.056 593.396C902.155 592.699 904.843 604.418 890.42 616.025C881.516 617.136 870.466 606.205 874.226 597.186C875.329 594.54 879.513 593.986 882.056 593.396Z"/><path fill="#A68874" transform="scale(2.48789 2.48789)" d="M937.408 668.078C937.448 667.238 937.611 661.556 938.429 661.506C953.616 660.59 961.08 655.614 973.267 646.636C975.123 647.431 976.994 648.189 978.88 648.911L979.457 652.691L979.551 653.228C980 655.703 982.689 662.513 982.722 663.975C982.905 672.077 976.579 688.753 972.082 695.01C965.698 693.004 952.494 706.811 928.614 690.892C937.836 686.077 937.306 677.22 937.408 668.078Z"/><path fill="#F7EFDC" transform="scale(2.48789 2.48789)" d="M834.393 539.32C850.373 531.198 865.641 538.136 876.272 551.11L874.882 554.117C868.533 563.172 869.198 563.424 858.774 567.911C857.303 564.269 857.318 560.755 855.36 557.526L854.538 557.638C853.913 559.175 853.979 565.02 853.96 566.852C851.552 570.569 841.835 566.132 841.375 563.724C840.849 560.973 841.234 556.481 840.689 553.152L839.942 553.367C838.02 557.008 837.862 558.843 837.198 562.824C831.972 553.664 832.286 549.26 834.393 539.32Z"/><path fill="#F7EFDC" transform="scale(2.48789 2.48789)" d="M928.614 690.892C952.494 706.811 965.698 693.004 972.082 695.01C970.378 697.999 966.193 703.851 965.066 706.429C961.836 709.757 957.353 712.148 952.42 712.641C942.782 713.605 920.034 718.481 915.454 706.752C914.043 703.137 916.887 698.457 918.564 695.214C921.783 693.965 925.408 692.284 928.614 690.892Z"/><path fill="#5A2D2C" transform="scale(2.48789 2.48789)" d="M876.269 560.84L877.883 559.821C880.687 561.118 881.266 564.06 882.376 567.06L882.785 568.177C883.043 569.483 883.806 573.803 884.166 574.824L885.478 574.328C886.47 576.316 886.056 576.291 887.645 577.157L888.889 577.428C888.496 579.342 888.027 583.386 887.199 584.717L884.978 587.328C880.02 588.71 880.103 588.61 875.51 586.761C864.234 582.22 845.53 576.951 833.587 576.128C831.616 577.635 830.748 578.337 828.312 579.013C834.148 573.001 831.525 570.293 834.696 567.597C834.858 567.571 836.429 567.327 836.429 567.327C842.735 571.368 847.494 572.883 855.012 572.677L859.482 572.008C860.222 571.593 860.284 571.897 860.701 571.709C865.003 569.767 872.13 563.755 874.946 560.28L876.269 560.84Z"/><path fill="#402926" transform="scale(2.48789 2.48789)" d="M876.269 560.84L877.883 559.821C880.687 561.118 881.266 564.06 882.376 567.06L882.785 568.177C879.6 569.637 876.827 570.896 873.536 572.145L874.326 576.611C872.5 579.451 872.798 578.189 871.331 579.887L869.598 573.97C866.431 573.218 862.72 572.616 859.482 572.008C860.222 571.593 860.284 571.897 860.701 571.709C865.003 569.767 872.13 563.755 874.946 560.28L876.269 560.84Z"/><path fill="#DBB4B5" transform="scale(2.48789 2.48789)" d="M876.269 560.84L877.883 559.821C880.687 561.118 881.266 564.06 882.376 567.06L882.785 568.177C879.6 569.637 876.827 570.896 873.536 572.145L871.348 566.305C873.527 564.238 874.409 563.209 876.269 560.84Z"/><path fill="#DC9C9D" transform="scale(2.48789 2.48789)" d="M882.785 568.177C883.043 569.483 883.806 573.803 884.166 574.824C884.46 578.695 885.232 583.696 879.913 584.45C875.335 583.39 875.106 580.657 874.326 576.611L873.536 572.145C876.827 570.896 879.6 569.637 882.785 568.177Z"/><path fill="#F3DAD4" transform="scale(2.48789 2.48789)" d="M859.482 572.008C862.72 572.616 866.431 573.218 869.598 573.97L871.331 579.887L870.941 580.482C868.221 581.881 855.07 578.193 851.166 577.271C851.822 575.298 853.434 574.147 855.012 572.677L859.482 572.008Z"/><path fill="#DBB4B5" transform="scale(2.48789 2.48789)" d="M834.696 567.597C834.858 567.571 836.429 567.327 836.429 567.327C842.735 571.368 847.494 572.883 855.012 572.677C853.434 574.147 851.822 575.298 851.166 577.271C847.503 576.793 837.419 574.17 833.338 573.234C833.94 571.278 834.28 569.584 834.696 567.597Z"/><path fill="#DBB4B5" transform="scale(2.48789 2.48789)" d="M913.207 681.032C916.347 681.209 919.751 681.215 922.28 683.219L922.794 684.519L922.248 688.548C919.45 689.692 915.132 691.293 912.525 692.551C912.333 690.159 912.998 683.714 913.207 681.032Z"/><path fill="#5A2D2C" transform="scale(2.48789 2.48789)" d="M931.949 670.335C932.363 671.191 933.03 672.436 932.877 673.385L931.893 673.161C928.239 676.063 925.721 683.421 924.631 687.916L922.248 688.548L922.794 684.519C923.329 682.322 924.027 680.168 924.884 678.075C926.306 674.617 928.425 671.801 931.949 670.335Z"/><path fill="#DC9C9D" transform="scale(2.48789 2.48789)" d="M924.631 687.916C925.721 683.421 928.239 676.063 931.893 673.161L932.877 673.385C932.219 680.871 932.216 684.357 924.631 687.916Z"/><path fill="#DC9C9D" transform="scale(2.48789 2.48789)" d="M789.317 573.994C790.857 573.747 790.115 573.687 791.618 574.238L791.552 575.703C787.657 582.253 783.962 587.987 776.908 591.011C776.03 590.985 775.839 590.824 774.963 590.525C773.602 587.685 774.349 583.931 776.022 581.281C779.558 575.678 783.338 575.236 789.317 573.994Z"/><path fill="#DBB4B5" transform="scale(2.48789 2.48789)" d="M828.034 554.748C828.515 555.099 831.899 562.014 832.797 563.543C831.626 567.743 830.771 573.1 827.363 575.565C816.731 572.003 823.618 560.714 828.034 554.748Z"/><path fill="#DC9C9D" transform="scale(2.48789 2.48789)" d="M775.107 654.642C781.549 657.975 784.886 666.071 786.101 672.805C775.889 668.88 775.441 664.559 775.107 654.642Z"/><path fill="#DBB4B5" transform="scale(2.48789 2.48789)" d="M817.83 567.181C818.914 568.303 818.598 567.633 818.651 569.322C816.855 570.578 816.026 570.314 813.803 570.224L812.343 569.568L812.659 568.707L817.83 567.181Z"/><path fill="#A68874" transform="scale(2.48789 2.48789)" d="M852.502 504.042C863.964 526.033 892.655 510.722 905.545 498.069C909.921 493.774 912.925 488.759 916.178 483.609C916.982 489.962 917.668 495.899 919.046 502.175C916.532 500.653 913.894 498.993 911.337 497.582C912.813 506.293 912.573 509.532 911.521 518.376C909.065 515.975 906.429 513.281 903.922 510.979C899.338 525.669 895.623 530.878 884.793 542.016C882.859 544.005 877.845 549.022 876.272 551.11C865.641 538.136 850.373 531.198 834.393 539.32L836.875 532.585C835.777 530.558 835.478 530.42 833.416 529.346C834.462 527.01 835.932 524.304 837.112 521.985C841.706 514.594 845.492 508.408 849.564 500.693C850.54 498.603 851.806 496.333 852.9 494.269C853.204 497.572 851.014 500.271 850.052 503.356L850.565 503.814C853.058 501.501 853.653 500.044 855.265 497.005L856.063 497.109C854.862 500.309 854.554 501.364 852.502 504.042Z"/><path fill="#402926" transform="scale(2.48789 2.48789)" d="M852.9 494.269C853.204 497.572 851.014 500.271 850.052 503.356L850.565 503.814C853.058 501.501 853.653 500.044 855.265 497.005L856.063 497.109C854.862 500.309 854.554 501.364 852.502 504.042C847.251 513.432 841.747 523.024 836.875 532.585C835.777 530.558 835.478 530.42 833.416 529.346C834.462 527.01 835.932 524.304 837.112 521.985C841.706 514.594 845.492 508.408 849.564 500.693C850.54 498.603 851.806 496.333 852.9 494.269Z"/><path fill="#402926" transform="scale(2.48789 2.48789)" d="M916.178 483.609L917.144 480.056L917.927 479.64C919.745 482.828 923.066 501.243 923.025 505.203L922.216 506.757C918.807 507.497 916.862 503.833 916.214 505.767C914.793 510.012 916.492 519.229 912.935 522.314C909.323 522.908 908.214 520.968 905.812 518.451C904.149 522.68 902.487 527.428 899.551 530.906C896.379 535.629 893.794 538.547 890.022 542.852C890.24 550.361 890.995 569.531 895.772 575.317C899.735 575.261 905.737 576.605 909.506 577.798C912.064 579.85 921.895 581.999 925.831 583.113L925.361 584.071C923.767 584.446 923.691 584.369 922.096 583.79C920.175 582.715 907.825 580.103 905.493 581.144C902.504 580.86 892.329 578.236 888.889 577.428L887.645 577.157C887.067 575.852 887.124 575.628 887.101 574.252L888.254 573.125C886.941 568.769 884.328 560.594 881.252 557.441L879.64 554.252L879.201 554.736C876.767 555.262 877.497 555.119 874.882 554.117L876.272 551.11C877.845 549.022 882.859 544.005 884.793 542.016C895.623 530.878 899.338 525.669 903.922 510.979C906.429 513.281 909.065 515.975 911.521 518.376C912.573 509.532 912.813 506.293 911.337 497.582C913.894 498.993 916.532 500.653 919.046 502.175C917.668 495.899 916.982 489.962 916.178 483.609Z"/><path fill="#756374" transform="scale(2.48789 2.48789)" d="M879.64 554.252C881.642 551.876 883.867 549.093 885.92 546.818C885.929 552.093 889.333 570.621 888.893 572.561L888.254 573.125C886.941 568.769 884.328 560.594 881.252 557.441L879.64 554.252Z"/><path fill="#F7EFDC" transform="scale(2.48789 2.48789)" d="M899.551 530.906C899.825 538.088 899.153 547.347 897.196 554.278L904.566 549.244C903.293 553.613 898.161 573.23 895.772 575.317C890.995 569.531 890.24 550.361 890.022 542.852C893.794 538.547 896.379 535.629 899.551 530.906Z"/><path fill="#A78C82" transform="scale(2.48789 2.48789)" d="M973.267 646.636C975.346 645.129 976.4 643.764 978.553 643.736C979.484 645.421 979.071 646.91 978.88 648.911C976.994 648.189 975.123 647.431 973.267 646.636Z"/><path fill="#F7EFDC" transform="scale(2.48789 2.48789)" d="M1226.84 283.318C1253.54 229.213 1318.46 199.873 1376 220.862L1376 377.58L1376 404.544L1376 429.891L1376 466.158C1319.31 465.958 1260.58 465.73 1203.95 466.449L1203.87 465.49C1193.67 465.705 1183.46 465.702 1173.26 465.483L1173.14 466.408C1170.75 466.448 1165.05 466.655 1163 466.309C1158.83 465.605 1153.09 463.387 1148.85 463.715L1147.89 465.945C1145.75 466.798 1135.23 466.53 1132.19 466.557C1125.45 466.83 1106.11 467.814 1099.99 466.603C1101.07 464.576 1100.41 435.331 1100.36 430.541C1097.29 430.317 1096.03 430.22 1094.11 428.151C1095.54 418.869 1095.32 414.933 1094.4 405.516C1096.74 410.885 1098.12 421.06 1101.29 423.858C1103.32 423.878 1102.91 423.662 1104.73 421.954C1105.81 418.952 1109.97 411.801 1111.93 406.854C1115.11 398.285 1114.96 387.257 1114.34 378.303C1111.55 361.495 1107.29 352.952 1097.01 339.744C1102.85 340.263 1119.88 339.355 1123.35 333.654C1122.94 327.624 1112.17 327.193 1106.39 320.355C1100.42 313.292 1098.23 310.362 1094.64 301.602L1095.32 300.956C1097.8 300.174 1103.29 300.551 1106.02 300.642C1124.76 301.263 1144.42 305.574 1161.3 313.887C1173.45 288.687 1200.02 278.087 1226.84 283.318Z"/><defs><linearGradient id="gradient_3" gradientUnits="userSpaceOnUse" x1="1245.4316" y1="481.18115" x2="1230.0233" y2="364.4845"><stop offset="0" stop-color="#AC9FB5"/><stop offset="1" stop-color="#D8BBBF"/></linearGradient></defs><path fill="url(#gradient_3)" transform="scale(2.48789 2.48789)" d="M1114.34 378.303C1120.12 379.19 1130.15 378.378 1136.14 378.023C1148.93 377.264 1149.13 382.499 1148.98 392.978C1151.73 393.217 1154.92 393.574 1157.63 393.661C1157.53 383.108 1156.4 378.264 1168.99 378.017C1193.3 377.539 1217.63 377.66 1241.95 377.629L1376 377.58L1376 404.544L1376 429.891L1376 466.158C1319.31 465.958 1260.58 465.73 1203.95 466.449L1203.87 465.49C1193.67 465.705 1183.46 465.702 1173.26 465.483L1173.14 466.408C1170.75 466.448 1165.05 466.655 1163 466.309C1158.83 465.605 1153.09 463.387 1148.85 463.715L1147.89 465.945C1145.75 466.798 1135.23 466.53 1132.19 466.557C1125.45 466.83 1106.11 467.814 1099.99 466.603C1101.07 464.576 1100.41 435.331 1100.36 430.541C1097.29 430.317 1096.03 430.22 1094.11 428.151C1095.54 418.869 1095.32 414.933 1094.4 405.516C1096.74 410.885 1098.12 421.06 1101.29 423.858C1103.32 423.878 1102.91 423.662 1104.73 421.954C1105.81 418.952 1109.97 411.801 1111.93 406.854C1115.11 398.285 1114.96 387.257 1114.34 378.303Z"/><path fill="#DBB4B5" transform="scale(2.48789 2.48789)" d="M1173.52 401.575L1203.94 401.056L1204.09 442.65C1204.1 448.781 1204.4 459.746 1203.87 465.49C1193.67 465.705 1183.46 465.702 1173.26 465.483C1172.55 449.964 1172.53 417.173 1173.52 401.575Z"/><path fill="#F3DAD4" transform="scale(2.48789 2.48789)" d="M1179.93 406.786C1186.7 406.664 1192.45 406.765 1199.22 407.058C1199.87 413.106 1199.73 424.835 1199.22 431.055C1199.08 432.692 1198.46 432.854 1197.37 433.568C1190.94 433.552 1184.41 433.405 1177.97 433.317C1177.45 426.547 1176.94 416.427 1177.6 409.507C1177.76 407.861 1178.79 407.462 1179.93 406.786Z"/><path fill="#F3DAD4" transform="scale(2.48789 2.48789)" d="M1350.53 404.536C1358.74 404.345 1367.73 404.53 1376 404.544L1376 429.891C1368.9 429.939 1357.24 430.348 1350.54 429.527L1350.53 404.536Z"/><path fill="#F3DAD4" transform="scale(2.48789 2.48789)" d="M1111.93 406.854L1127.44 406.957C1127.53 412.047 1128.52 428.498 1126.77 432.673C1125.92 434.692 1108.48 435.229 1105.48 431.691C1104.8 428.595 1104.97 426.535 1105.04 423.359L1104.73 421.954C1105.81 418.952 1109.97 411.801 1111.93 406.854Z"/><path fill="#C7B0BC" transform="scale(2.48789 2.48789)" d="M1094.11 428.151C1095.54 418.869 1095.32 414.933 1094.4 405.516C1096.74 410.885 1098.12 421.06 1101.29 423.858C1103.32 423.878 1102.91 423.662 1104.73 421.954L1105.04 423.359C1103.79 424.41 1101.15 426.014 1101.37 427.626C1102.87 438.808 1100.45 453.735 1102.32 464.445C1107.07 465.372 1124.89 464.991 1130.85 464.966C1130.78 460.635 1131.16 418.051 1131.39 417.683C1132.26 434.475 1132.03 449.824 1132.19 466.557C1125.45 466.83 1106.11 467.814 1099.99 466.603C1101.07 464.576 1100.41 435.331 1100.36 430.541C1097.29 430.317 1096.03 430.22 1094.11 428.151Z"/><path fill="#F3DAD4" transform="scale(2.48789 2.48789)" d="M1317.83 404.686C1326.52 404.417 1336.28 404.618 1345.05 404.616C1345.14 411.408 1345.6 423.539 1344.78 429.906C1336.72 429.839 1325.27 430.476 1317.54 429.592C1317.49 425.359 1317 407.691 1317.83 404.686Z"/><path fill="#F3DAD4" transform="scale(2.48789 2.48789)" d="M1297.19 404.805C1301.59 404.654 1307 404.839 1311.48 404.876C1311.61 413.133 1311.52 421.657 1311.54 429.936L1300.05 430.008L1283.89 429.966C1283.69 421.397 1283.44 413.639 1283.94 405.064L1297.19 404.805Z"/><path fill="#F3DAD4" transform="scale(2.48789 2.48789)" d="M1250.32 405.122C1259.45 405.009 1268.57 404.973 1277.69 405.016C1278.07 413.665 1278 421.342 1277.87 429.982C1269 430.243 1259.24 430.049 1250.3 430.022C1250.17 421.881 1250.31 413.297 1250.32 405.122Z"/><path fill="#F3DAD4" transform="scale(2.48789 2.48789)" d="M1216.83 405.202C1225.88 405.13 1234.93 405.128 1243.98 405.198C1244.53 413.119 1244.31 422.042 1244.28 430.054C1235.12 430.19 1225.97 430.164 1216.81 429.976C1216.67 421.838 1216.81 413.368 1216.83 405.202Z"/><path fill="#DBB4B5" transform="scale(2.48789 2.48789)" d="M1132.19 466.557C1135.23 466.53 1145.75 466.798 1147.89 465.945L1148.85 463.715C1153.09 463.387 1158.83 465.605 1163 466.309C1165.05 466.655 1170.75 466.448 1173.14 466.408L1173.26 465.483C1183.46 465.702 1193.67 465.705 1203.87 465.49L1203.95 466.449C1260.58 465.73 1319.31 465.958 1376 466.158L1376 530.832L1376 566.923L1249.26 556.13C1229.87 554.55 1198.4 552.92 1179.77 550.15C1173.18 502.168 1156.66 527.695 1137.53 550.718C1137.58 546.436 1138.58 537.763 1133 537.354C1129.21 538.93 1126.99 542.734 1124.43 546.11C1120.54 545.289 1109.66 544.646 1105.15 544.277C1092.74 543.288 1080.33 542.234 1067.93 541.115C1065.5 531.975 1060.99 521.493 1057.4 512.625C1052.66 500.309 1050.59 494.291 1047.55 481.551C1052.6 475.827 1055.73 472.737 1060.2 466.395L1064.03 466.724L1065.38 468.146C1067.31 468.06 1067.56 467.661 1069.2 466.436C1078.27 466.446 1091.24 466.065 1099.99 466.603C1106.11 467.814 1125.45 466.83 1132.19 466.557Z"/><path fill="#948191" transform="scale(2.48789 2.48789)" d="M1057.4 512.625C1149.23 516.538 1241.31 523.501 1333.14 528.23C1347.37 528.963 1361.8 529.761 1376 530.832L1376 566.923L1249.26 556.13C1229.87 554.55 1198.4 552.92 1179.77 550.15C1173.18 502.168 1156.66 527.695 1137.53 550.718C1137.58 546.436 1138.58 537.763 1133 537.354C1129.21 538.93 1126.99 542.734 1124.43 546.11C1120.54 545.289 1109.66 544.646 1105.15 544.277C1092.74 543.288 1080.33 542.234 1067.93 541.115C1065.5 531.975 1060.99 521.493 1057.4 512.625Z"/><path fill="#C7B0BC" transform="scale(2.48789 2.48789)" d="M1173.26 465.483C1183.46 465.702 1193.67 465.705 1203.87 465.49L1203.95 466.449C1193.71 466.786 1183.39 466.544 1173.14 466.408L1173.26 465.483Z"/><defs><linearGradient id="gradient_4" gradientUnits="userSpaceOnUse" x1="822.15936" y1="466.36475" x2="816.20685" y2="379.6669"><stop offset="0" stop-color="#AEA1B5"/><stop offset="1" stop-color="#DDBEC2"/></linearGradient></defs><path fill="url(#gradient_4)" transform="scale(2.48789 2.48789)" d="M807.435 378.753C823.311 392.705 838.505 395.268 858.907 398.08C869.667 399.563 862.525 406.232 859.315 410.804C855.176 416.7 841.054 415.741 839.14 420.181C840.536 425.236 847.633 429.08 852.073 431.23C842.461 443.177 842.019 448.628 842.407 463.626C842.405 464.218 842.422 464.75 842.529 465.333L839.508 466.447C834.383 466.779 824.517 466.434 818.909 466.423L778.345 466.456C777.029 463.646 776.031 460.65 774.991 457.722C776.607 448.057 783.493 431.216 786.873 421.533C790.693 410.593 794.168 398.03 799.27 387.831C801.326 383.72 803.999 381.631 807.435 378.753Z"/><path fill="#F7EFDC" transform="scale(2.48789 2.48789)" d="M1110.37 606.314C1148.74 600.682 1167.9 580.466 1174.09 542.729C1180.89 572.65 1168.77 593.215 1144.66 609.621C1147.56 611.335 1160.51 609.119 1164.66 608.671C1150.92 624.945 1138.47 635.501 1116.18 637.432C1101.56 638.579 1086.93 635.386 1074.12 628.253C1069.93 625.92 1066.48 623.206 1062.67 620.955C1064.19 628.869 1066.75 633.077 1070.53 640.246C1041.91 631.349 1025.58 610.262 1017.85 581.935C1017.77 578.413 1018.11 574.23 1018.31 570.663C1027.37 590.401 1032.9 599.922 1051.5 611.794C1049.33 605.78 1048.73 601.971 1047.6 595.699C1070.69 618.16 1099.51 627.641 1129.99 614.333C1121.93 611.952 1117.73 610.304 1110.37 606.314Z"/><path fill="#A68874" transform="scale(2.48789 2.48789)" d="M1006.86 662.8C1013.35 662 1017.7 661.643 1023.25 657.76C1034.62 649.804 1036.94 636.261 1052.98 643.571C1053.82 645.492 1055.97 650.417 1056.34 652.227C1058.15 661.053 1053.87 675.086 1051.35 683.958C1048.25 684.434 1045.61 685.434 1042.57 685.893C1026.03 688.396 1018.81 685.794 1005.03 677.997C1005.86 675.649 1006.17 673.862 1006.65 671.431C1007.34 667.817 1007.15 666.514 1006.86 662.8Z"/><path fill="#756374" transform="scale(2.48789 2.48789)" d="M1067.93 541.115C1080.33 542.234 1092.74 543.288 1105.15 544.277C1109.66 544.646 1120.54 545.289 1124.43 546.11C1108.49 563.877 1091.51 565.329 1069.72 560.095C1069.8 552.245 1069.2 548.784 1067.93 541.115Z"/><path fill="#F7EFDC" transform="scale(2.48789 2.48789)" d="M1005.03 677.997C1018.81 685.794 1026.03 688.396 1042.57 685.893C1045.61 685.434 1048.25 684.434 1051.35 683.958C1047.68 694.345 1045.15 700.458 1032.77 701.893C1023.46 702.972 1000.28 706.112 997.762 693.46C996.711 688.177 1002.03 681.928 1005.03 677.997Z"/><path fill="#BAA7B6" transform="scale(2.48789 2.48789)" d="M1069.2 466.436C1082.63 455.874 1089.63 444.296 1094.11 428.151C1096.03 430.22 1097.29 430.317 1100.36 430.541C1100.41 435.331 1101.07 464.576 1099.99 466.603C1091.24 466.065 1078.27 466.446 1069.2 466.436Z"/><path fill="#DBB4B5" transform="scale(2.48789 2.48789)" d="M994.244 645.537C1001.46 655.865 1006.67 669.903 997.289 680.763C991.669 680.911 989.331 680.68 983.92 679.751C985.32 675.912 986.924 671.049 986.832 666.962L986.818 666.472C986.653 659.143 983.462 653.684 983.328 645.256C986.605 645.701 990.945 646.206 994.244 645.537Z"/><path fill="#F3DAD4" transform="scale(2.48789 2.48789)" d="M988.513 632.174C990.256 636.596 991.987 641.382 994.244 645.537C990.945 646.206 986.605 645.701 983.328 645.256C984.516 639.726 985.577 637.04 988.513 632.174Z"/><path fill="#BAA7B6" transform="scale(2.48789 2.48789)" d="M853.214 459.309L853.02 466.623C852 466.405 843.298 466.903 839.508 466.447L842.529 465.333C842.422 464.75 842.405 464.218 842.407 463.626C847.748 465.244 849.318 462.735 853.214 459.309Z"/><path fill="#F3DAD4" transform="scale(2.48789 2.48789)" d="M1055.78 638.901C1061.9 641.755 1065.15 643.101 1072.05 643.939C1067.33 645.156 1061.17 644.377 1059 646.53L1055.78 638.901Z"/><path fill="#DBB4B5" transform="scale(2.48789 2.48789)" d="M1065.89 455.401C1065.44 458.331 1064.74 464.064 1064.03 466.724L1060.2 466.395C1062.09 462.774 1064.1 459.06 1065.89 455.401Z"/><path fill="#564B46" transform="scale(2.48789 2.48789)" d="M886.32 202.923C887.106 187.033 890.62 129.987 901.982 120.16C903.144 119.155 904.059 118.951 905.55 119.138C914.649 120.276 942.587 161.799 948.777 170.519C957.009 182.113 965.021 195.445 970.44 208.578C972.036 212.445 974.507 224.735 977.896 226.645C978.77 225.893 979.359 225.4 979.212 223.807C977.755 207.965 967.818 192.656 959.854 179.24C957.502 175.278 953.576 170.226 951.942 167.012C967.001 172.276 973.718 176.844 984.722 188.098C979.391 170.867 972.677 163.533 963.826 149.202C989.01 155.934 1004.51 168.567 1002.15 196.674C1008.97 198.587 1016.08 200.235 1022.61 203.004C1042.36 211.374 1060.38 226.164 1071.18 244.783C1086.02 270.384 1082.49 303.861 1105.07 325.149C1107.38 327.322 1115.64 331.825 1116.32 333.09C1110.84 340.923 1089.52 332.378 1083.29 328.454C1086.21 333.156 1089.55 337.006 1093.09 341.252C1112.65 364.729 1115.39 390.229 1102.67 417.212C1099.05 404.029 1094.37 393.084 1082.66 384.841C1096.63 415.402 1093.41 436.906 1069.7 461.216C1070.34 448.296 1069.96 440.254 1068.46 427.458L1068.23 428.134C1066.49 433.54 1066.56 438.978 1065.02 444.393C1058.52 467.139 1047.69 476.29 1029.61 489.406C1035.13 479.159 1039.31 463.79 1039.87 452.127L1039.55 452.75C1037.46 456.837 1036.08 461.609 1034.13 465.96C1026.6 482.781 1017.12 490.898 1001.35 499.724C992.186 481.214 979.092 477.954 965.637 463.875C961.136 459.164 959.579 453.89 956.661 448.646C956.528 459.09 957.896 467.291 960.839 477.373C935.93 464.234 917.97 450.292 925.86 418.498C913.716 429.76 906.931 434.518 889.551 431.015C901.365 423.968 908.664 415.909 912.16 402.064C912.641 400.143 913.1 398.215 913.538 396.283C908.535 406.001 906.39 410.872 898.962 419.203C894.078 424.682 883.376 427.969 882.692 431.465C885.197 434.337 887.64 432.956 887.694 435.025C880.379 442.99 874.499 449.393 869.276 459.071C868.114 463.022 862.203 473.988 860.265 478.167C855.968 467.286 856.631 462.227 859.342 451.3C854.376 453.81 850.707 456.236 846.325 459.606C846.511 443.312 850.348 438.802 861.674 427.709C852.966 427.331 851.282 427.006 844.584 421.686C856.009 418.912 864.933 415.077 868.353 403.053C869.018 400.716 869.079 399.27 867.832 397.125C864.209 393.5 844.04 391.439 837.988 389.675C812.903 382.367 791.224 365.747 798.97 336.852C804.471 322.852 809.421 321.285 821.953 315.695C835.545 309.632 833.015 295.23 834.728 282.878C835.841 274.856 836.907 270.915 839.441 262.913C837.147 283.229 840.759 292.72 849.684 310.911C860.354 328.32 865.05 337.345 860.144 358.32C870.113 353.622 878.261 348.398 885.868 340.254C892.028 333.254 896.018 326.376 899.517 317.819C901.348 310.893 902.875 305.068 901.854 297.769C907.019 299.164 918.012 301.958 922.86 299.808C924.979 297.955 925.587 295.676 925.61 292.917C925.694 282.748 925.393 274.862 919.241 266.466C926.235 264.127 931.541 262.729 935.533 255.93C938.043 251.654 945 241.166 943.883 236.321C941.393 232.159 937.242 230.588 932.67 229.571C922.761 227.367 918.602 227.006 909.683 231.259C909.82 229.247 910.144 225.31 909.859 223.433C908.53 214.709 899.916 204.18 893.447 198.347L886.32 202.923Z"/><path fill="#F7EFDC" transform="scale(2.48789 2.48789)" d="M839.441 262.913C837.147 283.229 840.759 292.72 849.684 310.911C860.354 328.32 865.05 337.345 860.144 358.32C870.113 353.622 878.261 348.398 885.868 340.254C892.451 346.3 894.477 348.842 897.362 357.64C892.952 356.506 888.128 355.363 883.816 354.041C891.971 364.144 895.886 372.344 894.5 385.828C894.435 386.471 894.345 387.11 894.231 387.745C887.296 389.19 885.124 390.268 879.204 394.097C882.967 393.507 887.102 392.938 890.817 392.252C888.275 403.709 875.155 410.61 867.444 420.691C871.545 420.634 875.762 420.648 879.841 420.311C870.373 431.873 864.094 443.841 869.276 459.071C868.114 463.022 862.203 473.988 860.265 478.167C855.968 467.286 856.631 462.227 859.342 451.3C854.376 453.81 850.707 456.236 846.325 459.606C846.511 443.312 850.348 438.802 861.674 427.709C852.966 427.331 851.282 427.006 844.584 421.686C856.009 418.912 864.933 415.077 868.353 403.053C869.018 400.716 869.079 399.27 867.832 397.125C864.209 393.5 844.04 391.439 837.988 389.675C812.903 382.367 791.224 365.747 798.97 336.852C804.471 322.852 809.421 321.285 821.953 315.695C835.545 309.632 833.015 295.23 834.728 282.878C835.841 274.856 836.907 270.915 839.441 262.913Z"/><path fill="#A68874" transform="scale(2.48789 2.48789)" d="M839.441 262.913C837.147 283.229 840.759 292.72 849.684 310.911C848.78 317.047 847.122 320.699 841.815 324.45C832.399 331.106 810.462 335.99 798.97 336.852C804.471 322.852 809.421 321.285 821.953 315.695C835.545 309.632 833.015 295.23 834.728 282.878C835.841 274.856 836.907 270.915 839.441 262.913Z"/><path fill="#A68874" transform="scale(2.48789 2.48789)" d="M899.517 317.819C902.114 319.32 908.05 322.376 909.671 324.5L909.683 325.97C924.673 336.842 929.446 341.867 936.261 359.772C924.86 358.514 921.332 358.338 910.496 354.535C917.383 368.147 920.657 374.436 919.323 390.24C909.62 387.593 904.383 386.43 894.231 387.745C894.345 387.11 894.435 386.471 894.5 385.828C895.886 372.344 891.971 364.144 883.816 354.041C888.128 355.363 892.952 356.506 897.362 357.64C894.477 348.842 892.451 346.3 885.868 340.254C892.028 333.254 896.018 326.376 899.517 317.819Z"/><path fill="#402926" transform="scale(2.48789 2.48789)" d="M925.858 317.654C920.307 316.59 909.388 314.549 906.399 309.525L906.932 308.728C910.209 309.565 928.114 314.385 929.651 315.294C932.511 320.123 921.258 324.463 917.508 326.158L917.062 326.358C924.273 331.581 944.472 355.142 939.906 363.282C936.478 365.281 922.958 362.311 918.214 361.55C920.841 367.917 927.871 389.475 920.883 394.456C917.826 395.432 900.097 388.658 890.817 392.252C887.102 392.938 882.967 393.507 879.204 394.097C885.124 390.268 887.296 389.19 894.231 387.745C904.383 386.43 909.62 387.593 919.323 390.24C920.657 374.436 917.383 368.147 910.496 354.535C921.332 358.338 924.86 358.514 936.261 359.772C929.446 341.867 924.673 336.842 909.683 325.97L909.671 324.5C916.804 323.561 919.882 321.294 925.858 317.654Z"/><path fill="#564B46" transform="scale(2.48789 2.48789)" d="M882.599 167.624L883.536 167.546C884.438 168.944 884.331 168.818 884.222 170.785C883.948 175.725 883.019 180.473 882.665 185.458C882.166 192.495 882.826 200.54 881.478 207.374C880.916 210.221 875.577 216.991 874.812 219.827C874.377 221.444 874.023 228.001 873.852 230.087C865.57 225.793 856.586 227.213 848.017 230.114C838.751 233.25 844.09 241.533 846.718 247.485C833.492 266.914 826.445 268.132 816.806 290.923C806.292 271.719 803.29 262.152 814.331 241.449C826.431 225.171 830.776 222.593 848.112 211.942C835.542 214.965 828.282 222.038 815.985 222.306C805.327 222.63 794.986 218.654 787.291 211.273C791.436 210.708 797.921 209.873 801.688 208.435C833.856 196.158 846.119 171.33 882.599 167.624Z"/><path fill="#564B46" transform="scale(2.48789 2.48789)" d="M1026.31 123.325C1040.54 128.092 1060.48 188.043 1063.98 202.627C1066.24 212.064 1067.46 221.721 1067.61 231.424C1063.61 227.116 1059.02 221.903 1054.56 218.221C1040.97 205.696 1024.79 198.086 1007.02 193.751C1007.09 182.842 1005.64 178.039 1001.18 168.334C1004.67 155.007 1015.92 132.198 1026.31 123.325Z"/><path fill="#92B6E0" transform="scale(2.48789 2.48789)" d="M892.663 202.298C897.932 207.452 906.588 216.897 906.874 224.544C907.203 233.367 899.652 240.649 897.722 247.907L898.364 248.675L900.341 251.267C900.533 252.478 900.804 254.65 901.079 255.755L900.317 258.523L900.285 260.161C899.804 262.004 899.28 263.394 899.443 265.282C898.326 265.81 897.442 266.347 896.22 266.458L891.504 265.983L890.531 266.077C888.718 266.356 886.923 266.222 885.083 266.169C884.139 265.517 883.43 264.254 882.773 263.272C882.742 261.924 882.282 261.282 881.679 260.084L881.17 256.5C881.652 255.808 882.548 252.306 882.848 251.263L884.246 248.526L885.652 248.178C874.324 225.828 873.141 220.282 892.663 202.298Z"/><path fill="#F7EFDC" transform="scale(2.48789 2.48789)" d="M890.611 233.621C892.028 239.88 891.138 246.082 897.722 247.907L898.364 248.675L900.341 251.267C900.533 252.478 900.804 254.65 901.079 255.755L900.317 258.523L900.285 260.161C899.804 262.004 899.28 263.394 899.443 265.282C898.326 265.81 897.442 266.347 896.22 266.458L891.504 265.983L890.531 266.077C888.718 266.356 886.923 266.222 885.083 266.169C884.139 265.517 883.43 264.254 882.773 263.272C882.742 261.924 882.282 261.282 881.679 260.084L881.17 256.5C881.652 255.808 882.548 252.306 882.848 251.263L884.246 248.526L885.652 248.178C889.687 245.475 889.507 238.678 890.611 233.621Z"/><path fill="#564B46" transform="scale(2.48789 2.48789)" d="M889.878 251.708C892.265 250.976 894.795 252.309 895.542 254.691C896.289 257.074 894.973 259.612 892.596 260.375C890.196 261.144 887.63 259.813 886.876 257.409C886.122 255.005 887.469 252.446 889.878 251.708Z"/><path fill="#92B6E0" transform="scale(2.48789 2.48789)" d="M898.364 248.675C912.463 229.596 919.229 226.559 941.112 237.276C931.083 260.269 926.872 267.859 900.317 258.523L901.079 255.755C900.804 254.65 900.533 252.478 900.341 251.267L898.364 248.675Z"/><path fill="#E2E4E5" transform="scale(2.48789 2.48789)" d="M900.341 251.267C903.266 250.539 906.767 249.396 909.677 249.798L910.204 250.603C908.203 253.12 904.094 254.49 901.079 255.755C900.804 254.65 900.533 252.478 900.341 251.267Z"/><path fill="#92B6E0" transform="scale(2.48789 2.48789)" d="M900.285 260.161C921.963 270.099 923.306 273.668 921.679 297.466C894.528 295.641 890.968 292.895 891.504 265.983L896.22 266.458C897.442 266.347 898.326 265.81 899.443 265.282C899.28 263.394 899.804 262.004 900.285 260.161Z"/><path fill="#E2E4E5" transform="scale(2.48789 2.48789)" d="M899.443 265.282C901.085 267.683 901.339 268.066 902.164 270.869L901.812 272.351C898.749 272.382 897.575 268.94 896.22 266.458C897.442 266.347 898.326 265.81 899.443 265.282Z"/><path fill="#92B6E0" transform="scale(2.48789 2.48789)" d="M845.744 234.998C868.813 224.712 871.617 232.006 884.246 248.526L882.848 251.263C882.548 252.306 881.652 255.808 881.17 256.5L881.679 260.084C874.045 259.723 866.083 261.42 858.519 257.587C850.789 253.67 848.332 242.933 845.744 234.998Z"/><path fill="#E2E4E5" transform="scale(2.48789 2.48789)" d="M881.17 256.5C880.593 255.29 874.842 252.622 872.28 250.253L872.277 249.423C875.66 249.225 879.501 250.428 882.848 251.263C882.548 252.306 881.652 255.808 881.17 256.5Z"/><path fill="#92B6E0" transform="scale(2.48789 2.48789)" d="M881.679 260.084C882.282 261.282 882.742 261.924 882.773 263.272C883.43 264.254 884.139 265.517 885.083 266.169C886.923 266.222 888.718 266.356 890.531 266.077C889.707 267.42 886.052 284.171 883.441 287.1C878.421 292.732 865.039 293.567 858.226 294.199C857.503 288.19 856.645 280.229 858.411 274.383C861.199 265.155 874.471 264.124 881.679 260.084Z"/><path fill="#E2E4E5" transform="scale(2.48789 2.48789)" d="M876.465 274.092C878.051 270.598 880.07 265.959 882.773 263.272C883.43 264.254 884.139 265.517 885.083 266.169C881.913 269.411 880.084 271.276 876.465 274.092Z"/><path fill="#564B46" transform="scale(2.48789 2.48789)" d="M796.98 323.521L801.598 323.475C801.98 324.572 797.767 329.588 797.175 331.245C795.864 334.916 794.795 338.601 793.702 342.337L792.422 342.376C788.558 339.255 789.262 332.577 790.859 328.425C792.086 325.232 794.066 324.707 796.98 323.521Z"/><path fill="#F3DAD4" transform="scale(2.48789 2.48789)" d="M196.492 421.716C197.312 426.28 196.783 436.831 196.928 441.85C197.418 458.899 196.177 477.451 196.559 494.307C200.09 494.272 203.854 494.306 207.36 494.192L207.523 483.786C209.969 483.86 211.587 484.059 213.916 483.281C215.355 472.921 213.52 450.869 214.447 438.502C215.607 453.125 214.715 476.593 214.918 492.195C219.607 492.279 225.624 492.559 230.208 492.425L230.247 484.407C237.61 484.418 245.711 484.258 253.012 484.492C259.116 484.347 288.836 484.828 292.939 483.786L294.846 483.773C296.268 484.508 300.527 485.825 300.912 486.073C308.407 492.948 333.505 501.901 343.992 507.348C360.02 514.9 376.248 521.564 392.389 528.922L479.956 569.502C486.448 572.487 525.387 590.085 528.7 592.588L555.03 592.685C564.744 593.788 649.894 593.524 654.736 592.082C662.507 593.193 685.101 592.666 694.197 592.665L770.123 592.556L769.541 608.037C769.394 619.168 770.049 629.464 770.064 640.235C769.889 642.609 770.244 644.145 768.945 645.605L0 645.63L0 609.143L0 593.12L0 471.553C18.5612 468.458 51.2711 468.8 70.4357 469.661C78.0399 470.003 89.2473 472.955 97.3693 473.228C105.154 473.49 112.454 472.226 120.171 471.39C128.67 470.444 137.222 470.052 145.772 470.218C157.367 470.505 165.658 473.005 176.942 475.008C182.478 475.991 190.416 476.431 196.172 476.835C196.705 461.867 195.115 434.911 196.492 421.716Z"/><defs><linearGradient id="gradient_5" gradientUnits="userSpaceOnUse" x1="115.19906" y1="600.98175" x2="126.49261" y2="469.12924"><stop offset="0" stop-color="#AD9FB6"/><stop offset="1" stop-color="#DABABE"/></linearGradient></defs><path fill="url(#gradient_5)" transform="scale(2.48789 2.48789)" d="M196.492 421.716C197.312 426.28 196.783 436.831 196.928 441.85C197.418 458.899 196.177 477.451 196.559 494.307C200.09 494.272 203.854 494.306 207.36 494.192L207.523 483.786C209.969 483.86 211.587 484.059 213.916 483.281C215.355 472.921 213.52 450.869 214.447 438.502C215.607 453.125 214.715 476.593 214.918 492.195C219.607 492.279 225.624 492.559 230.208 492.425L230.247 484.407C237.61 484.418 245.711 484.258 253.012 484.492L253.229 484.796C251.413 486.969 249.482 489.154 247.998 491.558C248.39 492.699 248.379 492.661 249.096 493.635L246.155 494.962C246.259 497.791 247.956 495.16 246.933 498.617C245.513 499.307 244.838 499.668 243.516 500.528L243.039 501.969C243.915 502.979 244.353 503.012 245.604 503.438C245.483 506.113 243.976 506.159 241.573 506.738C239.94 508.653 240.315 507.779 239.881 510.062C241.291 510.773 241.595 510.787 243.165 511.1C243.552 512.781 243.568 512.098 242.578 513.936C238.954 515.628 238.82 514.186 236.111 516.371C235.716 517.65 235.264 518.497 235.684 519.726C236.953 519.981 238.215 520.27 239.468 520.592C239.853 522.535 239.52 522.433 238.72 524.467C234.474 526.846 229.895 524.423 230.186 531.898C233.229 533.958 233.117 531.199 235.051 533.72C234.89 536.127 234.131 537.35 233.1 539.485L226.297 539.392C224.941 541.837 222.546 546.471 221.035 548.603C223.361 550.736 224.247 550.523 227.74 550.37C228.409 550.341 229.079 550.306 229.748 550.266C228.305 553.538 227.504 555.62 226.436 559.03L216.451 559.03C214.512 563.117 212.763 566.691 210.593 570.67C212.789 575.991 214.777 574.672 220.321 574.489C218.915 577.988 218.008 580.33 216.961 584.003L204.812 584.053L200.5 592.767C140.543 593.606 80.5203 592.285 20.5513 592.983C13.7888 593.062 6.7404 593.272 0 593.12L0 471.553C18.5612 468.458 51.2711 468.8 70.4357 469.661C78.0399 470.003 89.2473 472.955 97.3693 473.228C105.154 473.49 112.454 472.226 120.171 471.39C128.67 470.444 137.222 470.052 145.772 470.218C157.367 470.505 165.658 473.005 176.942 475.008C182.478 475.991 190.416 476.431 196.172 476.835C196.705 461.867 195.115 434.911 196.492 421.716Z"/><path fill="#756374" transform="scale(2.48789 2.48789)" d="M253.012 484.492C259.116 484.347 288.836 484.828 292.939 483.786L294.846 483.773C296.268 484.508 300.527 485.825 300.912 486.073C308.407 492.948 333.505 501.901 343.992 507.348C360.02 514.9 376.248 521.564 392.389 528.922L479.956 569.502C486.448 572.487 525.387 590.085 528.7 592.588C524.274 592.728 519.221 592.61 514.743 592.609C512.064 590.728 499.025 584.972 495.651 583.468C492.485 584.233 474.064 584.014 469.618 584.013L413.034 583.96L299.199 584.02C279.546 584.049 256.132 584.684 236.737 583.878C236.144 586.852 235.478 589.812 234.74 592.753L229.817 592.753L200.5 592.767L204.812 584.053L216.961 584.003C218.008 580.33 218.915 577.988 220.321 574.489C214.777 574.672 212.789 575.991 210.593 570.67C212.763 566.691 214.512 563.117 216.451 559.03L226.436 559.03C227.504 555.62 228.305 553.538 229.748 550.266C229.079 550.306 228.409 550.341 227.74 550.37C224.247 550.523 223.361 550.736 221.035 548.603C222.546 546.471 224.941 541.837 226.297 539.392L233.1 539.485C234.131 537.35 234.89 536.127 235.051 533.72C233.117 531.199 233.229 533.958 230.186 531.898C229.895 524.423 234.474 526.846 238.72 524.467C239.52 522.433 239.853 522.535 239.468 520.592C238.215 520.27 236.953 519.981 235.684 519.726C235.264 518.497 235.716 517.65 236.111 516.371C238.82 514.186 238.954 515.628 242.578 513.936C243.568 512.098 243.552 512.781 243.165 511.1C241.595 510.787 241.291 510.773 239.881 510.062C240.315 507.779 239.94 508.653 241.573 506.738C243.976 506.159 245.483 506.113 245.604 503.438C244.353 503.012 243.915 502.979 243.039 501.969L243.516 500.528C244.838 499.668 245.513 499.307 246.933 498.617C247.956 495.16 246.259 497.791 246.155 494.962L249.096 493.635C248.379 492.661 248.39 492.699 247.998 491.558C249.482 489.154 251.413 486.969 253.229 484.796L253.012 484.492Z"/><path fill="#8F7785" transform="scale(2.48789 2.48789)" d="M253.012 484.492C259.116 484.347 288.836 484.828 292.939 483.786L294.846 483.773C296.268 484.508 300.527 485.825 300.912 486.073C308.407 492.948 333.505 501.901 343.992 507.348L342.055 508.826L333.268 505.574C331.935 504.8 329.539 503.922 328.036 503.315C326.762 502.356 324.461 500.553 322.952 500.232C318.879 499.366 311.997 500.059 308.254 499.887C298.664 499.445 260.032 501.247 253.17 499.331L252.369 499.254C251.42 501.575 251.425 502.938 251.221 505.424C249.682 512.097 248.249 518.794 246.923 525.513C243.557 534.5 240.328 550.8 237.887 560.574C235.328 570.827 231.877 582.674 229.817 592.753L200.5 592.767L204.812 584.053L216.961 584.003C218.008 580.33 218.915 577.988 220.321 574.489C214.777 574.672 212.789 575.991 210.593 570.67C212.763 566.691 214.512 563.117 216.451 559.03L226.436 559.03C227.504 555.62 228.305 553.538 229.748 550.266C229.079 550.306 228.409 550.341 227.74 550.37C224.247 550.523 223.361 550.736 221.035 548.603C222.546 546.471 224.941 541.837 226.297 539.392L233.1 539.485C234.131 537.35 234.89 536.127 235.051 533.72C233.117 531.199 233.229 533.958 230.186 531.898C229.895 524.423 234.474 526.846 238.72 524.467C239.52 522.433 239.853 522.535 239.468 520.592C238.215 520.27 236.953 519.981 235.684 519.726C235.264 518.497 235.716 517.65 236.111 516.371C238.82 514.186 238.954 515.628 242.578 513.936C243.568 512.098 243.552 512.781 243.165 511.1C241.595 510.787 241.291 510.773 239.881 510.062C240.315 507.779 239.94 508.653 241.573 506.738C243.976 506.159 245.483 506.113 245.604 503.438C244.353 503.012 243.915 502.979 243.039 501.969L243.516 500.528C244.838 499.668 245.513 499.307 246.933 498.617C247.956 495.16 246.259 497.791 246.155 494.962L249.096 493.635C248.379 492.661 248.39 492.699 247.998 491.558C249.482 489.154 251.413 486.969 253.229 484.796L253.012 484.492Z"/><path fill="#BAA7B6" transform="scale(2.48789 2.48789)" d="M253.012 484.492C259.116 484.347 288.836 484.828 292.939 483.786L294.846 483.773C296.268 484.508 300.527 485.825 300.912 486.073C308.407 492.948 333.505 501.901 343.992 507.348L342.055 508.826L333.268 505.574C331.935 504.8 329.539 503.922 328.036 503.315C326.762 502.356 324.461 500.553 322.952 500.232C318.879 499.366 311.997 500.059 308.254 499.887C298.664 499.445 260.032 501.247 253.17 499.331C254.435 498.094 255.225 498.056 256.953 497.637L257.591 497.484C255.427 496.885 256.048 497.395 254.968 495.76C256.019 489.657 265.172 491.807 270.351 492.008L278.329 491.616C271.998 491.064 263.129 491.404 256.187 490.998C260.706 488.468 285.111 489.652 292.481 489.41C285.784 488.008 258.479 491.461 255.769 487.368L256.587 485.795C255.742 485.173 254.315 485.019 253.229 484.796L253.012 484.492Z"/><path fill="#DBB4B5" transform="scale(2.48789 2.48789)" d="M253.012 484.492C259.116 484.347 288.836 484.828 292.939 483.786C293.727 486.357 294.247 485.893 297.37 487.666C295.946 488.694 258.567 488.616 256.983 487.288L256.587 485.795C255.742 485.173 254.315 485.019 253.229 484.796L253.012 484.492Z"/><path fill="#8F7785" transform="scale(2.48789 2.48789)" d="M278.329 491.616C280.961 491.407 296.106 491.299 297.527 492.187L296.82 492.001C294.786 493.567 273.68 493.054 270.351 492.008L278.329 491.616Z"/><path fill="#948191" transform="scale(2.48789 2.48789)" d="M210.593 570.67C213.366 570.439 218.27 569.685 220.645 570.648L221.319 571.754L220.321 574.489C214.777 574.672 212.789 575.991 210.593 570.67Z"/><path fill="#948191" transform="scale(2.48789 2.48789)" d="M221.035 548.603C223.627 547.772 227.2 546.432 229.685 547.705C230.254 549.284 230.157 548.461 229.748 550.266C229.079 550.306 228.409 550.341 227.74 550.37C224.247 550.523 223.361 550.736 221.035 548.603Z"/><path fill="#C7B0BC" transform="scale(2.48789 2.48789)" d="M251.221 505.424C251.425 502.938 251.42 501.575 252.369 499.254L253.17 499.331C260.032 501.247 298.664 499.445 308.254 499.887C311.997 500.059 318.879 499.366 322.952 500.232C324.461 500.553 326.762 502.356 328.036 503.315C329.539 503.922 331.935 504.8 333.268 505.574L342.055 508.826L345.658 511.173C347.301 512.891 349.664 513.56 351.915 514.439L357.448 517.068C359.876 518.186 360.614 518.508 362.799 520.122C366.565 521.754 369.947 523.248 373.633 525.092C369.497 525.817 250.633 525.413 248.719 524.844C249.003 523.359 249.669 521.319 250.107 519.82L250.303 518.104L250.862 514.758L251.723 510.422L252.496 505.843L251.221 505.424Z"/><defs><linearGradient id="gradient_6" gradientUnits="userSpaceOnUse" x1="295.60806" y1="509.62054" x2="295.63193" y2="506.34576"><stop offset="0" stop-color="#867783"/><stop offset="1" stop-color="#9D8D9D"/></linearGradient></defs><path fill="url(#gradient_6)" transform="scale(2.48789 2.48789)" d="M251.221 505.424C251.425 502.938 251.42 501.575 252.369 499.254L253.17 499.331C260.032 501.247 298.664 499.445 308.254 499.887C311.997 500.059 318.879 499.366 322.952 500.232C324.461 500.553 326.762 502.356 328.036 503.315C329.539 503.922 331.935 504.8 333.268 505.574L342.055 508.826L345.658 511.173C341.213 510.07 322.541 510.568 316.814 510.521C295.221 510.347 273.315 511.069 251.723 510.422L252.496 505.843L251.221 505.424Z"/><defs><linearGradient id="gradient_7" gradientUnits="userSpaceOnUse" x1="286.81" y1="507.76556" x2="287.4798" y2="498.36844"><stop offset="0" stop-color="#71677A"/><stop offset="1" stop-color="#A38C99"/></linearGradient></defs><path fill="url(#gradient_7)" transform="scale(2.48789 2.48789)" d="M251.221 505.424C251.425 502.938 251.42 501.575 252.369 499.254L253.17 499.331C260.032 501.247 298.664 499.445 308.254 499.887C311.997 500.059 318.879 499.366 322.952 500.232C324.461 500.553 326.762 502.356 328.036 503.315C319.934 503.236 255.1 502.129 253.195 503.827L252.496 505.843L251.221 505.424Z"/><path fill="#C7B0BC" transform="scale(2.48789 2.48789)" d="M253.195 503.827C255.1 502.129 319.934 503.236 328.036 503.315C329.539 503.922 331.935 504.8 333.268 505.574C330.725 505.978 307.451 506.009 303.896 505.873C288.709 505.292 268.159 506.788 253.775 505.641L253.195 503.827Z"/><path fill="#C7B0BC" transform="scale(2.48789 2.48789)" d="M251.723 510.422C273.315 511.069 295.221 510.347 316.814 510.521C322.541 510.568 341.213 510.07 345.658 511.173C347.301 512.891 349.664 513.56 351.915 514.439C349.847 515.261 261.147 514.547 250.862 514.758L251.723 510.422Z"/><path fill="#8F7785" transform="scale(2.48789 2.48789)" d="M351.915 514.439L357.448 517.068C355.763 518.187 353.942 518.264 351.966 518.292C324.249 518.68 296.541 517.411 268.832 517.969C262.697 518.093 256.424 518.355 250.303 518.104L250.862 514.758C261.147 514.547 349.847 515.261 351.915 514.439Z"/><path fill="#948191" transform="scale(2.48789 2.48789)" d="M357.448 517.068C359.876 518.186 360.614 518.508 362.799 520.122C325.984 519.873 286.682 520.865 250.107 519.82L250.303 518.104C256.424 518.355 262.697 518.093 268.832 517.969C296.541 517.411 324.249 518.68 351.966 518.292C353.942 518.264 355.763 518.187 357.448 517.068Z"/><path fill="#BAA7B6" transform="scale(2.48789 2.48789)" d="M238.81 574.46L404.336 574.447L449.774 574.361C457.692 574.339 468.264 574.113 475.919 574.902C480.21 575.344 490.681 581.422 495.651 583.468C492.485 584.233 474.064 584.014 469.618 584.013L413.034 583.96L299.199 584.02C279.546 584.049 256.132 584.684 236.737 583.878L238.81 574.46Z"/><path fill="#C7B0BC" transform="scale(2.48789 2.48789)" d="M248.719 524.844C250.633 525.413 369.497 525.817 373.633 525.092L387.735 531.226C384.723 531.331 377.793 531.367 375.198 532.073C389.884 532.036 390.013 532.375 403.306 539.209C399.61 540.07 364.607 539.57 358.834 539.558L245.902 539.508C246.582 536.078 246.762 534.992 248.231 531.864L248.682 531.554C248.75 529.083 247.949 529.266 248.539 525.834L248.719 524.844Z"/><defs><linearGradient id="gradient_8" gradientUnits="userSpaceOnUse" x1="316.11719" y1="530.81537" x2="316.11707" y2="526.10852"><stop offset="0" stop-color="#827286"/><stop offset="1" stop-color="#9E8DA0"/></linearGradient></defs><path fill="url(#gradient_8)" transform="scale(2.48789 2.48789)" d="M248.719 524.844C250.633 525.413 369.497 525.817 373.633 525.092L387.735 531.226C384.723 531.331 377.793 531.367 375.198 532.073C370.593 532.534 359.038 532.211 354.06 532.215L310.179 532.236L270.216 532.266C264.852 532.274 252.917 532.584 248.231 531.864L248.682 531.554C248.75 529.083 247.949 529.266 248.539 525.834L248.719 524.844Z"/><path fill="#8F7785" transform="scale(2.48789 2.48789)" d="M403.306 539.209C405.093 539.701 419.233 546.418 421.824 547.607C384.24 548.072 345.609 547.564 307.943 547.574L269.423 547.579C261.894 547.572 251.432 547.793 244.152 546.843L245.902 539.508L358.834 539.558C364.607 539.57 399.61 540.07 403.306 539.209Z"/><path fill="#8F7785" transform="scale(2.48789 2.48789)" d="M243.603 550.263L373.541 550.181C388.038 550.187 402.647 550.084 417.142 550.011C430.115 549.946 432.6 553.648 443.774 558.691C449.36 560.454 461.704 567.534 470.222 570.51L314.153 570.488C289.213 570.623 264.272 570.556 239.333 570.287L242.158 557.905L243.603 550.263Z"/><path fill="#BAA7B6" transform="scale(2.48789 2.48789)" d="M243.603 550.263L373.541 550.181C388.038 550.187 402.647 550.084 417.142 550.011C430.115 549.946 432.6 553.648 443.774 558.691C441.752 560.397 272.085 558.159 255.436 559.221C252.923 559.381 243.918 559.804 242.158 557.905L243.603 550.263Z"/><path fill="#DBB4B5" transform="scale(2.48789 2.48789)" d="M495.651 583.468C499.025 584.972 512.064 590.728 514.743 592.609C519.221 592.61 524.274 592.728 528.7 592.588L555.03 592.685C564.744 593.788 649.894 593.524 654.736 592.082C662.507 593.193 685.101 592.666 694.197 592.665L770.123 592.556L769.541 608.037C689.058 607.328 607.206 608.149 526.647 608.371L173.138 608.77L49.9995 608.861C33.72 608.88 16.0871 609.374 0 609.143L0 593.12C6.7404 593.272 13.7888 593.062 20.5513 592.983C80.5203 592.285 140.543 593.606 200.5 592.767L229.817 592.753L234.74 592.753C235.478 589.812 236.144 586.852 236.737 583.878C256.132 584.684 279.546 584.049 299.199 584.02L413.034 583.96L469.618 584.013C474.064 584.014 492.485 584.233 495.651 583.468Z"/><path fill="#8F7785" transform="scale(2.48789 2.48789)" d="M495.651 583.468C499.025 584.972 512.064 590.728 514.743 592.609C479.176 593.732 438.511 592.745 402.474 592.739L234.74 592.753C235.478 589.812 236.144 586.852 236.737 583.878C256.132 584.684 279.546 584.049 299.199 584.02L413.034 583.96L469.618 584.013C474.064 584.014 492.485 584.233 495.651 583.468Z"/><path fill="#8F7785" transform="scale(2.48789 2.48789)" d="M374.335 466.822C374.402 457.246 373.866 431.983 374.755 421.404C374.81 420.749 376.541 420.616 377.535 420.404L377.653 421.293L375.679 421.768C374.291 425.436 375.008 460.465 374.98 466.94C404.584 466.532 433.665 466.856 463.219 466.782L659.334 466.516L735.753 466.46C748.529 466.482 765.795 467.002 778.345 466.456L818.909 466.423C824.517 466.434 834.383 466.779 839.508 466.447C843.298 466.903 852 466.405 853.02 466.623C853.773 473.027 854.906 476.886 858.333 482.458C857.55 484.105 853.158 493.135 852.9 494.269C851.806 496.333 850.54 498.603 849.564 500.693C845.492 508.408 841.706 514.594 837.112 521.985C835.932 524.304 834.462 527.01 833.416 529.346C829.964 537.496 829.343 539.909 828.331 548.419C823.084 554.072 822.098 555.989 819.327 563.188C810.677 564.898 801.715 566.677 793.118 568.521C774.27 572.563 771.271 573.989 770.123 592.556L694.197 592.665C685.101 592.666 662.507 593.193 654.736 592.082C649.894 593.524 564.744 593.788 555.03 592.685L528.7 592.588C525.387 590.085 486.448 572.487 479.956 569.502L392.389 528.922C376.248 521.564 360.02 514.9 343.992 507.348C333.505 501.901 308.407 492.948 300.912 486.073C300.527 485.825 296.268 484.508 294.846 483.773C307.574 485.088 328.055 484.54 341.499 484.54L341.725 492.206L356.666 492.17C356.669 488.931 356.544 485.512 356.482 482.256C355.575 477.483 356.172 465.641 356.66 460.796L356.793 466.788L364.235 466.793L374.335 466.822Z"/><path fill="#DBB4B5" transform="scale(2.48789 2.48789)" d="M374.335 466.822C374.402 457.246 373.866 431.983 374.755 421.404C374.81 420.749 376.541 420.616 377.535 420.404L377.653 421.293L375.679 421.768C374.291 425.436 375.008 460.465 374.98 466.94C404.584 466.532 433.665 466.856 463.219 466.782L659.334 466.516L735.753 466.46C748.529 466.482 765.795 467.002 778.345 466.456L818.909 466.423C824.517 466.434 834.383 466.779 839.508 466.447C843.298 466.903 852 466.405 853.02 466.623C853.773 473.027 854.906 476.886 858.333 482.458C857.55 484.105 853.158 493.135 852.9 494.269C851.806 496.333 850.54 498.603 849.564 500.693C845.492 508.408 841.706 514.594 837.112 521.985C813.008 521.364 786.299 518.13 762.086 516.06C718.393 512.613 674.726 508.839 631.089 504.738C548.346 497.328 464.884 492.236 382.146 483.74C379.716 483.479 377.282 483.253 374.845 483.064C371.874 482.608 367.272 482.555 364.149 482.425C362.135 482.233 358.155 481.613 356.482 482.256C355.575 477.483 356.172 465.641 356.66 460.796L356.793 466.788L364.235 466.793L374.335 466.822Z"/><path fill="#948191" transform="scale(2.48789 2.48789)" d="M356.66 460.796L356.793 466.788C356.733 469.341 356.275 470.303 357.388 472.248C366.288 473.512 383.148 473.622 393.04 474.223L480.867 479.322L750.049 494.775L814.753 498.535C823.787 499.031 841.23 499.445 849.564 500.693C845.492 508.408 841.706 514.594 837.112 521.985C813.008 521.364 786.299 518.13 762.086 516.06C718.393 512.613 674.726 508.839 631.089 504.738C548.346 497.328 464.884 492.236 382.146 483.74C379.716 483.479 377.282 483.253 374.845 483.064C371.874 482.608 367.272 482.555 364.149 482.425C362.135 482.233 358.155 481.613 356.482 482.256C355.575 477.483 356.172 465.641 356.66 460.796Z"/><path fill="#BAA7B6" transform="scale(2.48789 2.48789)" d="M356.482 482.256C358.155 481.613 362.135 482.233 364.149 482.425C367.272 482.555 371.874 482.608 374.845 483.064C377.282 483.253 379.716 483.479 382.146 483.74C382.81 492.338 383.132 498.857 382.663 507.493L560.995 562.792L616.738 580.006C627.784 583.368 644.304 587.943 654.736 592.082C649.894 593.524 564.744 593.788 555.03 592.685L528.7 592.588C525.387 590.085 486.448 572.487 479.956 569.502L392.389 528.922C376.248 521.564 360.02 514.9 343.992 507.348C333.505 501.901 308.407 492.948 300.912 486.073C300.527 485.825 296.268 484.508 294.846 483.773C307.574 485.088 328.055 484.54 341.499 484.54L341.725 492.206L356.666 492.17C356.669 488.931 356.544 485.512 356.482 482.256Z"/><path fill="#8F7785" transform="scale(2.48789 2.48789)" d="M300.912 486.073C320.765 493.765 341.163 502.895 360.833 511.138C396.098 525.57 431.282 540.2 466.383 555.028L526.169 580.204C531.014 582.233 551.605 590.494 555.03 592.685L528.7 592.588C525.387 590.085 486.448 572.487 479.956 569.502L392.389 528.922C376.248 521.564 360.02 514.9 343.992 507.348C333.505 501.901 308.407 492.948 300.912 486.073Z"/><path fill="#756374" transform="scale(2.48789 2.48789)" d="M364.149 482.425C367.272 482.555 371.874 482.608 374.845 483.064L374.691 494.235L364.219 493.99L364.149 482.425Z"/><path fill="#F3DAD4" transform="scale(2.48789 2.48789)" d="M782.254 108.91C798.101 77.029 831.452 66.0166 865.112 65.6066C904.756 65.1238 950.862 79.2834 971.828 115.438C972.623 114.675 973.442 113.939 974.285 113.231C996.091 94.7513 1038.09 88.7174 1060.18 109.681C1062.15 111.542 1064.14 113.971 1065.89 116.059C1067.41 115.744 1068.94 115.459 1070.47 115.206C1097.52 110.718 1127.56 118.677 1132.67 149.797C1146.35 149.805 1189.89 154.15 1194.51 172.693C1195.99 178.624 1183.96 179.934 1179.5 180.192C1164.8 181.042 1149.77 180.605 1134.96 180.561L1061.83 180.73C1056.8 166.934 1051 153.219 1045 139.834C1028.56 103.115 1015.68 124.089 1004.73 148.462C1002.39 153.703 1000.23 159.025 998.264 164.42C987.187 152.466 975.115 145.814 958.21 144.351C957.573 144.296 956.418 144.556 955.794 144.737L955.106 145.639C955.551 147.148 970.548 167.529 973.218 172.348C963.682 166.525 958.611 165.003 947.701 162.193C943.493 155.415 938.321 149.462 934.021 143.096C909.733 107.143 896.329 100.834 887.021 150.915C886.302 155.001 885.696 159.105 885.201 163.223C860.761 165.557 857.522 169.058 837.263 181.473C820.69 180.114 792.238 181.249 774.393 181.338L640.823 182.661C624.245 182.835 607.827 182.745 591.075 182.738C586.219 182.737 552.222 183.426 562.473 169.995C566.015 165.353 575.521 162.845 581.174 161.085C594.966 156.79 609.037 154.889 623.397 153.289C632.581 130.699 651.299 127.629 672.931 128.238C673.909 124.665 675.3 120.375 677.741 117.529C703.082 87.9904 752.07 87.9246 782.254 108.91Z"/><path fill="#756374" transform="scale(2.48789 2.48789)" d="M168.274 301.741C226.81 314.234 302.488 313.503 362.125 308.127C374.161 307.042 391.742 304.98 403.197 301.787C399.368 312.097 399.577 318.711 388.064 321.305C387.312 324.694 386.567 328.439 385.716 331.772C362.037 332.758 356.086 328.308 356.696 356.18L385.14 356.25L384.963 370.412L356.658 370.398C356.684 377.823 356.054 428.675 357.727 430.855C360.424 431.039 361.059 431.182 363.617 430.205C367.175 425.574 361.044 421.512 361.006 416.57C362.24 415.108 367.489 414.036 369.736 413.396C372.225 414.087 374.576 414.586 376.779 415.93C378.046 418.177 377.676 417.526 377.535 420.404C376.541 420.616 374.81 420.749 374.755 421.404C373.866 431.983 374.402 457.246 374.335 466.822L364.235 466.793L356.793 466.788L356.66 460.796C356.172 465.641 355.575 477.483 356.482 482.256C356.544 485.512 356.669 488.931 356.666 492.17L341.725 492.206L341.499 484.54C328.055 484.54 307.574 485.088 294.846 483.773L292.939 483.786C288.836 484.828 259.116 484.347 253.012 484.492C245.711 484.258 237.61 484.418 230.247 484.407L230.208 492.425C225.624 492.559 219.607 492.279 214.918 492.195C214.715 476.593 215.607 453.125 214.447 438.502C213.52 450.869 215.355 472.921 213.916 483.281C211.587 484.059 209.969 483.86 207.523 483.786L207.36 494.192C203.854 494.306 200.09 494.272 196.559 494.307C196.177 477.451 197.418 458.899 196.928 441.85C196.783 436.831 197.312 426.28 196.492 421.716C194.879 421.045 194.811 420.897 193.548 419.635C192.901 417.652 192.852 418.453 193.669 416.626C195.966 414.561 198.764 414.118 201.76 413.351C205.05 414.209 206.937 414.613 209.957 416.121C211.054 420.762 202.038 429.856 210.65 431.616C212.37 431.162 214.867 429.569 214.853 427.592C214.778 417.331 214.683 407.048 214.626 396.776C214.608 388.09 214.468 379.095 214.671 370.438L186.555 370.405L186.397 356.165L214.741 356.184C214.815 327.046 210.073 334.012 185.898 331.413L183.195 321.512C180.719 320.693 177.681 319.785 175.289 318.884C172.545 313.194 170.503 307.628 168.274 301.741Z"/><path fill="#F7EFDC" transform="scale(2.48789 2.48789)" d="M230.324 393.656C235.469 395.354 244.018 395.312 249.671 395.765C267.189 397.072 284.022 403.115 298.371 413.249C305.296 418.205 310.819 423.405 316.892 429.408C320.315 432.793 325.001 443.644 328.722 444.199C331.392 444.597 337.985 441.255 341.355 440.496C341.399 454.993 341.251 470.086 341.499 484.54C328.055 484.54 307.574 485.088 294.846 483.773L292.939 483.786C288.836 484.828 259.116 484.347 253.012 484.492C245.711 484.258 237.61 484.418 230.247 484.407L230.324 393.656Z"/><defs><linearGradient id="gradient_9" gradientUnits="userSpaceOnUse" x1="299.01752" y1="449.05664" x2="281.26172" y2="361.53342"><stop offset="0" stop-color="#FBEACF"/><stop offset="1" stop-color="#FADED4"/></linearGradient></defs><path fill="url(#gradient_9)" transform="scale(2.48789 2.48789)" d="M230.21 370.415L341.437 370.37L341.355 440.496C337.985 441.255 331.392 444.597 328.722 444.199C325.001 443.644 320.315 432.793 316.892 429.408C310.819 423.405 305.296 418.205 298.371 413.249C284.022 403.115 267.189 397.072 249.671 395.765C244.018 395.312 235.469 395.354 230.324 393.656L230.21 370.415Z"/><path fill="#F7EFDC" transform="scale(2.48789 2.48789)" d="M207.523 483.786C207.491 475.618 206.88 444.457 207.83 438.702C209.469 437.546 212.616 438.077 214.447 438.502C213.52 450.869 215.355 472.921 213.916 483.281C211.587 484.059 209.969 483.86 207.523 483.786Z"/><path fill="#F7EFDC" transform="scale(2.48789 2.48789)" d="M356.66 460.796C356.664 455.012 355.565 442.844 358.102 438.603C359.984 437.408 359.103 437.633 361.458 437.866C366.082 441.219 364.13 460.583 364.235 466.793L356.793 466.788L356.66 460.796Z"/><path fill="#F3DAD4" transform="scale(2.48789 2.48789)" d="M295.261 333.958C302.54 333.932 332.147 333.41 337.505 334.434C342.168 339.434 341.564 349.825 341.514 356.201L295.376 356.218C295.431 348.798 295.393 341.377 295.261 333.958Z"/><path fill="#F3DAD4" transform="scale(2.48789 2.48789)" d="M233.252 333.933L276.297 333.998C276.251 338.553 277.154 352.678 275.584 355.936L273.621 356.305L230.034 356.213C230.022 352.325 229.688 345.143 230.474 341.652C231.434 337.384 232.832 340.549 233.252 333.933Z"/><path fill="#F7EFDC" transform="scale(2.48789 2.48789)" d="M698.836 407.72C711.855 372.764 759.48 352.277 794.601 361.115C798.456 369.25 800.748 372.516 807.435 378.753C803.999 381.631 801.326 383.72 799.27 387.831C794.168 398.03 790.693 410.593 786.873 421.533C783.493 431.216 776.607 448.057 774.991 457.722C776.031 460.65 777.029 463.646 778.345 466.456C765.795 467.002 748.529 466.482 735.753 466.46L659.334 466.516L463.219 466.782C433.665 466.856 404.584 466.532 374.98 466.94C375.008 460.465 374.291 425.436 375.679 421.768L377.653 421.293C376.008 424.114 375.584 423.589 375.609 427.627C375.642 432.885 375.663 438.244 375.634 443.485C381.063 444.861 385.294 447.414 390.147 450.261C396.196 453.809 397.869 447.215 402.53 444.249C407.087 441.349 413.306 438.494 418.483 436.702C435.823 430.776 454.793 431.869 471.337 439.748C474.29 437.338 479.642 430.273 483.65 426.569C500.693 410.952 521.95 400.687 544.778 397.051C579.657 391.737 609.45 400.783 637.561 421.38C655.807 405.285 674.454 395.966 698.836 407.72Z"/><path fill="#F7EFDC" transform="scale(2.48789 2.48789)" d="M0 317.697C30.3922 314 57.9081 320.964 82.1354 340.016C101.232 355.035 108.642 371.159 116.728 392.968C143.2 379.728 166.879 386.514 187.874 405.671C192.85 403.813 212.055 398.332 214.626 396.776C214.683 407.048 214.778 417.331 214.853 427.592C214.867 429.569 212.37 431.162 210.65 431.616C202.038 429.856 211.054 420.762 209.957 416.121C206.937 414.613 205.05 414.209 201.76 413.351C198.764 414.118 195.966 414.561 193.669 416.626C192.852 418.453 192.901 417.652 193.548 419.635C194.811 420.897 194.879 421.045 196.492 421.716C195.115 434.911 196.705 461.867 196.172 476.835C190.416 476.431 182.478 475.991 176.942 475.008C165.658 473.005 157.367 470.505 145.772 470.218C137.222 470.052 128.67 470.444 120.171 471.39C112.454 472.226 105.154 473.49 97.3693 473.228C89.2473 472.955 78.0399 470.003 70.4357 469.661C51.2711 468.8 18.5612 468.458 0 471.553L0 317.697Z"/><path fill="#F3DAD4" transform="scale(2.48789 2.48789)" d="M0 96.3669C17.6689 80.4764 39.8259 74.7556 63.172 76.4225C94.9357 78.6904 117.869 89.1225 133.048 117.41C158.774 99.3978 199.852 107.348 208.855 139.463C234.644 129.416 268.484 130.74 283.047 158.037C296.117 159.459 337.543 163.101 344.769 171.868C345.483 172.735 345.706 173.461 345.898 174.548C345.272 176.086 344.628 177.416 342.722 177.943C331.986 180.912 315.866 181.202 304.902 181.668C278.371 182.796 252.169 183.374 225.673 183.498C210.402 183.569 194.766 182.094 179.726 182.069C157.612 182.032 135.423 181.507 113.4 181.425L40.2882 181.304C27.9035 181.378 11.9224 182.109 0 181.65L0 96.3669Z"/><path fill="#F3DAD4" transform="scale(2.48789 2.48789)" d="M515.989 215.199C527.398 215.558 538.173 219.666 543.353 230.452C557.585 225.965 570.862 229.106 572.915 245.666C583.002 245.41 602.974 245.641 605.337 259.738C605.827 264.368 600.382 266.623 596.789 266.894C566.647 269.164 535.151 270.945 505.082 271.423C490.896 271.765 424.911 272.287 418.119 267.094C417.266 266.442 416.808 265.695 416.765 264.643C416.682 262.614 417.943 261.078 419.267 259.684C426.436 252.141 440.242 250.666 450.108 250.372C450.206 248.647 450.473 246.935 450.903 245.261C455.674 227.308 479.35 230.098 492.883 233.847C497.508 222.996 504.2 216.809 515.989 215.199Z"/></svg>