<?xml version="1.0" encoding="utf-8" ?><svg xmlns="http://www.w3.org/2000/svg" xmlns:xlink="http://www.w3.org/1999/xlink" width="1820" height="1024" viewBox="0 0 1820 1024"><path fill="#8F7785" d="M0 0L1587.72 0L1596.74 0L1820 0L1820 179.352L1820 184.773L1820 202.823L1820 208.679L1820 223.483L1820 231.52L1820 281.913L1820 289.202L1820 347.904L1820 354.249L1820 641.025L1820 647.933L1820 667.631L1820 673.639L1820 720.948L1820 723.528L1820 947.761L1820 954.017L1820 960.818L1820 965.634L1820 977.16L1820 983.009L1820 1024L1662.22 1024L1643.52 1024L1599.9 1024L1565.17 1024L1492.24 1024L1463.8 1024L695.78 1024L688.876 1024L593.647 1024L586.358 1024L0 1024L0 675.559L0 673.256L0 607.229L0 600.435L0 446.523L0 443.773L0 0Z"/><path fill="#F7EFDC" d="M0 0L1587.72 0C1576.77 10.2062 1569.29 18.532 1568.12 34.5191C1513.47 31.0344 1452.58 67.6573 1462.71 128.733C1444.3 137.405 1437.59 149.482 1433.77 168.577C1416.94 171.87 1402.17 177.897 1388.05 187.748C1367.2 202.299 1347 228.441 1376.62 247.043C1378.86 248.438 1381.13 249.796 1383.42 251.117C1389.15 287.182 1443.86 297.569 1473.68 292.258C1487.73 289.756 1502.56 285.006 1514.63 277.263C1526.02 289.103 1536.55 291.288 1552.05 285.943C1567.95 297.744 1585.67 299.69 1604.66 296.887C1622.1 294.455 1638.44 286.914 1651.61 275.213C1677.93 315.517 1705.88 360.387 1719.96 406.855C1694.41 412.155 1674.5 422.262 1659.69 444.734C1624.92 405.288 1559.2 415.114 1522.15 446.302C1515.49 451.903 1510.41 459.058 1507.17 467.116C1489.42 460.902 1473.56 460.129 1456.04 468.434C1446.7 472.958 1438.64 479.734 1432.57 488.153C1390.12 473.143 1365.19 475.392 1324.18 493.496C1334.55 470.123 1338.95 453.658 1341.52 428.471C1354.18 428.477 1450.59 429.517 1455.06 427.057C1448.46 424.356 1300.14 425.941 1280.85 425.589C1302.19 392.706 1336.81 390.284 1364.8 416.881C1381.11 372.916 1425.77 354.867 1466.26 382.095C1468.15 375.756 1469.48 369.545 1475.49 365.745C1480.74 362.422 1487.78 367.646 1490.28 365.184C1496.65 358.934 1501.52 351.264 1508.1 345.205C1529.59 325.396 1563.59 314.505 1591.98 324.325C1610.16 330.612 1616.71 341.631 1616.33 360.02C1629.93 352.564 1655.16 349.741 1658.82 371.231C1659.31 374.077 1658.12 376.073 1659.79 378.741C1661.2 377.326 1662.4 373.122 1662.12 371.208C1659.14 350.725 1634.09 349.096 1619.63 354.526C1618.54 344.832 1614.75 334.377 1606.57 328.783C1567.01 301.749 1511.74 327.358 1489.76 362.794C1475.42 359.492 1469.63 363.953 1464.15 376.931C1457.47 373.417 1452.96 371.195 1445.62 369.096C1415.72 360.548 1382.23 375.176 1367.74 402.724C1366.15 405.686 1364.79 408.765 1363.68 411.934C1357.39 405.921 1353.26 403.74 1345.48 400.064C1344.67 383.902 1343.62 370.769 1339.83 354.836C1315.93 254.214 1218.12 183.538 1115 188.92C1054.66 191.785 998.003 218.838 957.829 263.974C921.449 304.576 902.082 357.623 903.744 412.12C879.985 420.967 861.615 434.574 854.601 460.236C850.884 460.715 847.484 460.768 844.507 462.976C846.537 464.69 853.876 463.213 856.803 462.971C862.529 443.742 872.578 430.835 891.029 420.617C916.367 406.584 962.704 402.728 979.835 431.583C985.112 440.473 982.809 449.054 979.942 458.4C984.585 452.414 987.848 447.286 995.944 446.445C1009.42 445.044 1014 456.331 1016.02 466.834C1030.16 463.613 1032.35 464.274 1039.88 476.245C1042.34 474.519 1045.04 470.696 1047.1 469.501C1052.97 466.08 1062.48 465.158 1069.09 466.47C1081.29 468.888 1086.98 473.584 1091.22 484.726C1037.57 485.8 973.79 485.889 920.314 484.504C934.021 523.785 954.32 552.934 988.64 577.117C973.203 583.791 962.319 587.731 945.734 592.062C892.697 568.831 861.926 549.076 803.318 566.629C790.852 570.363 760.445 579.552 748.731 582.086L710.085 561.692L708.444 466.572C720.01 470.294 738.028 474.842 748.259 478.811C755.992 476.197 767.927 472.168 774.98 468.078C775.087 459.966 776.78 426.501 773.475 421.567C766.724 417.129 717.634 401.371 707.074 397.635C706.62 383.474 706.429 369.306 706.499 355.138C721.112 359.886 735.673 365.489 750.083 370.876C781.884 359.186 784.19 353.849 804.84 327.141C835.367 323.831 851.898 319.736 862.949 287.161C835.947 294.62 815.429 294.161 787.7 289.369C738.176 280.809 691.069 263.662 644.228 246.022C607.321 232.527 570.678 218.32 534.32 203.409C467.976 176.906 402.178 149.053 336.969 119.867C278.802 94.2572 220.17 66.8082 164.063 36.8024C153.378 31.0881 141.368 21.775 131.213 16.4214C112.945 30.347 93.206 42.912 74.2174 55.8462C71.9326 57.4025 69.7729 58.736 67.6067 60.4917C70.5648 69.2121 74.0602 77.3328 78.4446 85.4359C87.1602 101.544 114.857 144.528 130.888 152.523C141.53 157.831 153.788 161.382 165.005 165.394C192.21 175.124 219.73 183.972 246.91 193.769L246.956 252.379C228.198 246.166 209.351 240.228 190.42 234.566C182.895 232.253 171.516 228.213 164.148 226.473C157.335 229.706 136.567 239.77 131.246 243.626C131.396 252.072 130.494 304.2 132.506 307.853C141.172 313.642 229.595 337.614 244.688 341.776C244.213 378.307 242.607 414.814 242.36 451.226C196.294 462.038 159.544 476.935 115.458 493.116C75.3873 473.841 42.309 458.385 0 443.773L0 0Z"/><path fill="#8F7785" d="M563.385 101.994C570.69 94.7837 576.71 89.6036 585.636 84.263C626.39 59.8801 686.668 72.2469 704.822 119.091C706.012 122.163 706.975 125.768 707.921 128.968C722.524 131.193 731.22 135.057 738.508 148.552C772.262 118.898 823.354 153.05 812.338 167.87C809.654 168.848 807.678 168.417 804.871 168.13L804.209 165.916C807.871 165.51 808.921 166.086 811.085 163.964C810.725 161.208 808.4 158.04 806.77 155.668C793.324 136.094 764.645 137.182 745.247 146.192C741.146 148.097 739.595 149.182 737.649 153.258L736.743 152.933C729.421 131.183 708.379 129.073 688.125 133.871C686.21 134.325 680.041 136.553 678.624 136.164L678 136.573L677.942 136.403C683.507 131.297 697.418 129.123 705.079 128.736C682.552 53.7884 577.283 60.0582 552.491 127.348L551.654 127.227C551.125 121.89 558.837 108.536 561.922 103.836C527.601 79.189 475.332 79.1784 452.067 118.58L451.362 117.867C438.328 104.83 418.473 112.188 409.646 126.703L408.686 126.306C408.421 123.559 409.285 122.136 411.044 120.038C421.968 107.009 437.587 105.713 451.768 113.65C476.64 78.6622 531.935 74.4298 563.385 101.994Z"/><path fill="#8F7785" d="M1288.57 59.0085C1311.06 56.0274 1341 69.7021 1339.37 96.502C1339.12 100.624 1340.06 103.256 1344.89 102.954C1356.67 102.216 1366.8 115.989 1355.68 123.755C1353.41 124.1 1353.71 124.448 1352.25 123.512C1353.66 121.518 1356.96 117.559 1356.82 115.223C1356.12 103.354 1342.48 105.831 1335.66 105.316L1335 104.22C1337.33 100.433 1336.75 99.6461 1336.75 95.3281C1336.78 71.5201 1312.15 59.9635 1290.97 61.4775C1269.05 63.0437 1242.81 72.9086 1229.89 91.5837C1225.68 98.8806 1223.35 107.906 1218.37 114.644C1214.77 119.514 1202.97 112.374 1197.35 112.093C1193.94 111.923 1190.88 111.544 1187.1 111.612C1176.36 112.586 1160.02 118.868 1157.05 130.569C1160.7 134.398 1239.73 128.895 1245.84 133.48L1244.93 134.429C1236.49 135.134 1157.36 134.72 1154.67 133.091C1154.15 131.664 1153.52 130.999 1154.06 129.523C1160.4 112.239 1182.79 106.908 1199.16 109.72C1203.97 110.547 1209.88 112.427 1214.64 113.76C1220.86 110.89 1223.52 94.675 1231.13 85.9054C1245.85 68.9443 1267.12 61.4203 1288.57 59.0085Z"/><path fill="#3D2F4E" d="M804.871 168.13C795.744 167.658 716.563 169.152 714.509 166.623C721.059 165.655 737.115 166.118 744.779 166.12C764.589 166.21 784.4 166.142 804.209 165.916L804.871 168.13Z"/><path fill="#C5CBD5" d="M0 675.559C47.3386 688.686 79.8183 710.535 98.5437 757.763C158.697 760.206 197.353 791.73 217.555 847.889C245.577 846.325 278.073 856.158 299.146 875.104C305.23 880.65 310.603 886.931 315.139 893.802C369.049 884.318 421.415 905.919 442.519 958.64C492.883 950.188 527.072 970.541 549.063 1015.76C561.924 1017.06 574.609 1018.1 586.358 1024L0 1024L0 675.559Z"/><path fill="#6E637D" d="M237.411 901.77C276.26 899.349 308.167 918.31 323.257 954.3C334.589 950.221 346.741 948.956 358.67 950.613C378.274 953.317 408.118 965.95 420.145 981.878L419.528 983.056C390.152 960.149 356.328 945.986 319.787 961.361C307.506 927.789 286.641 911.893 251.472 904.997C248.044 904.325 239.497 903.913 237.411 901.77Z"/><path fill="#6E637D" d="M66.8194 803.876C75.2141 802.975 88.724 805.457 96.7203 808.365C120.272 816.93 131.712 828.977 142.369 850.716C169.393 840.188 201.403 848.282 218.629 872.564C221.418 876.495 223.055 877.932 222.835 882.911C210.996 867.375 202.24 859.392 182.541 854.329C165.451 849.937 155.732 851.227 140.251 858.826L139.307 856.992C125.28 829.869 114.905 818.623 84.4457 808.644C78.681 806.755 72.5601 805.703 66.8194 803.876Z"/><path fill="#F3DAD4" d="M906.551 857.302C938.02 848.382 972.834 835.055 1003.83 824.037C1037.1 812.025 1070.7 800.951 1104.58 790.827C1281.74 735.681 1462.89 694.303 1646.42 667.063C1679.8 662.079 1713.25 657.676 1746.78 653.854C1770.12 651.195 1796.55 648.214 1820 647.933L1820 667.631C1784.24 665.004 1748.53 675.108 1720.5 697.998C1706.61 709.335 1694.27 726.461 1692.61 744.77C1659.19 735.133 1622.76 751.812 1611.23 785.32C1562.01 766.215 1499.85 810.656 1497.05 862.985C1485.83 862.376 1474.58 863.73 1463.83 866.987C1444.33 872.909 1428.12 883.289 1418.37 901.562C1399.88 900.772 1379.05 898.239 1360.43 896.502L1229.37 883.855L1046.46 868.162C999.801 864.802 953.165 861.182 906.551 857.302Z"/><path fill="#8F7785" d="M1413.86 768.967C1425.39 768.618 1448.15 790.841 1450.29 802.346C1447.74 801.402 1433.65 781.526 1427.55 778.618C1425.03 777.415 1415.59 771.907 1413.86 768.967Z"/><path fill="#8F7785" d="M1133.09 823.072C1145.59 822.667 1154.9 839.885 1156.96 850.4C1153.7 850.631 1153.48 848.916 1152.64 846.318C1148.72 834.179 1143.22 829.927 1133.09 823.072Z"/><path fill="#8F7785" d="M1413 787.619C1422.36 786.816 1435.45 797.583 1438.09 806.549C1435.54 805.852 1423.29 792.882 1418.56 791.875C1416.8 791.499 1414.04 789.352 1413 787.619Z"/><path fill="#8F7785" d="M1399.98 800.112C1406.64 798.966 1423.61 807.119 1425.56 813.643C1422.65 814.021 1403.23 802.524 1399.98 800.112Z"/><path fill="#8F7785" d="M1123.57 834.635C1132.8 833.772 1141.36 842.814 1141.89 851.812C1140.52 851.167 1138.7 848.345 1137.72 846.962C1133.65 841.228 1129.44 838.217 1123.57 834.635Z"/><path fill="#8F7785" d="M1647.82 713.966L1648.82 714.21L1647.77 715.685C1640.68 718.577 1634.51 719.247 1626.99 719.34C1625.94 719.023 1626.41 719.316 1625.77 718.164C1627.51 717.049 1643.21 715.02 1647.82 713.966Z"/><path fill="#8F7785" d="M1456.84 785.297C1463.32 786.432 1466.04 797.585 1466.7 803.091C1464.18 801.278 1458.73 789.023 1456.84 785.297Z"/><path fill="#8F7785" d="M1254.64 825.511C1258.82 826.839 1262.67 829.702 1265.39 830.3C1268.85 831.059 1271.56 827.801 1276.58 829.404C1268.15 834.642 1260.7 833.004 1254.64 825.511Z"/><path fill="#8F7785" d="M1158.58 834.415C1166.39 835.261 1167.9 842.939 1168.71 849.35C1166.15 848.007 1163.55 839.773 1158.58 834.415Z"/><path fill="#F3DAD4" d="M339.368 828.694C364.513 829.246 387.989 828.515 412.955 828.508L539.039 828.505L589.392 827.917C600.172 827.78 615.866 827.044 625.966 828.922C623.241 829.982 621.871 829.613 619.318 829.946C607.455 831.493 560.114 831.88 553.87 840.906C552.5 852.009 568.227 855.48 576.813 857.502C592.383 861.169 609.983 865.988 625.77 867.932C625.719 872.58 625.299 879.891 626.492 884.14C635.701 890.447 684.55 886.266 698.565 887.483C705.655 888.098 713.555 888.761 715.909 880.859C717.19 880.484 717.415 880.367 718.777 880.602C785.868 892.849 852.886 905.49 919.829 918.522C1011.87 935.57 1103.83 953.087 1195.69 971.072C1259.43 983.311 1324.4 995.27 1387.91 1008.28L1438.53 1018.72C1445.45 1020.15 1457.3 1022.16 1463.8 1024L695.78 1024C666.491 976.359 620.918 962.355 566.78 967.773C550.878 930.643 515.831 911.146 475.787 916.499C446.843 867.36 394.835 847.25 339.573 857.319L339.368 828.694Z"/><path fill="#8F7785" d="M798.559 952.087C803.433 953.409 807.416 957.03 810.506 960.896C814.109 965.405 817.156 971.116 816.524 977.006C813.81 974.503 812.22 968.907 809.925 965.618C806.745 961.06 800.722 956.684 798.559 952.087Z"/><path fill="#8F7785" d="M818.126 958.221C820.711 958.515 822.894 959.467 824.875 961.119C829.418 964.909 831.271 970.602 831.71 976.325C830.835 975.807 821.419 961.771 818.126 958.221Z"/><path fill="#8F7785" d="M556.063 905.858C564.202 907.38 572.376 914.038 572.452 922.874C569.432 919.637 567.464 915.955 563.512 912.593C560.868 910.344 557.631 908.586 556.063 905.858Z"/><path fill="#8F7785" d="M566.855 906.682C573.571 907.144 582.34 914.795 583.938 921.236C581.132 919.67 568.446 909.389 566.855 906.682Z"/><path fill="#8F7785" d="M584.915 910.446C592.705 909.998 598.926 913.87 600.757 921.68C601.698 921.874 585.394 910.843 584.915 910.446Z"/><path fill="#8F7785" d="M790.367 962.678C793.394 963.205 795.808 964.56 797.835 966.877C800.905 970.387 801.784 973.839 801.596 978.418C799.143 973.723 791.182 965.897 790.367 962.678Z"/><path fill="#8F7785" d="M770.407 969.193C774.828 968.483 778.774 968.944 782.734 971.171C785.522 972.737 787.59 974.529 788.496 977.689C782.37 975.007 776.656 971.736 770.407 969.193Z"/><path fill="#8F7785" d="M1069.79 985.741C1074.13 986.559 1087.05 985.669 1089.36 987.853C1086.93 988.627 1084.27 989.339 1081.73 989.576C1076.73 990.042 1073.64 988.843 1069.79 985.741Z"/><path fill="#8F7785" d="M839.295 961.622C841.112 962.091 842.461 963.03 843.844 964.291C847.587 967.701 848.805 972.339 848.997 977.215C845.752 973.198 841.35 966.373 839.295 961.622Z"/><path fill="#8F7785" d="M545.444 915.706C552.536 916.642 556.217 917.812 558.317 925.323C554.141 921.611 546.981 918.592 545.444 915.706Z"/><path fill="#8F7785" d="M945.822 969.748C950.554 970.55 955.398 970.515 960.187 970.64L961.166 971.856C959.027 972.612 956.849 973.422 954.562 973.529C950.744 973.707 948.511 972.127 945.822 969.748Z"/><path fill="#8F7785" d="M494.181 861.134C500.372 861.877 501.027 863.824 503.8 868.955C499.886 868.288 497.04 864.225 494.181 861.134Z"/><path fill="#C5CBD5" d="M1596.74 0L1820 0L1820 179.352C1803.42 173.397 1792.77 166.421 1786.45 147.997C1785.24 144.494 1786.7 139.109 1784.76 135.154C1780.41 133.996 1770.85 139.069 1765.33 137.429C1759.85 135.801 1751.65 129.811 1746.55 128.214C1743.58 132.476 1744.79 139.779 1740.37 146.861C1732.3 159.76 1721.11 168.922 1706.88 174.216C1695.81 178.332 1688.3 178.676 1677.75 173.779C1676.55 176.433 1674.79 180.633 1673.03 182.868C1659.19 200.461 1628.21 200.88 1609.87 192.801C1581.42 229.711 1519.22 240.309 1483.79 206.096C1483.3 205.626 1480.12 199.598 1479.35 198.362C1478.18 201.51 1480.39 206.861 1482.62 209.16C1516.19 243.675 1569.14 236.461 1603.57 209.54C1619.17 230.356 1634.27 249.11 1648.96 270.882C1620.8 293.72 1584.02 300.352 1552.43 279.681C1544.58 282.855 1541.37 283.412 1532.96 282.431C1516.03 280.454 1522.81 271.416 1520.41 268.153C1514.03 269.152 1504.36 277.101 1497.8 279.712C1465.54 292.561 1419.25 290.821 1394.64 263.491C1391.02 259.478 1391.29 251.17 1389.66 246.885C1388.66 244.238 1376.27 240.336 1373.87 237.796C1363.22 227.913 1369.24 214.025 1377.37 204.923C1391.99 188.56 1419.06 175.485 1440.64 174.086C1439.72 150.943 1450.58 141.843 1469.54 131.767C1469.02 129.83 1468.59 127.868 1468.26 125.89C1460.21 80.1951 1505.94 44.3084 1546.88 40.3851C1555.56 39.553 1565.64 41.725 1573.93 40.3428C1575.38 37.927 1574.74 30.9825 1575.27 27.7767C1577.14 16.4528 1588.61 6.76117 1596.74 0Z"/><path fill="#6E637D" d="M1669.57 34.0762C1671.51 33.7792 1677.71 33.6057 1679.97 33.4801C1667.38 37.2369 1657.63 38.7913 1645.59 45.3326C1631.98 52.7311 1617.88 67.062 1613.4 82.1173C1612.03 82.1167 1610.65 82.1499 1609.27 82.2168C1588.21 83.2221 1570.04 94.8485 1556.15 110.064C1554.05 108.028 1551.41 105.994 1549.12 104.123C1547.56 104.252 1546.01 104.427 1544.46 104.648C1528.43 106.99 1515.86 114.919 1506.31 127.803C1503.96 131.842 1501.65 136.588 1499.48 140.787C1504.78 115.559 1530.26 96.2565 1555.91 100.487C1572.87 85.8438 1586.77 78.4351 1609.04 76.2465C1611.21 71.3357 1613.94 66.6975 1617.19 62.4278C1630.46 45.1248 1648.45 36.885 1669.57 34.0762Z"/><path fill="#F3DAD4" d="M1662.22 1024C1653.72 1021.51 1639.38 1019.28 1630.3 1017.63C1611.75 1014.2 1593.19 1010.9 1574.6 1007.7L1421.12 980.454C1236.39 947.377 1051.46 915.435 866.344 884.63C850.318 881.979 716.283 860.197 715.091 859.483C714.48 856.684 714.693 856.214 715.522 853.44C719.434 851.266 756.638 857.724 764.475 858.581L901.373 873.68C1025.85 887.681 1150.87 898.354 1275.36 912.768C1457.18 933.987 1638.74 957.402 1820 983.009L1820 1024L1662.22 1024Z"/><path fill="#8F7785" d="M1324.71 937.199C1332.99 939.171 1341.44 937.434 1349.59 939.182L1350.04 940.395C1344.53 940.868 1326.02 943.727 1324.71 937.199Z"/><path fill="#6E637D" d="M1756.24 1009.25C1761.17 1008.6 1769.65 1007.66 1774.02 1010.14L1774.32 1011.87C1768.8 1012.1 1762.49 1012.72 1757.15 1011.14L1756.24 1009.25Z"/><path fill="#C5CBD5" d="M1820 720.948L1820 723.528L1820 947.761C1752.36 940.861 1683.81 930.991 1616.16 923.872C1600.47 922.22 1582.08 919.252 1566.82 918.209C1560.65 919.268 1526.49 915.615 1521.86 913.15C1523.83 890.405 1535.91 875.795 1556.07 865.905C1555.95 861.106 1556.09 857.35 1557.89 852.852C1572.22 817.076 1615.45 813.442 1646.55 824.826C1654.09 786.783 1696.73 769.883 1731.83 770.785C1746.04 738.594 1786.81 722.162 1820 720.948Z"/><path fill="#6E637D" d="M1820 720.948L1820 723.528C1791.06 726.055 1762.42 735.587 1743.1 758.506C1739.33 762.933 1736.14 767.823 1733.61 773.057C1698.41 774.107 1656.66 787.811 1648.76 826.985C1625.09 821.049 1602.51 818.559 1580.06 831.21C1572.01 835.741 1554.54 855.374 1558.99 864.644C1561.41 864.716 1566.08 864.423 1567.66 865.6C1565.33 867.917 1559.27 868.203 1555.91 869.804C1536.88 878.852 1527.94 893.23 1523.87 912.629C1534.33 914.007 1557.75 916.071 1566.82 918.209C1560.65 919.268 1526.49 915.615 1521.86 913.15C1523.83 890.405 1535.91 875.795 1556.07 865.905C1555.95 861.106 1556.09 857.35 1557.89 852.852C1572.22 817.076 1615.45 813.442 1646.55 824.826C1654.09 786.783 1696.73 769.883 1731.83 770.785C1746.04 738.594 1786.81 722.162 1820 720.948Z"/><path fill="#6E637D" d="M1690.6 820.574C1695.96 820.253 1708.45 820.252 1711.89 825.042L1711.2 827.04C1708.61 828.037 1702.69 824.542 1698.25 824.722C1689.45 825.077 1680.21 828.714 1676.17 837.154C1674.65 839.024 1674.86 851.214 1673.07 851.67C1664.53 853.849 1658.46 855.423 1651.65 862.015C1648.03 866.791 1646.15 874.713 1642.88 875.97C1640.76 871.981 1643.74 865.587 1645.86 862.106C1651.36 853.076 1658.68 850.095 1668.55 847.828C1670.9 832.413 1675.86 826.167 1690.6 820.574Z"/><path fill="#6E637D" d="M1760.41 884.936C1766.42 887.735 1768.58 894.857 1770.93 900.719C1780.13 889.799 1789.4 897.61 1785.26 908.679C1782.09 904.651 1783.01 901.455 1778.12 899.455C1775.05 900.51 1772.33 904.407 1770.13 907.032C1767.75 900.341 1760.74 889.251 1760.41 884.936Z"/><path fill="#6E637D" d="M1744.51 884.422C1753.57 886.603 1758.72 895.749 1760.23 904.286L1758.03 903.342C1756.09 899.959 1744.76 885.189 1744.51 884.422Z"/><path fill="#6E637D" d="M1734.99 900.549C1742.01 901.336 1747.19 903.15 1750.43 909.68C1746.81 909.383 1736.79 903.899 1734.99 900.549Z"/><path fill="#6E637D" d="M1724.98 905.162C1732.32 904.113 1735.67 905.218 1738.78 912.131C1734.97 910.502 1727.82 907.766 1724.98 905.162Z"/><path fill="#C5CBD5" d="M0 607.229C74.2241 619.522 128.62 660.608 149.672 734.063C154.489 734.629 159.46 735.174 164.222 736.083C210.848 744.98 237.49 788.92 242.705 833.612C272.775 834.214 303.031 843.42 321.725 868.586C335.091 864.099 345.446 860.827 359.597 860.31C407.515 858.561 449.762 880.504 472.889 922.762C494.136 918.697 516.127 923.232 534.033 935.372C548.296 945.231 556.812 957.712 562.505 973.962C609.887 967.949 663.318 979.713 688.876 1024L593.647 1024L586.358 1024C574.609 1018.1 561.924 1017.06 549.063 1015.76C527.072 970.541 492.883 950.188 442.519 958.64C421.415 905.919 369.049 884.318 315.139 893.802C310.603 886.931 305.23 880.65 299.146 875.104C278.073 856.158 245.577 846.325 217.555 847.889C197.353 791.73 158.697 760.206 98.5437 757.763C79.8183 710.535 47.3386 688.686 0 675.559L0 673.256L0 607.229Z"/><path fill="#6E637D" d="M0 673.256C35.2624 680.282 66.5619 697.964 86.8519 728.334C92.3901 736.666 96.9836 745.588 100.548 754.937C157.567 757.591 201.903 789.467 218.609 844.947C256.577 845.01 295.257 857.537 317.363 890.273C370.719 883.289 423.186 903.116 443.879 955.9C493.346 947.274 529.39 968.552 550.703 1013.28C566.339 1013.48 580.079 1015.72 593.647 1024L586.358 1024C574.609 1018.1 561.924 1017.06 549.063 1015.76C527.072 970.541 492.883 950.188 442.519 958.64C421.415 905.919 369.049 884.318 315.139 893.802C310.603 886.931 305.23 880.65 299.146 875.104C278.073 856.158 245.577 846.325 217.555 847.889C197.353 791.73 158.697 760.206 98.5437 757.763C79.8183 710.535 47.3386 688.686 0 675.559L0 673.256Z"/><path fill="#F7EFDC" d="M0 446.523C81.9153 474.402 165.878 521.442 239.249 567.182C238.987 588.922 238.526 610.659 237.867 632.391C237.647 640.382 237.658 657.516 236.394 664.684C234.044 666.871 230.115 666.673 226.79 666.769C216.944 630.548 175.156 620.218 146.916 644.077C133.089 630.533 114.586 632.81 100.753 645.132C66.2459 616.954 42.2021 609.428 0 600.435L0 446.523Z"/><path fill="#F3DAD4" d="M1787.85 162.348C1790.13 165.458 1792.78 168.696 1795.18 171.756C1791.29 196.599 1786.47 221.286 1780.72 245.765C1785.07 242.115 1792.43 234.195 1796.77 229.899C1804.76 221.996 1811.53 215.921 1820 208.679L1820 223.483C1818.27 225.11 1816.57 226.758 1814.88 228.428C1730.86 311.697 1771.59 407.162 1783.06 508.676C1788.34 555.385 1792.66 595.851 1792.49 643.379C1787.14 643.476 1782.78 643.961 1777.51 644.536C1779.85 622.061 1779.02 589.53 1778.39 566.938C1778.05 554.483 1772.49 478.62 1768.03 472.663C1767.74 473.028 1770.2 496.735 1770.56 500.015C1775.83 548.175 1777.63 596.062 1774.7 644.441C1764.08 645.54 1753.46 646.573 1742.83 647.541C1760.16 599.063 1759.6 523.164 1748.5 472.853C1747.84 479.345 1751.59 505.434 1752.16 514.526C1754.88 558.227 1754.62 607.007 1739.57 648.377L1720.08 650.949C1745.53 570.768 1748.93 459.152 1717.28 380.79C1694.5 324.367 1646.16 253.14 1606.95 206.339C1608.57 204.252 1610.88 201.712 1612.65 199.657C1627.06 217.365 1641.97 234.736 1655.93 252.803C1661.39 259.874 1665.6 266.247 1672.54 271.93C1670.82 238.25 1670.88 226.278 1673.73 192.383C1675.9 189.204 1679.27 183.213 1682.72 181.954C1684.14 183.39 1684.54 184.503 1684.38 186.653C1682.15 216.642 1679.48 246.493 1686.61 276.094C1694.98 310.824 1715.59 339.295 1731.7 370.525C1740.77 388.1 1743.63 404.597 1749.97 422.52C1749.75 412.301 1748 399.037 1746.57 388.837C1735.44 309.749 1771.68 238.177 1787.85 162.348Z"/><path fill="#C5CBD5" d="M1698.21 752.543C1697.57 731.903 1708.74 716.386 1723.64 703.257C1749.49 680.486 1786.14 671.512 1820 673.639L1820 720.948C1786.81 722.162 1746.04 738.594 1731.83 770.785C1696.73 769.883 1654.09 786.783 1646.55 824.826C1615.45 813.442 1572.22 817.076 1557.89 852.852C1556.09 857.35 1555.95 861.106 1556.07 865.905C1535.91 875.795 1523.83 890.405 1521.86 913.15C1515.64 911.422 1494.77 909.239 1487.67 908.415L1423.95 901.12C1442.47 876.259 1472.64 865.962 1502.8 869.488C1501.34 834.91 1527.14 804.617 1558.22 792.444C1578.9 784.345 1594.35 783.481 1614.75 793.32C1615.45 790.137 1616.4 787.014 1617.6 783.984C1628.17 756.933 1662.93 741.045 1690.34 749.633C1692.93 750.447 1695.67 751.546 1698.21 752.543Z"/><path fill="#B4A0A2" d="M1820 977.16C1805.13 976.274 1780.24 972.309 1764.8 970.352L1639.94 953.885C1517.87 937.644 1395.65 922.499 1273.31 908.451L849.733 863.19C805.517 858.337 761.31 854.758 717.35 847.972C715.462 847.68 714.836 845.717 714.299 844.326L715.454 843.18C732.196 843.736 750.25 846.888 767.127 848.31C823.212 853.035 879.17 861.125 935.357 864.342C949.086 865.128 962.841 865.591 976.571 866.367C998.246 867.783 1019.9 869.466 1041.54 871.417C1050.2 872.168 1071.81 873.086 1079.09 874.506L1079.9 874.67C1106.98 876.153 1134.6 879.056 1161.64 881.43C1216.98 886.148 1272.26 891.442 1327.49 897.312C1491.84 914.601 1656.02 933.503 1820 954.017L1820 960.818L1820 965.634L1820 977.16Z"/><path fill="#6E637D" d="M952.781 870.805C963.966 869.494 975.475 870.412 986.708 871.17L1039.91 875.286C1048.04 875.927 1061.95 877.331 1069.79 877.145C1072.47 874.348 1075.82 874.872 1079.9 874.67C1106.98 876.153 1134.6 879.056 1161.64 881.43C1216.98 886.148 1272.26 891.442 1327.49 897.312C1491.84 914.601 1656.02 933.503 1820 954.017L1820 960.818L1820 965.634C1808.79 965.017 1792.54 962.696 1781.15 961.338C1750.07 957.42 1719.02 953.333 1687.98 949.077C1610.91 938.944 1530.56 928.993 1453.38 920.39C1348.19 907.928 1242.85 896.755 1137.38 886.874C1100.07 883.47 1062.74 880.331 1025.39 877.457C1001.41 875.525 976.553 873.918 952.781 870.805Z"/><defs><linearGradient id="gradient_0" gradientUnits="userSpaceOnUse" x1="1443.1272" y1="921.15063" x2="1444.5823" y2="909.23071"><stop offset="0" stop-color="#D7BEBF"/><stop offset="1" stop-color="#FFE7DD"/></linearGradient></defs><path fill="url(#gradient_0)" d="M1079.9 874.67C1106.98 876.153 1134.6 879.056 1161.64 881.43C1216.98 886.148 1272.26 891.442 1327.49 897.312C1491.84 914.601 1656.02 933.503 1820 954.017L1820 960.818C1791.82 956.497 1760.55 953.123 1731.99 949.542L1587.94 931.41C1415.65 909.434 1242.89 891.341 1069.79 877.145C1072.47 874.348 1075.82 874.872 1079.9 874.67Z"/><path fill="#C5CBD5" d="M1770.62 386.343C1783.58 371.321 1801.72 361.308 1820 354.249L1820 641.025C1812.88 641.423 1805.77 642.009 1798.68 642.783C1798.63 605.248 1796.37 567.749 1791.93 530.478C1785.83 482.328 1776.34 433.941 1770.62 386.343Z"/><path fill="#B4A0A2" d="M1492.24 1024C1476.4 1019.71 1457.11 1016.49 1440.68 1013.16L1314.52 988.76L866.464 903.116C850.83 900.215 720.898 878.015 715.379 874.719L715.108 872.917C718.491 870.609 722.751 870.986 726.836 871.601C747.389 874.692 768.168 878.617 788.618 882.27L903.526 902.549C1044.51 927.059 1185.35 952.448 1326.02 978.717L1498.06 1011.16C1512.13 1013.96 1526.21 1016.67 1540.32 1019.27C1547.04 1020.5 1559.03 1022.34 1565.17 1024L1492.24 1024Z"/><path fill="#F3DAD4" d="M1599.9 1024C1346.74 976.305 1093.24 930.502 839.397 886.595C830.018 884.964 716.268 865.316 715.671 864.933L716.488 863.988C722.36 863.997 729.531 865.358 735.415 866.167C767.839 870.623 799.95 876.945 832.212 882.398L1087.25 925.36L1465.22 991.935L1574.45 1011.21C1590.4 1013.89 1606.31 1016.77 1622.18 1019.85C1628 1020.96 1638.27 1022.48 1643.52 1024L1599.9 1024Z"/><path fill="#F7EFDC" d="M1790.99 267.122C1801.7 279.447 1805.56 281.746 1820 289.202L1820 347.904C1800.59 353.398 1784.61 365.227 1769.67 378.259C1767.71 333.92 1769.66 306.814 1790.99 267.122Z"/><path fill="#C5CBD5" d="M1799.45 176.367C1806.44 180.263 1812.45 182.374 1820 184.773L1820 202.823C1807.6 211.87 1799.87 219.827 1789.19 230.682C1793.34 212.723 1796.76 194.603 1799.45 176.367Z"/><path fill="#C5CBD5" d="M1794.58 261.498C1801.63 249.841 1810.42 241.014 1820 231.52L1820 281.913C1806.24 275.223 1804.06 273.559 1794.58 261.498Z"/><path fill="#F3DAD4" d="M1117.68 193.281C1170.59 188.517 1234.4 215.675 1272.92 251.007C1314.87 288.835 1339.76 342.018 1341.93 398.474C1314.26 390.717 1288.29 402.07 1276.36 428.432L1338.24 428.598C1335.2 455.019 1330.73 472.265 1318.67 496.15C1295.17 505.777 1255.36 525.842 1233.28 538.796C1186.81 509.093 1165.28 508.289 1112.69 526.777C1082.74 537.307 1054.6 549.409 1025.37 561.813C1014.82 566.522 1004.15 570.94 993.353 575.062C961.003 552.935 939.136 525.129 925.844 488.146C942.456 488.015 1088.59 489.003 1093.47 487.007C1095.03 479.901 1086.86 469.438 1080.24 466.822C1066.93 461.568 1054.82 463.147 1042.23 469.238C1039.88 470.378 1035.24 463.67 1032.83 462.937C1031.37 461.98 1020.02 462.838 1019.37 462.275C1014.71 458.279 1013.38 446.706 1006.01 444.382C999.43 442.306 993.12 443.433 987.243 445.744C987.004 444.388 986.735 443.036 986.437 441.691C978.182 404.594 937.256 403.977 907.52 410.673C905.803 358.345 927.565 303.474 962.596 265.182C1004.08 219.842 1057.14 196.742 1117.68 193.281Z"/><path fill="#C5CBD5" d="M1511.01 475.066C1514.03 459.954 1522.94 451.67 1535.43 443.402C1568.2 421.701 1620.67 414.953 1651.26 444.106C1654.42 447.118 1657.04 452.767 1660.57 453.981C1663.44 451.952 1669.33 440.839 1672.01 438.024C1685.57 423.801 1702.39 414.514 1721.52 412.982C1742.06 500.455 1736.07 565.693 1714.14 651.243C1685.69 656.522 1652.85 658.499 1624.44 664.34L1624.27 627.519C1628.73 627.003 1637.69 626.672 1640.38 623.327L1640.24 621.621L1638.07 620.09C1635.62 620.244 1634.39 619.731 1632.78 621.707L1632.57 621.004C1628.1 618.229 1623.55 616.933 1618.59 615.262C1619.66 608.624 1620.6 593.361 1617.15 587.473L1617.08 582.211L1622.89 581.77C1626.87 584.318 1623.56 583.463 1626.5 585.535C1633.46 586.526 1656.19 575.846 1658.9 569.276L1658.48 567.305C1652.19 563.336 1641.62 560.44 1636.44 557.055C1616.67 544.133 1597.9 523.237 1585.81 503.386C1586.81 499.87 1589.68 490.498 1589.73 487.377C1590.06 466.076 1559.18 486.368 1550.66 490.476C1526.21 502.272 1501.07 512.401 1476.25 523.395C1464.12 528.847 1446.66 533.317 1436.33 540.968C1434.21 544.747 1436.88 550.241 1438.24 554.164C1414.84 572.111 1390.08 591.548 1364.05 605.549C1360.15 607.646 1355.42 608.107 1353.24 612.442C1353.66 620.224 1363.19 620.122 1369.28 620.667C1376.81 621.341 1384.18 621.298 1391.65 622.727L1391.74 637.936C1386.15 640.041 1372.38 644.346 1375.58 652.69C1380.2 656.23 1385.77 655.492 1391.1 654.453C1390.72 672.297 1390.73 690.147 1391.15 707.99C1366.11 713.066 1340.5 719.898 1315.62 726.091C1259.49 739.688 1203.72 754.715 1148.36 771.157C1137.73 738.926 1167.78 718.394 1196.51 716.979C1191.98 712.075 1192.39 712.236 1188.67 706.174C1179.2 690.688 1205.82 679.664 1206.47 675.911C1210.06 655.47 1213.88 648.046 1235.74 639.235C1250.29 633.371 1267.61 637.78 1281.91 645.137C1284.95 646.571 1285.49 646.878 1287.36 644.605L1287.48 643.605C1290.21 621.652 1314.05 604.079 1335.8 607.198C1338.4 607.593 1340.99 608.048 1343.57 608.563L1344.26 607.722C1340.88 593.869 1350.47 572.037 1358.03 560.435C1373.23 537.083 1398.11 522.834 1425.01 517.186C1425.65 517.052 1426.29 516.925 1426.94 516.806C1428.38 510.696 1429.57 504.649 1432.37 499.007C1447.15 469.277 1482.6 461.198 1511.01 475.066Z"/><path fill="#6E637D" d="M1617.08 582.211L1622.89 581.77C1626.87 584.318 1623.56 583.463 1626.5 585.535C1624.52 586.93 1623.85 586.825 1623.66 589.313C1623.05 596.913 1623.42 605.771 1623.59 613.32C1628.36 615.523 1633.39 617.751 1638.07 620.09C1635.62 620.244 1634.39 619.731 1632.78 621.707L1632.57 621.004C1628.1 618.229 1623.55 616.933 1618.59 615.262C1619.66 608.624 1620.6 593.361 1617.15 587.473L1617.08 582.211Z"/><path fill="#6E637D" d="M1347.31 635.043C1349.52 635.169 1354.16 635.68 1355.71 637.186C1330.82 641.702 1322.29 644.993 1320.45 671.387C1316.86 673.302 1306.09 671.77 1299.49 673.599C1282.36 678.343 1273.35 685.432 1264.19 699.898C1263.05 702.441 1262.17 704.753 1260.37 706.902L1259.76 706.132C1268.41 668.242 1314.7 666.91 1314.9 666.433C1321.58 650.085 1319.68 637.054 1347.31 635.043Z"/><path fill="#F7EFDC" d="M710.289 565.622C815.907 618.034 920.409 674.849 1030.94 716.42C1066.21 729.686 1103.34 742.762 1140.39 749.81C1139.52 760.18 1139.41 763.088 1143.22 772.761C1132.24 775.884 1121.31 779.169 1110.43 782.616C1091.77 787.827 1069.63 795.048 1051.43 801.415C1018.33 812.999 1015.68 817.051 980.397 807.855C889.215 784.093 794.692 745.576 712.624 699.516C712.413 655.225 710.833 610.06 710.289 565.622Z"/><path fill="#F7EFDC" d="M333.724 478.479C351.777 485.948 387.228 506.189 404.425 516.289C440.185 537.227 475.492 558.933 510.319 581.391C533.046 596.024 555.851 610.534 578.735 624.921C596.402 635.865 614.599 646.346 632.066 657.525L628.987 762.548L628.562 763.555L627.089 764.137C560.107 745.362 478.454 702.857 417.677 668.368C390.24 652.798 364.461 636.386 336.216 621.849C333.944 577.176 334.298 523.558 333.724 478.479Z"/><path fill="#F7EFDC" d="M331.517 361.398C347.435 366.607 367.744 371.514 384.278 376.337L535.88 420.422C567.909 429.586 606.349 439.583 637.501 450.294C636.919 477.465 636.199 504.632 635.34 531.795C628.333 529.731 620.634 528.06 613.475 526.376C572.862 518.976 550.196 526.577 511.55 537.795C497.968 541.738 481.161 545.652 468.124 551.27C424.778 523.395 379.897 497.982 333.694 475.152C331.157 442.455 331.608 394.779 331.517 361.398Z"/><path fill="#F7EFDC" d="M1162.18 517.683C1168.27 517.054 1174.42 517.241 1180.46 518.239C1189.76 519.773 1201.29 523.793 1209.38 528.33C1246.56 549.172 1281.53 573.539 1322.37 587.21C1325.65 588.31 1336.39 592.011 1338.07 594.364C1338.77 605.493 1337 600.248 1327.87 601.31C1306.46 603.801 1287.43 618.323 1282.43 639.75C1276.36 636.258 1269.77 633.769 1262.9 632.378C1236.8 627.237 1207.21 640.191 1201.94 668.185C1184.66 665.974 1166.79 662.236 1149.75 658.758C1076.07 641.978 1020.32 623.367 950.934 593.765C999.093 579.413 1044.17 555.239 1091.3 537.78C1113.79 529.448 1138.42 520.571 1162.18 517.683Z"/><path fill="#F7EFDC" d="M837.329 563.022C866.25 558.152 902.367 576.938 928.332 587.67C948.22 595.891 967.974 604.791 988.086 612.558C1033.06 630.221 1079.15 644.897 1126.06 656.492C1153.69 663.079 1177.75 667.061 1205.24 672.234C1204.26 672.675 1203.29 673.128 1202.32 673.594C1185.69 681.626 1176.64 694.666 1185.56 712.527C1183.04 713.209 1180.52 713.93 1178.01 714.691C1158.12 720.798 1150.42 729.733 1141.09 747.228L1127.99 743.836C1106.16 737.949 1085.42 732.761 1064.01 725.38C999.38 703.1 938.243 674.783 876.815 645.103C835.464 625.071 794.221 604.818 753.088 584.344C779.225 576.108 810.517 565.862 837.329 563.022Z"/><path fill="#F3DAD4" d="M287.076 176.332C299.114 180.485 311.759 185.444 323.745 189.923L330.699 687.42L332.822 807.99C332.993 817.251 334.166 852.117 333.2 857.755C330.655 860.474 329.771 859.946 325.514 861.063C322.681 861.8 320.605 857.917 318.215 855.462C306.926 843.866 295.613 838.183 280.542 833.058L287.076 176.332Z"/><path fill="#F7EFDC" d="M336.359 624.811C342.709 627.74 350.923 632.247 356.99 635.943C443.471 688.631 531.695 737.254 628.786 767.808C628.474 785.949 627.962 804.085 627.248 822.214L612.739 822.266C594.644 822.166 576.548 822.296 558.456 822.655C553.719 795.272 534.991 784.541 509.337 795.265C508.968 793.181 508.495 791.115 507.922 789.077C501.265 765.469 480.91 754.398 457.541 761.455C442.92 730.194 414.2 725.961 385.942 742.12C377.17 720.035 361.505 708.385 337.598 708.416C336.974 680.551 336.562 652.682 336.359 624.811Z"/><path fill="#F3DAD4" d="M673.269 318.517C682.726 321.847 690.728 324.826 700.035 328.711C701.392 379.063 711.071 878.149 708.288 881.794L704.939 881.89C692.667 881.681 679.937 881.902 667.622 881.972L670.955 600.8C672.413 506.713 673.184 412.616 673.269 318.517Z"/><path fill="#F3DAD4" d="M153.526 75.7051C158.09 77.3095 177.599 87.8315 183.389 90.5624C204.143 100.189 225.114 109.34 246.286 118.009C361.041 165.961 476.503 212.204 592.633 256.722C656.444 280.709 733.542 311.701 800.293 323.809L788.797 338.288L778.57 350.964C763.57 343.563 738.429 335.875 721.876 329.832L584.676 280.923C494.238 248.437 404.484 212.583 314.159 179.679C270.009 163.596 225.767 147.071 182.268 129.291C180.595 126.526 178.657 122.873 177.23 119.97C170.034 105.334 160.06 90.5217 153.526 75.7051Z"/><path fill="#F3DAD4" d="M278.902 329.654C280.784 331.762 280.493 332.753 280.457 336.124C280.225 357.708 279.904 379.33 279.642 400.91L277.675 549.22C276.578 642.374 276.796 737.929 274.622 830.802C270.534 830.021 248.822 827.478 247.345 826.398C245.332 813.826 241.049 803.52 239.551 792.422C238.742 786.423 239.656 769.456 239.851 762.771L241.107 715.56L245.986 550.884L249.453 414.322C249.959 390.747 249.954 365.477 251.128 342.107C260.218 338.543 269.945 333.785 278.902 329.654Z"/><path fill="#F7EFDC" d="M712.692 703.179C728.412 710.73 745.072 720.26 761.304 728.238C801.053 747.849 841.788 765.391 883.348 780.795C904.368 788.414 925.515 796.047 946.998 802.229C956.253 804.921 965.561 807.429 974.916 809.749C980.131 810.988 1001.54 814.868 1004.45 816.503L1002.92 817.724C999.718 819.402 996.527 820.579 992.866 820.582C947.689 820.615 902.403 820.268 857.226 820.579C809.769 820.906 761.77 819.649 714.378 821.002C713.596 781.731 713.034 742.456 712.692 703.179Z"/><path fill="#B4A0A2" d="M133.604 26.1242C137.916 27.2766 155.734 39.1878 161.948 42.5301C187.292 56.0622 212.949 69.0002 238.897 81.3337C350.605 133.977 464.139 182.654 579.285 227.273C650.909 255.135 779.875 309.736 854.216 295.022C850.832 300.528 847.992 304.063 843.986 309.111C830.349 321.592 817.538 321.584 800.577 318.376C741.252 307.158 684.941 284.776 628.488 264.008C539.378 230.909 450.92 196.079 363.164 159.539C314.074 139.535 264.229 120.459 215.774 98.883C193.627 89.0217 171.195 79.0791 150.239 66.8476C144.646 55.6464 138.335 38.1996 133.604 26.1242Z"/><path fill="#F3DAD4" d="M330.496 283.016C345.179 288.829 360.016 293.209 375.01 298.043L450.985 322.422C522.95 346.399 595.093 369.838 667.408 392.737C667.424 406.085 667.178 419.431 666.671 432.77C662.957 433.072 579.692 406.958 570.165 404.128L389.768 350.526C370.451 344.645 350.266 339.198 331.251 332.919C330.739 316.29 330.487 299.653 330.496 283.016Z"/><path fill="#C5CBD5" d="M337.799 713.815C361.142 714.703 375.891 726.712 381.541 749.494L385.782 747.492C419.009 731.96 440.03 735.601 455.739 771.03C471.719 756.827 490.908 767.717 499.479 784.201C502.564 790.134 503.655 796.496 506.177 802.606C511.173 802.76 518.544 796.262 526.57 796.693C535.879 797.193 540.302 800.446 546.659 806.978C549.517 810.988 552.974 817.531 551.265 822.399C545.622 823.312 531.103 823.085 524.825 823.085L478.616 823.045L338.866 823.588C337.525 789.941 337.898 747.91 337.799 713.815Z"/><path fill="#6E637D" d="M445.023 784.228C458.852 783.33 474.396 791.651 473.074 807.054L472.136 807.463L471.069 805.08C459.728 779.117 444.176 792.204 439.186 787.27C441.329 785.368 442.364 785.189 445.023 784.228Z"/><path fill="#6E637D" d="M391.255 764.564C395.828 764.004 403.461 763.895 406.6 767.833C402.395 769.115 399.987 766.8 393.544 767.786L392.678 767.926C388.488 769.211 382.443 773.077 379.538 772.959C381.939 768.437 386.778 766.593 391.255 764.564Z"/><path fill="#F3DAD4" d="M666.27 441.769C668.045 446.421 665.202 573.702 664.994 590.983L662.123 881.86C652.157 881.569 642.186 881.471 632.216 881.568C631.772 879.183 632.433 854.717 632.501 851.191C633.099 819.893 633.92 788.599 634.963 757.313L640.205 566.378C641.09 531.031 641.199 486.015 643.457 451.315L666.27 441.769Z"/><path fill="#F7EFDC" d="M571.318 526.578C590.533 523.72 616.749 529.603 635.291 534.611C633.327 573.821 634.414 615.608 631.913 653.767C612.825 641.518 592.598 630.328 572.984 617.651C538.848 596.587 504.765 574.114 470.688 552.712C494.618 544.547 547.884 529.136 571.318 526.578Z"/><path fill="#F7EFDC" d="M1380.94 481.284C1400.95 481.62 1412.25 484.315 1430.96 490.791C1427.05 498.014 1425.49 503.612 1423.31 511.377C1379.27 523.362 1351.63 544.018 1338.8 589.575C1325.7 586.036 1314.89 581.648 1302.47 576.489C1276.96 564.316 1259.86 555.213 1235.76 540.477C1274.06 519.466 1338.43 483.428 1380.94 481.284Z"/><path fill="#C5CBD5" d="M172.254 637.552C199.997 635.206 216.365 647.289 222.758 672.696C223.686 676.384 230.934 671.034 235.456 672.876C237.603 677.23 235.513 709.634 235.475 717.609C229.55 704.389 221.977 698.28 206.95 699.936C205.837 700.059 206.161 700.199 205.441 701.139C207.319 703.257 211.679 702.019 216.148 703.605C227.115 707.495 230.296 715.218 235.143 724.554C233.744 740.117 234.027 766.112 233.724 782.471C230.172 776.393 227.265 772.446 223.053 766.782C222.478 766.037 221.893 765.3 221.299 764.57C202.194 741.108 183.033 732.107 153.383 729.041C143.993 693.834 131.069 674.24 105.48 649.048C120.52 637.591 133.796 637.789 147.551 651.157C156.442 642.588 159.87 640.129 172.254 637.552Z"/><path fill="#F7EFDC" d="M238.716 455.352L241.258 455.208C242.991 457.371 241.557 484.209 241.458 488.584C240.889 513.696 239.999 538.839 239.159 563.944C215.816 549.143 192.137 534.879 168.14 521.164L118.394 494.708C158.593 481.964 196.805 463.111 238.716 455.352Z"/><path fill="#F7EFDC" d="M330.462 225.342C340.741 230.146 354.235 233.896 365.121 237.935C396.329 249.515 430.372 258.532 461.229 270.487C461.216 286.789 461.859 303.964 462.215 320.325C419.215 305.558 372.945 292.702 330.604 277.446C330.265 260.08 330.217 242.71 330.462 225.342Z"/><path fill="#F7EFDC" d="M1719.1 210.322C1733.28 219.307 1752.55 219.153 1768.52 216.557C1750.67 272.774 1737.57 308.735 1738.41 369.078L1737.05 368.529C1725.39 348.363 1714.18 327.658 1703.92 306.726C1692.87 284.174 1689.07 265.163 1688.23 240.188C1701.63 234.268 1712.5 223.319 1719.1 210.322Z"/><path fill="#F3DAD4" d="M167.266 233.91C204.091 244.047 244.487 256.956 280.846 268.461C280.908 286.472 280.703 304.482 280.232 322.486C266.371 319.244 249.976 313.519 236.17 309.318L168.33 289.178C167.862 271.663 166.792 251.158 167.266 233.91Z"/><path fill="#F7EFDC" d="M522.822 293.57C524.831 294.112 527.014 294.91 528.987 295.615C565.669 308.719 603.154 320.482 639.466 334.565C639.782 348.938 639.814 363.316 639.561 377.69C634.338 376.628 611.515 368.573 605.171 366.54C577.78 358.047 550.52 349.137 523.4 339.813L522.822 293.57Z"/><path fill="#B4A0A2" d="M1568.73 486.132L1569.79 486.613C1561.89 538.598 1479.54 568.095 1436.86 582.577C1422.69 587.388 1403.95 595.493 1389.41 597.998L1388.32 597.213C1405.92 583.985 1430.5 570.084 1445.32 554.353C1445.3 549.949 1439.93 549.089 1441.04 543.932C1445.09 541.09 1475.33 529.131 1481.46 526.457C1512.08 513.102 1539.07 501.78 1568.73 486.132Z"/><path fill="#F3DAD4" d="M331.292 338.909C340.239 340.926 355.455 345.975 364.639 348.702L439.253 371.076C510.898 392.165 582.501 413.56 653.941 435.333C656.515 436.117 657.669 436.082 658.936 437.905L656.399 439.106L641.691 445.054C608.878 436.731 568.192 423.649 534.8 413.931L331.499 355.592L331.292 338.909Z"/><path fill="#C5CBD5" d="M1749.2 135.882C1761.82 142.222 1765.56 143.485 1779.73 143.047C1782.26 149.817 1783.39 152.636 1782.22 160.023C1779.57 176.847 1774.59 193.787 1770.26 210.264C1751.27 213.959 1733.25 213.165 1716.13 203.391L1710.95 213.702C1704.12 223.541 1698.33 228.864 1688.14 234.883C1688.19 224.857 1688.46 214.832 1688.95 204.818C1704.37 200.444 1715.52 191.153 1718.81 175.092C1734.96 163.628 1743.27 155.624 1749.2 135.882Z"/><path fill="#F7EFDC" d="M1527.65 618.892C1534.6 620.367 1547.48 620.642 1553.04 622.941L1556.05 622.754C1559.72 622.818 1565.88 623.838 1568.03 623.783C1571.22 622.788 1592.22 625.279 1595.6 626.142L1594.51 626.995C1598.14 628.064 1603.43 628.416 1607.31 628.814L1607.59 667.029C1602.18 667.697 1587.4 669.415 1582.54 671.445L1584.34 671.744C1582.51 672.2 1579.21 673.184 1577.57 672.203C1570.44 672.275 1560.98 674.727 1556.18 674.637C1554.63 674.521 1554.23 674.235 1552.99 674.794C1549.02 676.935 1533.07 679.242 1527.7 680.142L1527.65 618.892Z"/><path fill="#F7EFDC" d="M1527.65 618.892C1534.6 620.367 1547.48 620.642 1553.04 622.941C1552.5 639.938 1553.13 657.685 1552.99 674.794C1549.02 676.935 1533.07 679.242 1527.7 680.142L1527.65 618.892Z"/><path fill="#F7EFDC" d="M1582.38 625.559C1586.43 626.325 1590.41 626.622 1594.51 626.995C1598.14 628.064 1603.43 628.416 1607.31 628.814L1607.59 667.029C1602.18 667.697 1587.4 669.415 1582.54 671.445C1581.47 662.214 1582.28 635.507 1582.38 625.559Z"/><path fill="#6E637D" d="M1568.03 623.783C1571.22 622.788 1592.22 625.279 1595.6 626.142L1594.51 626.995C1590.41 626.622 1586.43 626.325 1582.38 625.559C1582.28 635.507 1581.47 662.214 1582.54 671.445L1584.34 671.744C1582.51 672.2 1579.21 673.184 1577.57 672.203C1580.49 669.53 1579.21 632.351 1579.17 625.651C1575.41 625.138 1571.77 624.464 1568.03 623.783Z"/><path fill="#6E637D" d="M1553.04 622.941L1556.05 622.754L1556.18 674.637C1554.63 674.521 1554.23 674.235 1552.99 674.794C1553.13 657.685 1552.5 639.938 1553.04 622.941Z"/><path fill="#F3DAD4" d="M920.274 828.85C937.853 828.106 957.38 828.484 975.109 828.484C959.663 833.96 944.115 839.14 928.472 844.022C917.958 847.346 904.508 851.082 894.888 855.902C857.223 851.462 818.136 848.338 780.266 844.634C771.492 844.239 719.237 839.742 713.606 835.679C717.372 834.569 756.276 834.06 762.479 833.811C815.164 831.696 867.558 829.842 920.274 828.85Z"/><path fill="#F3DAD4" d="M329.599 191.625C333.132 193.134 336.985 194.42 340.593 195.791C388.28 213.909 436.728 230.388 484.073 249.384L473.657 255.277C469.201 257.847 464.6 261.046 460.287 263.911C438.775 257.49 413.87 247.857 392.289 240.648C372.192 233.934 350.015 227.081 330.443 219.905C329.802 210.576 329.759 200.992 329.599 191.625Z"/><path fill="#B4A0A2" d="M1448.48 633.775C1438.51 635.576 1386.21 654.637 1381.57 648.942C1382.01 648.037 1382.53 647.338 1383.29 646.663C1391.71 639.199 1511.84 601.577 1522.66 601.569C1530.3 601.564 1538.78 603.753 1546.4 604.816C1567.24 607.722 1588.18 611.15 1609.09 613.415C1611.46 613.671 1614.26 614.348 1616.12 612.826L1615.8 611.399L1612.91 610.014C1610.35 605.783 1610.18 590.482 1613.18 586.578C1615.9 586.541 1615.07 586.186 1617.15 587.473C1620.6 593.361 1619.66 608.624 1618.59 615.262C1623.55 616.933 1628.1 618.229 1632.57 621.004C1629.33 623.03 1622.88 623.017 1618.96 623.218C1619.07 632.739 1619.95 655.64 1618.47 663.936C1616.97 665.809 1617.73 665.226 1615.22 665.933L1613.64 664.858C1610.61 658.63 1611.97 632.744 1612.1 624.135C1580.39 621.717 1547.67 615.431 1516.28 613.791C1514.75 613.711 1459.53 631.12 1455.62 632.746C1455.67 646.054 1455.76 659.411 1455.73 672.715C1455.72 677.345 1456.47 691.786 1453.99 694.617C1450.9 695.46 1452.08 695.57 1449.42 694.527C1447.86 691.977 1448.52 642.121 1448.48 633.775Z"/><path fill="#F3DAD4" d="M144.618 71.904C146.553 73.1868 172.428 123.581 175.376 129.372C161.456 134.921 146.925 140.665 132.802 145.72C130.354 146.596 130.674 146.332 128.774 145.272C118.31 133.412 102.198 112.396 94.0003 99.3241C110.704 89.8766 127.58 80.7351 144.618 71.904Z"/><path fill="#B4A0A2" d="M1581.07 512.82C1580.75 510.048 1581.13 509.302 1579.58 507.368C1576.8 510.708 1574.14 515.868 1571.52 519.518C1558.33 537.898 1529.92 560.128 1509.8 568.914C1494.3 575.683 1367.51 620.923 1359.2 614.22C1360.57 612.426 1362.23 611.343 1364.49 610.839C1371.13 609.359 1377.25 606.297 1383.78 604.656C1408.09 598.539 1431.15 588.822 1454.77 580.579C1472.89 574.191 1491.66 568.385 1508.43 558.832C1532.03 545.099 1555.88 530.301 1568.49 505.058C1571.91 498.211 1573.82 485.812 1580.32 481.718L1582.28 481.706C1587.04 486.619 1582.49 498.051 1580.77 503.675C1600.69 535.037 1619.73 555.958 1654.59 569.825C1651.69 571.391 1645.17 574.691 1642.71 576.401L1643.11 577.403C1641.46 577.755 1638.51 578.234 1637.14 578.928L1636.98 578.459C1627.68 569.213 1579.56 525.099 1581.14 513.608L1581.07 512.82Z"/><path fill="#6E637D" d="M1581.14 513.608C1590.5 525.641 1628.89 571.664 1640.53 576.628L1642.71 576.401L1643.11 577.403C1641.46 577.755 1638.51 578.234 1637.14 578.928L1636.98 578.459C1627.68 569.213 1579.56 525.099 1581.14 513.608Z"/><path fill="#F3DAD4" d="M176.989 134.154C180.522 135.057 183.794 136.226 187.157 137.622C217.076 150.041 248.356 160.457 278.03 173.341C268.78 177.355 257.559 184.108 247.839 187.317C246.989 187.597 243.952 186.656 242.933 186.326C233.109 182.413 219.759 178.346 209.411 174.733L137.731 149.629C150.794 145.125 164.237 139.467 176.989 134.154Z"/><path fill="#F3DAD4" d="M522.515 263.529C568.87 281.441 615.582 298.413 662.623 314.436L654.568 318.38L637.332 327.363C599.882 314.371 560.061 299.278 522.66 287.318L522.515 263.529Z"/><path fill="#B4A0A2" d="M126.943 27.3635L127.893 27.5438C129.274 28.6481 141.131 61.3485 143.276 66.6371C126.028 74.2872 107.76 85.3703 91.1297 94.797C83.9744 85.7676 78.213 73.7353 74.8951 62.7407C78.2551 59.9044 89.4297 53.0415 93.6051 50.2524C104.757 42.6798 115.87 35.05 126.943 27.3635Z"/><path fill="#F3DAD4" d="M707.133 404.002C727.433 411.35 748.968 417.59 769.664 425.015C769.521 437.293 769.488 449.572 769.567 461.851C751.196 457.35 727.485 449.053 708.323 443.66C707.733 430.448 707.336 417.227 707.133 404.002Z"/><path fill="#F3DAD4" d="M280.607 177.746C282.045 179.93 281.001 255.084 280.973 263.079L261.396 256.786L252.343 254.035L251.997 191.737C261.63 187.273 271.169 182.609 280.607 177.746Z"/><path fill="#F3DAD4" d="M164.525 294.099C170.132 294.818 192.82 302.374 200.025 304.557C224.666 312.051 249.375 319.318 274.149 326.357L250.825 336.444C244.779 338.46 155.878 310.208 141.972 306.144C149.523 302.192 157.041 298.177 164.525 294.099Z"/><path fill="#F3DAD4" d="M491.319 252.194C499.963 255.373 508.582 258.619 517.175 261.934L517.416 338.385C509.55 336.194 499.204 332.235 491.311 329.473C491.513 303.74 490.884 277.88 491.319 252.194Z"/><path fill="#F7EFDC" d="M1529.47 574.172C1551.57 578.833 1582.86 580.999 1606.69 585.154L1607.25 608.839C1600.43 607.357 1588.96 606.199 1581.64 605.206C1564.24 602.91 1546.85 600.506 1529.48 597.993L1529.47 574.172Z"/><path fill="#F7EFDC" d="M1509.88 620.59L1511.18 620.88C1512.21 623.89 1511.58 676.579 1511.57 683.148C1503.87 684.891 1495.63 686.302 1487.84 687.763L1486.51 686.874C1485.76 682.3 1486.01 671.156 1486 666.122L1485.89 628.01C1493.47 625.217 1502.06 622.879 1509.88 620.59Z"/><path fill="#F3DAD4" d="M159.893 234.566C161.08 234.725 160.54 234.63 161.672 235.487C161.652 253.352 161.918 271.215 162.47 289.071C154.647 293.207 146.878 297.444 139.165 301.783L138.585 301.798C136.637 299.22 136.969 253.528 136.864 246.305C144.446 242.96 152.502 238.482 159.893 234.566Z"/><path fill="#F7EFDC" d="M1480.9 629.418C1481.87 629.558 1481.68 629.708 1482.68 630.532C1483.66 648.403 1483.14 670.599 1483.21 688.789L1462.13 692.952L1460.63 692.947C1459.57 691.162 1460.03 641.895 1460.03 635.615L1480.9 629.418Z"/><path fill="#F3DAD4" d="M665.738 319.873C667.458 319.863 666.649 319.637 668.154 320.808C668.1 342.791 667.907 364.772 667.576 386.752L652.502 381.848L645.584 379.646C644.96 363.97 645.336 345.677 645.268 329.799C652.121 326.552 658.945 323.243 665.738 319.873Z"/><path fill="#F7EFDC" d="M1571.6 526.777C1573.49 528.234 1582.06 540.857 1584.89 543.957C1594.54 554.53 1603.37 561.915 1614.7 570.478C1604.01 568.523 1592.8 566.951 1582.02 565.285C1566.42 563.449 1550.45 562.074 1535.02 559.301C1551.62 547.776 1558.56 542.052 1571.6 526.777Z"/><path fill="#B4A0A2" d="M1581.07 512.82L1581.14 513.608C1579.56 525.099 1627.68 569.213 1636.98 578.459C1631.72 581.494 1626.34 580.385 1622.89 581.77L1617.08 582.211C1605.93 577.25 1533.54 573.579 1529.64 569.251C1529.01 565.638 1528.78 566.877 1529.89 563.894C1532.65 562.906 1541.56 565.379 1545.43 565.82C1563.3 567.862 1581.17 569.543 1599 571.951C1608.53 573.239 1619.75 576.767 1629.28 575.937C1629.1 574.628 1618.88 568.46 1616.78 566.942C1600.01 554.707 1585.74 539.383 1574.73 521.795C1576.72 518.708 1578.9 515.789 1581.07 512.82Z"/><path fill="#F7EFDC" d="M1509.41 574.184L1510.53 574.325C1512.01 576.61 1511.63 594.846 1511.66 598.682C1496.72 604.167 1477.44 609.662 1462.06 614.126C1460.84 614.055 1461.45 614.185 1460.31 613.299C1459.54 607.544 1459.55 598.199 1459.4 592.113C1475.87 586.356 1493.24 580.561 1509.41 574.184Z"/><path fill="#C5CBD5" d="M1667.99 196.65C1668.84 198.159 1667.34 208.954 1667.12 211.451C1665.67 226.966 1665.46 242.572 1666.5 258.12C1661.65 250.815 1653.09 240.763 1647.41 233.691C1639.26 223.442 1631.36 213.32 1622.63 203.547C1640.96 204.477 1651.03 204.016 1667.99 196.65Z"/><path fill="#F3DAD4" d="M483.874 256.87C484.537 256.876 484.62 257.17 485.383 257.734C486.465 278.059 485.948 307.358 485.673 327.935L475.21 324.306C472.077 323.459 471.12 323.204 468.158 321.738C466.997 319.347 467.161 273.733 466.741 266.061L483.874 256.87Z"/><path fill="#F7EFDC" d="M1442.04 641.036L1443.89 641.028C1445.56 643.58 1444.5 689.587 1444.58 696.387C1438.86 697.589 1433.15 698.85 1427.45 700.17C1426.99 700.273 1425.1 700.357 1424.51 700.397C1422.72 698.049 1423.49 652.357 1423.52 645.879C1429.15 644.142 1436.23 642.52 1442.04 641.036Z"/><path fill="#F3DAD4" d="M705.557 330.059C728.237 338.311 750.965 346.434 773.739 354.427L766.406 357.987C760.703 360.59 756.289 362.346 750.395 364.486C736.567 360.196 721.015 353.488 706.336 348.697C705.733 342.887 705.72 335.973 705.557 330.059Z"/><path fill="#F7EFDC" d="M1418.99 647.291L1419.46 647.59C1421.45 650.56 1420.82 694.808 1420.83 701.749L1403.91 705.498C1401.76 703.023 1402.36 697.944 1402.37 694.504C1402.41 680.246 1402.53 665.985 1402.63 651.727L1418.99 647.291Z"/><path fill="#F7EFDC" d="M1442.81 597.418L1444.24 598.22C1445.09 602.861 1444.75 614.362 1444.72 619.617C1431.48 623.209 1418.23 627.937 1405.23 632.358L1404.42 632.517L1403.43 631.58C1402.79 625.702 1403.28 616.224 1403.43 610.022C1416.29 606.29 1430 601.577 1442.81 597.418Z"/><path fill="#B4A0A2" d="M713.309 826.46C719.3 825.147 755.068 825.565 763.095 825.511L876.056 824.314L876.562 825.008L875.424 826.301C856.572 826.416 719.193 832.562 714.688 829.335L713.309 826.46Z"/><path fill="#F3DAD4" d="M708.263 449.151C714.36 450.918 761.577 465.099 763.183 466.942L761.359 468.014L748.502 472.696L708.486 460.972L708.263 449.151Z"/><path fill="#B4A0A2" d="M1516.07 616.651C1519.44 617.179 1520.26 617.297 1523.49 618.591C1524.56 623.959 1523.71 672.424 1523.64 680.847C1520.78 681.452 1519.05 682.145 1516.32 681.23C1514.46 674.067 1516.03 626.798 1516.07 616.651Z"/><path fill="#F7EFDC" d="M582.607 836.882C583.306 836.742 584.105 836.924 584.883 837.011C584.568 839.207 584.565 839.836 584.708 842.053C590.599 849.148 624.477 846.786 626.393 853.663C623.681 855.668 612.508 853.102 608.941 852.491C600.268 851.248 591.632 849.766 583.041 848.046C578.124 847.036 564.134 844.677 561.537 840.73C564.585 837.306 577.753 837.218 582.607 836.882Z"/><path fill="#C5CBD5" d="M1714.77 177.062L1715.44 177.714C1715.61 187.376 1698.58 196.912 1690.59 199.926L1689.93 199.303C1689.25 196.151 1690.67 186.525 1691.08 182.794C1700.11 182.048 1706.27 179.849 1714.77 177.062Z"/><path fill="#B4A0A2" d="M1523.53 566.99C1524.25 567.095 1524.31 567.397 1525.07 568.057C1525.96 574.165 1525.94 590.209 1525.39 596.412C1523.25 597.735 1520.7 597.286 1517.8 597.355L1516.8 597.063C1514.39 593.8 1515.45 576.643 1515.54 571.34L1523.53 566.99Z"/><path fill="#B4A0A2" d="M559.606 844.643C579.848 852.418 602.702 853.643 623.583 858.897C626.143 859.541 626.167 860.931 627.1 863.145C616.379 863.304 574.896 853.103 563.842 848.732C561.048 847.628 560.454 847.032 559.606 844.643Z"/><path fill="#B4A0A2" d="M1394.94 652.655L1397.81 653.635C1399.82 657.967 1399.41 701.162 1398.59 707.673C1397.6 707.298 1396.5 706.737 1395.52 706.275C1393.59 701.377 1394.32 659.777 1394.94 652.655Z"/><path fill="#B4A0A2" d="M1452.55 593.099L1454.74 594.015C1456.73 597.705 1456.14 609.015 1455.45 613.338C1454.9 616.745 1454.23 616.542 1451.63 618.409L1449.88 617.604C1447.7 614.337 1448.14 603.949 1448.6 599.888C1449.13 595.115 1449.35 595.702 1452.55 593.099Z"/><path fill="#B4A0A2" d="M588.563 838.435C596.081 839.413 620.093 842.213 625.928 844.499L627.042 847.081C621.516 847.251 591.118 842.171 588.563 838.435Z"/><path fill="#B4A0A2" d="M1395.88 610.826L1398.19 611.762C1400.23 614.586 1399.37 631.47 1399.29 636.194C1397.76 636.272 1397.51 636.162 1396.03 635.943C1393.8 631.6 1394.9 615.865 1395.88 610.826Z"/><path fill="#F3DAD4" d="M612.435 835.557C617.987 835.364 621.995 834.844 627.216 836.91L626.906 838.142C618.753 839.917 616.7 839.057 608.505 838.066L607.637 837.264L607.994 836.467L612.435 835.557Z"/><path fill="#B4A0A2" d="M875.424 826.301C880.617 823.452 893.188 824.237 899.357 824.524L900.633 825.577C893.756 825.893 882.199 826.503 875.424 826.301Z"/><path fill="#B4A0A2" d="M905.534 824.389C909.318 823.442 923.215 824.017 927.525 824.415L927.712 825.135L925.107 825.237L906.573 825.567L905.534 824.389Z"/><path fill="#B4A0A2" d="M1389.92 613.521L1391.28 614.429L1391.13 616.767C1388.67 618.424 1385.53 617.655 1382.32 617.387L1380.89 616.626C1382.16 615.078 1387.68 614.08 1389.92 613.521Z"/><path fill="#B4A0A2" d="M608.505 838.066C606.651 838.041 601.985 837.75 600.727 836.523C604.164 835.03 608.601 835.476 612.435 835.557L607.994 836.467L607.637 837.264L608.505 838.066Z"/></svg>